{
copyright = "Copyright (c) 2015, Cadson Demak (info@cadsondemak.com)";
customParameters = (
{
name = vendorID;
value = CDK;
},
{
name = description;
value = "Copyright (c) 2015, Cadson Demak (info@cadsondemak.com)";
},
{
name = license;

glyphs = (
{
glyphname = A;
lastChange = "2015-11-30 00:26:47 +0000";
layers = (
{
layerId = "BD32059E-0A74-4E00-835E-4479F7BE2418";
name = Regular;
paths = (
{
closed = 1;
nodes = (
"150 0 LINE",
"218 174 LINE",
"527 174 LINE",
"597 0 LINE",
"701 0 LINE",
"422 699 LINE",
"324 699 LINE",
"45 0 LINE"
);
},
{
closed = 1;
nodes = (
"373 586 LINE",
"499 259 LINE",
"247 259 LINE"
);
}
);
width = 746;
}
);
leftKerningGroup = A;
note = A;
rightKerningGroup = A;
unicode = 0041;
},
{
glyphname = Aacute;
lastChange = "2015-11-30 00:26:46 +0000";
layers = (
{
layerId = "BD32059E-0A74-4E00-835E-4479F7BE2418";
name = Regular;
paths = (
{
closed = 1;
nodes = (
"150 0 LINE",
"218 174 LINE",
"527 174 LINE",
"597 0 LINE",
"701 0 LINE",
"422 699 LINE",
"324 699 LINE",
"45 0 LINE"
);
},
{
closed = 1;
nodes = (
"373 586 LINE",
"499 259 LINE",
"247 259 LINE"
);
},
{
closed = 1;
nodes = (
"424 741 LINE",
"507 913 LINE",
"400 913 LINE",
"332 741 LINE"
);
}
);
width = 746;
}
);
leftKerningGroup = A;
note = Aacute;
rightKerningGroup = A;
unicode = 00C1;
},
{
glyphname = Abreve;
lastChange = "2015-11-30 00:26:47 +0000";
layers = (
{
layerId = "BD32059E-0A74-4E00-835E-4479F7BE2418";
name = Regular;
paths = (
{
closed = 1;
nodes = (
"150 0 LINE",
"218 174 LINE",
"527 174 LINE",
"597 0 LINE",
"701 0 LINE",
"422 699 LINE",
"324 699 LINE",
"45 0 LINE"
);
},
{
closed = 1;
nodes = (
"373 586 LINE",
"499 259 LINE",
"247 259 LINE"
);
},
{
closed = 1;
nodes = (
"466 742 OFFCURVE",
"523 800 OFFCURVE",
"523 882 CURVE",
"446 882 LINE",
"446 837 OFFCURVE",
"419 811 OFFCURVE",
"373 811 CURVE SMOOTH",
"327 811 OFFCURVE",
"300 837 OFFCURVE",
"300 882 CURVE",
"222 882 LINE",
"222 800 OFFCURVE",
"279 742 OFFCURVE",
"373 742 CURVE SMOOTH"
);
}
);
width = 746;
}
);
leftKerningGroup = A;
note = Abreve;
rightKerningGroup = A;
unicode = 0102;
},
{
glyphname = Abreveacute;
lastChange = "2015-11-30 00:26:46 +0000";
layers = (
{
layerId = "BD32059E-0A74-4E00-835E-4479F7BE2418";
name = Regular;
paths = (
{
closed = 1;
nodes = (
"150 0 LINE",
"218 174 LINE",
"527 174 LINE",
"597 0 LINE",
"701 0 LINE",
"422 699 LINE",
"324 699 LINE",
"45 0 LINE"
);
},
{
closed = 1;
nodes = (
"373 586 LINE",
"499 259 LINE",
"247 259 LINE"
);
},
{
closed = 1;
nodes = (
"463 742 OFFCURVE",
"519 798 OFFCURVE",
"519 879 CURVE",
"444 879 LINE",
"444 835 OFFCURVE",
"418 809 OFFCURVE",
"372 809 CURVE SMOOTH",
"327 809 OFFCURVE",
"301 835 OFFCURVE",
"301 879 CURVE",
"226 879 LINE",
"226 798 OFFCURVE",
"281 742 OFFCURVE",
"372 742 CURVE SMOOTH"
);
},
{
closed = 1;
nodes = (
"403 874 LINE",
"468 998 LINE",
"385 998 LINE",
"333 874 LINE"
);
}
);
width = 746;
}
);
leftKerningGroup = A;
note = Abreveacute;
rightKerningGroup = A;
unicode = 1EAE;
},
{
glyphname = Abrevedotbelow;
lastChange = "2015-11-30 00:26:45 +0000";
layers = (
{
layerId = "BD32059E-0A74-4E00-835E-4479F7BE2418";
name = Regular;
paths = (
{
closed = 1;
nodes = (
"150 0 LINE",
"218 174 LINE",
"527 174 LINE",
"597 0 LINE",
"701 0 LINE",
"422 699 LINE",
"324 699 LINE",
"45 0 LINE"
);
},
{
closed = 1;
nodes = (
"405 -166 OFFCURVE",
"431 -140 OFFCURVE",
"431 -108 CURVE SMOOTH",
"431 -76 OFFCURVE",
"405 -50 OFFCURVE",
"374 -50 CURVE SMOOTH",
"342 -50 OFFCURVE",
"315 -76 OFFCURVE",
"315 -108 CURVE SMOOTH",
"315 -140 OFFCURVE",
"342 -166 OFFCURVE",
"374 -166 CURVE SMOOTH"
);
},
{
closed = 1;
nodes = (
"373 586 LINE",
"499 259 LINE",
"247 259 LINE"
);
},
{
closed = 1;
nodes = (
"466 742 OFFCURVE",
"523 800 OFFCURVE",
"523 882 CURVE",
"446 882 LINE",
"446 837 OFFCURVE",
"419 811 OFFCURVE",
"373 811 CURVE SMOOTH",
"327 811 OFFCURVE",
"300 837 OFFCURVE",
"300 882 CURVE",
"222 882 LINE",
"222 800 OFFCURVE",
"279 742 OFFCURVE",
"373 742 CURVE SMOOTH"
);
}
);
width = 746;
}
);
leftKerningGroup = A;
note = Abrevedotbelow;
rightKerningGroup = A;
unicode = 1EB6;
},
{
glyphname = Abrevegrave;
lastChange = "2015-11-30 00:26:46 +0000";
layers = (
{
layerId = "BD32059E-0A74-4E00-835E-4479F7BE2418";
name = Regular;
paths = (
{
closed = 1;
nodes = (
"150 0 LINE",
"218 174 LINE",
"527 174 LINE",
"597 0 LINE",
"701 0 LINE",
"422 699 LINE",
"324 699 LINE",
"45 0 LINE"
);
},
{
closed = 1;
nodes = (
"373 586 LINE",
"499 259 LINE",
"247 259 LINE"
);
},
{
closed = 1;
nodes = (
"463 742 OFFCURVE",
"519 798 OFFCURVE",
"519 879 CURVE",
"444 879 LINE",
"444 835 OFFCURVE",
"418 809 OFFCURVE",
"372 809 CURVE SMOOTH",
"327 809 OFFCURVE",
"301 835 OFFCURVE",
"301 879 CURVE",
"226 879 LINE",
"226 798 OFFCURVE",
"281 742 OFFCURVE",
"372 742 CURVE SMOOTH"
);
},
{
closed = 1;
nodes = (
"412 874 LINE",
"360 998 LINE",
"277 998 LINE",
"342 874 LINE"
);
}
);
width = 746;
}
);
leftKerningGroup = A;
note = Abrevegrave;
rightKerningGroup = A;
unicode = 1EB0;
},
{
glyphname = Abrevehookabove;
lastChange = "2015-11-30 00:26:46 +0000";
layers = (
{
layerId = "BD32059E-0A74-4E00-835E-4479F7BE2418";
name = Regular;
paths = (
{
closed = 1;
nodes = (
"150 0 LINE",
"218 174 LINE",
"527 174 LINE",
"597 0 LINE",
"701 0 LINE",
"422 699 LINE",
"324 699 LINE",
"45 0 LINE"
);
},
{
closed = 1;
nodes = (
"373 586 LINE",
"499 259 LINE",
"247 259 LINE"
);
},
{
closed = 1;
nodes = (
"464 742 OFFCURVE",
"519 798 OFFCURVE",
"519 879 CURVE",
"446 879 LINE",
"446 835 OFFCURVE",
"418 808 OFFCURVE",
"373 808 CURVE SMOOTH",
"327 808 OFFCURVE",
"300 835 OFFCURVE",
"300 879 CURVE",
"226 879 LINE",
"226 798 OFFCURVE",
"282 742 OFFCURVE",
"373 742 CURVE SMOOTH"
);
},
{
closed = 1;
nodes = (
"404 862 LINE",
"404 886 LINE",
"446 893 OFFCURVE",
"470 918 OFFCURVE",
"470 951 CURVE SMOOTH",
"470 992 OFFCURVE",
"437 1019 OFFCURVE",
"379 1019 CURVE SMOOTH",
"357 1019 OFFCURVE",
"329 1015 OFFCURVE",
"313 1009 CURVE",
"313 967 LINE",
"323 972 OFFCURVE",
"341 975 OFFCURVE",
"356 975 CURVE SMOOTH",
"385 975 OFFCURVE",
"399 967 OFFCURVE",
"399 945 CURVE SMOOTH",
"399 921 OFFCURVE",
"380 912 OFFCURVE",
"340 912 CURVE",
"340 862 LINE"
);
}
);
width = 746;
}
);
leftKerningGroup = A;
note = Abrevehookabove;
rightKerningGroup = A;
unicode = 1EB2;
},
{
glyphname = Abrevetilde;
lastChange = "2015-11-30 00:26:46 +0000";
layers = (
{
layerId = "BD32059E-0A74-4E00-835E-4479F7BE2418";
name = Regular;
paths = (
{
closed = 1;
nodes = (
"150 0 LINE",
"218 174 LINE",
"527 174 LINE",
"597 0 LINE",
"701 0 LINE",
"422 699 LINE",
"324 699 LINE",
"45 0 LINE"
);
},
{
closed = 1;
nodes = (
"373 586 LINE",
"499 259 LINE",
"247 259 LINE"
);
},
{
closed = 1;
nodes = (
"466 742 OFFCURVE",
"522 798 OFFCURVE",
"522 879 CURVE",
"447 879 LINE",
"447 835 OFFCURVE",
"421 809 OFFCURVE",
"375 809 CURVE SMOOTH",
"330 809 OFFCURVE",
"303 835 OFFCURVE",
"303 879 CURVE",
"229 879 LINE",
"229 798 OFFCURVE",
"284 742 OFFCURVE",
"375 742 CURVE SMOOTH"
);
},
{
closed = 1;
nodes = (
"239 939 OFFCURVE",
"264 950 OFFCURVE",
"295 950 CURVE SMOOTH",
"346 950 OFFCURVE",
"392 907 OFFCURVE",
"451 907 CURVE SMOOTH",
"486 907 OFFCURVE",
"514 916 OFFCURVE",
"532 942 CURVE",
"532 1017 LINE",
"509 984 OFFCURVE",
"482 973 OFFCURVE",
"451 973 CURVE SMOOTH",
"399 973 OFFCURVE",
"350 1017 OFFCURVE",
"295 1017 CURVE SMOOTH",
"260 1017 OFFCURVE",
"232 1007 OFFCURVE",
"214 981 CURVE",
"214 906 LINE"
);
}
);
width = 746;
}
);
leftKerningGroup = A;
note = Abrevetilde;
rightKerningGroup = A;
unicode = 1EB4;
},
{
glyphname = Acaron;
lastChange = "2015-11-30 00:26:45 +0000";
layers = (
{
layerId = "BD32059E-0A74-4E00-835E-4479F7BE2418";
name = Regular;
paths = (
{
closed = 1;
nodes = (
"150 0 LINE",
"218 174 LINE",
"527 174 LINE",
"597 0 LINE",
"701 0 LINE",
"422 699 LINE",
"324 699 LINE",
"45 0 LINE"
);
},
{
closed = 1;
nodes = (
"373 586 LINE",
"499 259 LINE",
"247 259 LINE"
);
},
{
closed = 1;
nodes = (
"418 742 LINE",
"560 908 LINE",
"458 908 LINE",
"374 801 LINE",
"290 908 LINE",
"187 908 LINE",
"329 742 LINE"
);
}
);
width = 746;
}
);
leftKerningGroup = A;
note = Acaron;
rightKerningGroup = A;
unicode = 01CD;
},
{
glyphname = Acircumflex;
lastChange = "2015-11-30 00:26:45 +0000";
layers = (
{
layerId = "BD32059E-0A74-4E00-835E-4479F7BE2418";
name = Regular;
paths = (
{
closed = 1;
nodes = (
"150 0 LINE",
"218 174 LINE",
"527 174 LINE",
"597 0 LINE",
"701 0 LINE",
"422 699 LINE",
"324 699 LINE",
"45 0 LINE"
);
},
{
closed = 1;
nodes = (
"373 586 LINE",
"499 259 LINE",
"247 259 LINE"
);
},
{
closed = 1;
nodes = (
"290 741 LINE",
"374 848 LINE",
"458 741 LINE",
"560 741 LINE",
"418 907 LINE",
"329 907 LINE",
"187 741 LINE"
);
}
);
width = 746;
}
);
leftKerningGroup = A;
note = Acircumflex;
rightKerningGroup = A;
unicode = 00C2;
},
{
glyphname = Acircumflexacute;
lastChange = "2015-11-30 00:26:47 +0000";
layers = (
{
layerId = "BD32059E-0A74-4E00-835E-4479F7BE2418";
name = Regular;
paths = (
{
closed = 1;
nodes = (
"150 0 LINE",
"218 174 LINE",
"527 174 LINE",
"597 0 LINE",
"701 0 LINE",
"422 699 LINE",
"324 699 LINE",
"45 0 LINE"
);
},
{
closed = 1;
nodes = (
"373 586 LINE",
"499 259 LINE",
"247 259 LINE"
);
},
{
closed = 1;
nodes = (
"288 747 LINE",
"370 837 LINE",
"452 747 LINE",
"551 747 LINE",
"413 892 LINE",
"327 892 LINE",
"189 747 LINE"
);
},
{
closed = 1;
nodes = (
"559 848 LINE",
"638 972 LINE",
"547 972 LINE",
"481 848 LINE"
);
}
);
width = 746;
}
);
leftKerningGroup = A;
note = Acircumflexacute;
rightKerningGroup = A;
unicode = 1EA4;
},
{
glyphname = Acircumflexdotbelow;
lastChange = "2015-11-30 00:26:45 +0000";
layers = (
{
layerId = "BD32059E-0A74-4E00-835E-4479F7BE2418";
name = Regular;
paths = (
{
closed = 1;
nodes = (
"150 0 LINE",
"218 174 LINE",
"527 174 LINE",
"597 0 LINE",
"701 0 LINE",
"422 699 LINE",
"324 699 LINE",
"45 0 LINE"
);
},
{
closed = 1;
nodes = (
"405 -166 OFFCURVE",
"431 -140 OFFCURVE",
"431 -108 CURVE SMOOTH",
"431 -76 OFFCURVE",
"405 -50 OFFCURVE",
"374 -50 CURVE SMOOTH",
"342 -50 OFFCURVE",
"315 -76 OFFCURVE",
"315 -108 CURVE SMOOTH",
"315 -140 OFFCURVE",
"342 -166 OFFCURVE",
"374 -166 CURVE SMOOTH"
);
},
{
closed = 1;
nodes = (
"373 586 LINE",
"499 259 LINE",
"247 259 LINE"
);
},
{
closed = 1;
nodes = (
"290 741 LINE",
"374 848 LINE",
"458 741 LINE",
"560 741 LINE",
"418 907 LINE",
"329 907 LINE",
"187 741 LINE"
);
}
);
width = 746;
}
);
leftKerningGroup = A;
note = Acircumflexdotbelow;
rightKerningGroup = A;
unicode = 1EAC;
},
{
glyphname = Acircumflexgrave;
lastChange = "2015-11-30 00:26:46 +0000";
layers = (
{
layerId = "BD32059E-0A74-4E00-835E-4479F7BE2418";
name = Regular;
paths = (
{
closed = 1;
nodes = (
"150 0 LINE",
"218 174 LINE",
"527 174 LINE",
"597 0 LINE",
"701 0 LINE",
"422 699 LINE",
"324 699 LINE",
"45 0 LINE"
);
},
{
closed = 1;
nodes = (
"373 586 LINE",
"499 259 LINE",
"247 259 LINE"
);
},
{
closed = 1;
nodes = (
"268 842 LINE",
"202 966 LINE",
"111 966 LINE",
"190 842 LINE"
);
},
{
closed = 1;
nodes = (
"297 741 LINE",
"379 831 LINE",
"461 741 LINE",
"560 741 LINE",
"422 886 LINE",
"336 886 LINE",
"198 741 LINE"
);
}
);
width = 746;
}
);
leftKerningGroup = A;
note = Acircumflexgrave;
rightKerningGroup = A;
unicode = 1EA6;
},
{
glyphname = Acircumflexhookabove;
lastChange = "2015-11-30 00:26:46 +0000";
layers = (
{
layerId = "BD32059E-0A74-4E00-835E-4479F7BE2418";
name = Regular;
paths = (
{
closed = 1;
nodes = (
"150 0 LINE",
"218 174 LINE",
"527 174 LINE",
"597 0 LINE",
"701 0 LINE",
"422 699 LINE",
"324 699 LINE",
"45 0 LINE"
);
},
{
closed = 1;
nodes = (
"373 586 LINE",
"499 259 LINE",
"247 259 LINE"
);
},
{
closed = 1;
nodes = (
"291 747 LINE",
"373 837 LINE",
"455 747 LINE",
"554 747 LINE",
"416 892 LINE",
"330 892 LINE",
"192 747 LINE"
);
},
{
closed = 1;
nodes = (
"551 839 LINE",
"551 864 LINE",
"593 870 OFFCURVE",
"617 896 OFFCURVE",
"617 929 CURVE SMOOTH",
"617 970 OFFCURVE",
"584 997 OFFCURVE",
"526 997 CURVE SMOOTH",
"504 997 OFFCURVE",
"476 992 OFFCURVE",
"460 987 CURVE",
"460 944 LINE",
"470 949 OFFCURVE",
"488 952 OFFCURVE",
"503 952 CURVE SMOOTH",
"532 952 OFFCURVE",
"546 944 OFFCURVE",
"546 923 CURVE SMOOTH",
"546 899 OFFCURVE",
"527 889 OFFCURVE",
"487 889 CURVE",
"487 839 LINE"
);
}
);
width = 746;
}
);
leftKerningGroup = A;
note = Acircumflexhookabove;
rightKerningGroup = A;
unicode = 1EA8;
},
{
glyphname = Acircumflextilde;
lastChange = "2015-11-30 00:26:46 +0000";
layers = (
{
layerId = "BD32059E-0A74-4E00-835E-4479F7BE2418";
name = Regular;
paths = (
{
closed = 1;
nodes = (
"150 0 LINE",
"218 174 LINE",
"527 174 LINE",
"597 0 LINE",
"701 0 LINE",
"422 699 LINE",
"324 699 LINE",
"45 0 LINE"
);
},
{
closed = 1;
nodes = (
"373 586 LINE",
"499 259 LINE",
"247 259 LINE"
);
},
{
closed = 1;
nodes = (
"280 741 LINE",
"362 831 LINE",
"444 741 LINE",
"543 741 LINE",
"405 886 LINE",
"319 886 LINE",
"181 741 LINE"
);
},
{
closed = 1;
nodes = (
"232 927 OFFCURVE",
"257 938 OFFCURVE",
"288 938 CURVE SMOOTH",
"339 938 OFFCURVE",
"385 895 OFFCURVE",
"444 895 CURVE SMOOTH",
"479 895 OFFCURVE",
"507 904 OFFCURVE",
"525 930 CURVE",
"525 1005 LINE",
"502 972 OFFCURVE",
"475 961 OFFCURVE",
"444 961 CURVE SMOOTH",
"392 961 OFFCURVE",
"343 1005 OFFCURVE",
"288 1005 CURVE SMOOTH",
"253 1005 OFFCURVE",
"225 995 OFFCURVE",
"207 969 CURVE",
"207 894 LINE"
);
}
);
width = 746;
}
);
leftKerningGroup = A;
note = Acircumflextilde;
rightKerningGroup = A;
unicode = 1EAA;
},
{
glyphname = Adieresis;
lastChange = "2015-11-30 00:26:45 +0000";
layers = (
{
layerId = "BD32059E-0A74-4E00-835E-4479F7BE2418";
name = Regular;
paths = (
{
closed = 1;
nodes = (
"150 0 LINE",
"218 174 LINE",
"527 174 LINE",
"597 0 LINE",
"701 0 LINE",
"422 699 LINE",
"324 699 LINE",
"45 0 LINE"
);
},
{
closed = 1;
nodes = (
"373 586 LINE",
"499 259 LINE",
"247 259 LINE"
);
},
{
closed = 1;
nodes = (
"291 741 OFFCURVE",
"317 767 OFFCURVE",
"317 799 CURVE SMOOTH",
"317 831 OFFCURVE",
"291 857 OFFCURVE",
"260 857 CURVE SMOOTH",
"228 857 OFFCURVE",
"201 831 OFFCURVE",
"201 799 CURVE SMOOTH",
"201 767 OFFCURVE",
"228 741 OFFCURVE",
"260 741 CURVE SMOOTH"
);
},
{
closed = 1;
nodes = (
"518 741 OFFCURVE",
"544 767 OFFCURVE",
"544 799 CURVE SMOOTH",
"544 831 OFFCURVE",
"518 857 OFFCURVE",
"487 857 CURVE SMOOTH",
"455 857 OFFCURVE",
"428 831 OFFCURVE",
"428 799 CURVE SMOOTH",
"428 767 OFFCURVE",
"455 741 OFFCURVE",
"487 741 CURVE SMOOTH"
);
}
);
width = 746;
}
);
leftKerningGroup = A;
note = Adieresis;
rightKerningGroup = A;
unicode = 00C4;
},
{
glyphname = Adotbelow;
lastChange = "2015-11-30 00:26:47 +0000";
layers = (
{
layerId = "BD32059E-0A74-4E00-835E-4479F7BE2418";
name = Regular;
paths = (
{
closed = 1;
nodes = (
"150 0 LINE",
"218 174 LINE",
"527 174 LINE",
"597 0 LINE",
"701 0 LINE",
"422 699 LINE",
"324 699 LINE",
"45 0 LINE"
);
},
{
closed = 1;
nodes = (
"404 -166 OFFCURVE",
"430 -140 OFFCURVE",
"430 -108 CURVE SMOOTH",
"430 -76 OFFCURVE",
"404 -50 OFFCURVE",
"373 -50 CURVE SMOOTH",
"341 -50 OFFCURVE",
"314 -76 OFFCURVE",
"314 -108 CURVE SMOOTH",
"314 -140 OFFCURVE",
"341 -166 OFFCURVE",
"373 -166 CURVE SMOOTH"
);
},
{
closed = 1;
nodes = (
"373 586 LINE",
"499 259 LINE",
"247 259 LINE"
);
}
);
width = 746;
}
);
leftKerningGroup = A;
note = Adotbelow;
rightKerningGroup = A;
unicode = 1EA0;
},
{
glyphname = Agrave;
lastChange = "2015-11-30 00:26:45 +0000";
layers = (
{
layerId = "BD32059E-0A74-4E00-835E-4479F7BE2418";
name = Regular;
paths = (
{
closed = 1;
nodes = (
"150 0 LINE",
"218 174 LINE",
"527 174 LINE",
"597 0 LINE",
"701 0 LINE",
"422 699 LINE",
"324 699 LINE",
"45 0 LINE"
);
},
{
closed = 1;
nodes = (
"373 586 LINE",
"499 259 LINE",
"247 259 LINE"
);
},
{
closed = 1;
nodes = (
"416 741 LINE",
"347 913 LINE",
"240 913 LINE",
"323 741 LINE"
);
}
);
width = 746;
}
);
leftKerningGroup = A;
note = Agrave;
rightKerningGroup = A;
unicode = 00C0;
},
{
glyphname = Ahookabove;
lastChange = "2015-11-30 00:26:48 +0000";
layers = (
{
layerId = "BD32059E-0A74-4E00-835E-4479F7BE2418";
name = Regular;
paths = (
{
closed = 1;
nodes = (
"150 0 LINE",
"218 174 LINE",
"527 174 LINE",
"597 0 LINE",
"701 0 LINE",
"422 699 LINE",
"324 699 LINE",
"45 0 LINE"
);
},
{
closed = 1;
nodes = (
"373 586 LINE",
"499 259 LINE",
"247 259 LINE"
);
},
{
closed = 1;
nodes = (
"417 742 LINE",
"417 776 LINE",
"477 784 OFFCURVE",
"509 822 OFFCURVE",
"509 870 CURVE SMOOTH",
"509 927 OFFCURVE",
"466 967 OFFCURVE",
"378 967 CURVE SMOOTH",
"346 967 OFFCURVE",
"311 961 OFFCURVE",
"291 954 CURVE",
"291 899 LINE",
"304 905 OFFCURVE",
"338 910 OFFCURVE",
"354 910 CURVE SMOOTH",
"400 910 OFFCURVE",
"420 897 OFFCURVE",
"420 866 CURVE SMOOTH",
"420 827 OFFCURVE",
"388 813 OFFCURVE",
"328 813 CURVE",
"328 742 LINE"
);
}
);
width = 746;
}
);
leftKerningGroup = A;
note = Ahookabove;
rightKerningGroup = A;
unicode = 1EA2;
},
{
glyphname = Amacron;
lastChange = "2015-11-30 00:26:45 +0000";
layers = (
{
layerId = "BD32059E-0A74-4E00-835E-4479F7BE2418";
name = Regular;
paths = (
{
closed = 1;
nodes = (
"150 0 LINE",
"218 174 LINE",
"527 174 LINE",
"597 0 LINE",
"701 0 LINE",
"422 699 LINE",
"324 699 LINE",
"45 0 LINE"
);
},
{
closed = 1;
nodes = (
"373 586 LINE",
"499 259 LINE",
"247 259 LINE"
);
},
{
closed = 1;
nodes = (
"529 752 LINE",
"529 821 LINE",
"217 821 LINE",
"217 752 LINE"
);
}
);
width = 746;
}
);
leftKerningGroup = A;
note = Amacron;
rightKerningGroup = A;
unicode = 0100;
},
{
glyphname = Aogonek;
lastChange = "2015-11-30 00:26:45 +0000";
layers = (
{
layerId = "BD32059E-0A74-4E00-835E-4479F7BE2418";
name = Regular;
paths = (
{
closed = 1;
nodes = (
"150 0 LINE",
"218 174 LINE",
"527 174 LINE",
"597 0 LINE",
"701 0 LINE",
"422 699 LINE",
"324 699 LINE",
"45 0 LINE"
);
},
{
closed = 1;
nodes = (
"653 -212 OFFCURVE",
"681 -207 OFFCURVE",
"700 -200 CURVE",
"700 -139 LINE",
"686 -145 OFFCURVE",
"670 -149 OFFCURVE",
"652 -149 CURVE SMOOTH",
"624 -149 OFFCURVE",
"608 -135 OFFCURVE",
"608 -106 CURVE SMOOTH",
"608 -65 OFFCURVE",
"636 -33 OFFCURVE",
"687 0 CURVE",
"593 0 LINE",
"551 -27 OFFCURVE",
"519 -70 OFFCURVE",
"519 -122 CURVE SMOOTH",
"519 -183 OFFCURVE",
"565 -212 OFFCURVE",
"623 -212 CURVE SMOOTH"
);
},
{
closed = 1;
nodes = (
"373 586 LINE",
"499 259 LINE",
"247 259 LINE"
);
}
);
width = 746;
}
);
leftKerningGroup = A;
note = Aogonek;
rightKerningGroup = A;
unicode = 0104;
},
{
glyphname = Aring;
lastChange = "2015-11-30 00:26:46 +0000";
layers = (
{
layerId = "BD32059E-0A74-4E00-835E-4479F7BE2418";
name = Regular;
paths = (
{
closed = 1;
nodes = (
"150 0 LINE",
"218 174 LINE",
"527 174 LINE",
"597 0 LINE",
"701 0 LINE",
"422 699 LINE",
"324 699 LINE",
"45 0 LINE"
);
},
{
closed = 1;
nodes = (
"373 586 LINE",
"499 259 LINE",
"247 259 LINE"
);
},
{
closed = 1;
nodes = (
"437 653 OFFCURVE",
"489 704 OFFCURVE",
"489 769 CURVE SMOOTH",
"489 833 OFFCURVE",
"437 885 OFFCURVE",
"373 885 CURVE SMOOTH",
"308 885 OFFCURVE",
"257 833 OFFCURVE",
"257 769 CURVE SMOOTH",
"257 704 OFFCURVE",
"308 653 OFFCURVE",
"373 653 CURVE SMOOTH"
);
},
{
closed = 1;
nodes = (
"343 714 OFFCURVE",
"319 739 OFFCURVE",
"319 769 CURVE SMOOTH",
"319 798 OFFCURVE",
"343 823 OFFCURVE",
"373 823 CURVE SMOOTH",
"402 823 OFFCURVE",
"427 798 OFFCURVE",
"427 769 CURVE SMOOTH",
"427 739 OFFCURVE",
"402 714 OFFCURVE",
"373 714 CURVE SMOOTH"
);
}
);
width = 746;
}
);
leftKerningGroup = A;
note = Aring;
rightKerningGroup = A;
unicode = 00C5;
},
{
glyphname = Aringacute;
lastChange = "2015-11-30 00:26:46 +0000";
layers = (
{
layerId = "BD32059E-0A74-4E00-835E-4479F7BE2418";
name = Regular;
paths = (
{
closed = 1;
nodes = (
"150 0 LINE",
"218 174 LINE",
"527 174 LINE",
"597 0 LINE",
"701 0 LINE",
"422 699 LINE",
"324 699 LINE",
"45 0 LINE"
);
},
{
closed = 1;
nodes = (
"373 586 LINE",
"499 259 LINE",
"247 259 LINE"
);
},
{
closed = 1;
nodes = (
"437 659 OFFCURVE",
"489 710 OFFCURVE",
"489 775 CURVE SMOOTH",
"489 839 OFFCURVE",
"437 891 OFFCURVE",
"373 891 CURVE SMOOTH",
"308 891 OFFCURVE",
"257 839 OFFCURVE",
"257 775 CURVE SMOOTH",
"257 710 OFFCURVE",
"308 659 OFFCURVE",
"373 659 CURVE SMOOTH"
);
},
{
closed = 1;
nodes = (
"343 720 OFFCURVE",
"319 745 OFFCURVE",
"319 775 CURVE SMOOTH",
"319 804 OFFCURVE",
"343 829 OFFCURVE",
"373 829 CURVE SMOOTH",
"402 829 OFFCURVE",
"427 804 OFFCURVE",
"427 775 CURVE SMOOTH",
"427 745 OFFCURVE",
"402 720 OFFCURVE",
"373 720 CURVE SMOOTH"
);
},
{
closed = 1;
nodes = (
"418 912 LINE",
"501 1050 LINE",
"394 1050 LINE",
"326 912 LINE"
);
}
);
width = 746;
}
);
leftKerningGroup = A;
note = Aringacute;
rightKerningGroup = A;
unicode = 01FA;
},
{
glyphname = Atilde;
lastChange = "2015-11-30 00:26:45 +0000";
layers = (
{
layerId = "BD32059E-0A74-4E00-835E-4479F7BE2418";
name = Regular;
paths = (
{
closed = 1;
nodes = (
"150 0 LINE",
"218 174 LINE",
"527 174 LINE",
"597 0 LINE",
"701 0 LINE",
"422 699 LINE",
"324 699 LINE",
"45 0 LINE"
);
},
{
closed = 1;
nodes = (
"373 586 LINE",
"499 259 LINE",
"247 259 LINE"
);
},
{
closed = 1;
nodes = (
"213 782 OFFCURVE",
"245 794 OFFCURVE",
"281 794 CURVE SMOOTH",
"345 794 OFFCURVE",
"393 744 OFFCURVE",
"466 744 CURVE SMOOTH",
"507 744 OFFCURVE",
"541 755 OFFCURVE",
"563 786 CURVE",
"563 872 LINE",
"536 833 OFFCURVE",
"503 821 OFFCURVE",
"466 821 CURVE SMOOTH",
"401 821 OFFCURVE",
"349 871 OFFCURVE",
"281 871 CURVE SMOOTH",
"241 871 OFFCURVE",
"205 859 OFFCURVE",
"183 828 CURVE",
"183 742 LINE"
);
}
);
width = 746;
}
);
leftKerningGroup = A;
note = Atilde;
rightKerningGroup = A;
unicode = 00C3;
},
{
glyphname = AE;
lastChange = "2015-11-30 00:26:46 +0000";
layers = (
{
layerId = "BD32059E-0A74-4E00-835E-4479F7BE2418";
name = Regular;
paths = (
{
closed = 1;
nodes = (
"153 0 LINE",
"240 179 LINE",
"455 179 LINE",
"455 0 LINE",
"877 0 LINE",
"877 85 LINE",
"557 85 LINE",
"557 307 LINE",
"786 307 LINE",
"786 392 LINE",
"557 392 LINE",
"557 613 LINE",
"877 613 LINE",
"877 699 LINE",
"388 699 LINE",
"45 0 LINE"
);
},
{
closed = 1;
nodes = (
"447 607 LINE",
"455 607 LINE",
"455 259 LINE",
"281 259 LINE"
);
}
);
width = 922;
}
);
leftKerningGroup = A;
note = AE;
rightKerningGroup = E;
unicode = 00C6;
},
{
glyphname = AEacute;
lastChange = "2015-11-30 00:26:45 +0000";
layers = (
{
layerId = "BD32059E-0A74-4E00-835E-4479F7BE2418";
name = Regular;
paths = (
{
closed = 1;
nodes = (
"153 0 LINE",
"240 179 LINE",
"455 179 LINE",
"455 0 LINE",
"877 0 LINE",
"877 85 LINE",
"557 85 LINE",
"557 307 LINE",
"786 307 LINE",
"786 392 LINE",
"557 392 LINE",
"557 613 LINE",
"877 613 LINE",
"877 699 LINE",
"388 699 LINE",
"45 0 LINE"
);
},
{
closed = 1;
nodes = (
"447 607 LINE",
"455 607 LINE",
"455 259 LINE",
"281 259 LINE"
);
},
{
closed = 1;
nodes = (
"603 741 LINE",
"686 913 LINE",
"579 913 LINE",
"511 741 LINE"
);
}
);
width = 922;
}
);
leftKerningGroup = A;
note = AEacute;
rightKerningGroup = E;
unicode = 01FC;
},
{
glyphname = B;
lastChange = "2015-11-30 00:26:46 +0000";
layers = (
{
layerId = "BD32059E-0A74-4E00-835E-4479F7BE2418";
name = Regular;
paths = (
{
closed = 1;
nodes = (
"403 0 LINE SMOOTH",
"514 0 OFFCURVE",
"604 73 OFFCURVE",
"604 198 CURVE SMOOTH",
"604 288 OFFCURVE",
"563 340 OFFCURVE",
"492 361 CURVE",
"544 386 OFFCURVE",
"581 440 OFFCURVE",
"581 511 CURVE SMOOTH",
"581 635 OFFCURVE",
"509 699 OFFCURVE",
"386 699 CURVE SMOOTH",
"65 699 LINE",
"65 0 LINE"
);
},
{
closed = 1;
nodes = (
"167 315 LINE",
"371 315 LINE SMOOTH",
"455 315 OFFCURVE",
"501 284 OFFCURVE",
"501 198 CURVE SMOOTH",
"501 110 OFFCURVE",
"454 83 OFFCURVE",
"380 83 CURVE SMOOTH",
"167 83 LINE"
);
},
{
closed = 1;
nodes = (
"167 616 LINE",
"366 616 LINE SMOOTH",
"439 616 OFFCURVE",
"478 590 OFFCURVE",
"478 506 CURVE SMOOTH",
"478 433 OFFCURVE",
"436 399 OFFCURVE",
"373 399 CURVE SMOOTH",
"167 399 LINE"
);
}
);
width = 649;
}
);
note = B;
unicode = 0042;
},
{
glyphname = C;
lastChange = "2015-11-30 00:26:39 +0000";
layers = (
{
layerId = "BD32059E-0A74-4E00-835E-4479F7BE2418";
name = Regular;
paths = (
{
closed = 1;
nodes = (
"515 -15 OFFCURVE",
"600 6 OFFCURVE",
"665 60 CURVE",
"665 159 LINE",
"597 100 OFFCURVE",
"520 77 OFFCURVE",
"424 77 CURVE SMOOTH",
"264 77 OFFCURVE",
"148 181 OFFCURVE",
"148 349 CURVE SMOOTH",
"148 516 OFFCURVE",
"261 620 OFFCURVE",
"424 620 CURVE SMOOTH",
"515 620 OFFCURVE",
"595 597 OFFCURVE",
"656 543 CURVE",
"656 641 LINE",
"591 690 OFFCURVE",
"512 714 OFFCURVE",
"415 714 CURVE SMOOTH",
"198 714 OFFCURVE",
"45 571 OFFCURVE",
"45 349 CURVE SMOOTH",
"45 127 OFFCURVE",
"198 -15 OFFCURVE",
"415 -15 CURVE SMOOTH"
);
}
);
width = 710;
}
);
leftKerningGroup = C;
note = C;
rightKerningGroup = C;
unicode = 0043;
},
{
glyphname = Cacute;
lastChange = "2015-11-30 00:26:47 +0000";
layers = (
{
layerId = "BD32059E-0A74-4E00-835E-4479F7BE2418";
name = Regular;
paths = (
{
closed = 1;
nodes = (
"515 -15 OFFCURVE",
"600 6 OFFCURVE",
"665 60 CURVE",
"665 159 LINE",
"597 100 OFFCURVE",
"520 77 OFFCURVE",
"424 77 CURVE SMOOTH",
"264 77 OFFCURVE",
"148 181 OFFCURVE",
"148 349 CURVE SMOOTH",
"148 516 OFFCURVE",
"261 620 OFFCURVE",
"424 620 CURVE SMOOTH",
"515 620 OFFCURVE",
"595 597 OFFCURVE",
"656 543 CURVE",
"656 641 LINE",
"591 690 OFFCURVE",
"512 714 OFFCURVE",
"415 714 CURVE SMOOTH",
"198 714 OFFCURVE",
"45 571 OFFCURVE",
"45 349 CURVE SMOOTH",
"45 127 OFFCURVE",
"198 -15 OFFCURVE",
"415 -15 CURVE SMOOTH"
);
},
{
closed = 1;
nodes = (
"459 741 LINE",
"542 913 LINE",
"435 913 LINE",
"367 741 LINE"
);
}
);
width = 710;
}
);
leftKerningGroup = C;
note = Cacute;
rightKerningGroup = C;
unicode = 0106;
},
{
glyphname = Ccaron;
lastChange = "2015-11-30 00:26:47 +0000";
layers = (
{
layerId = "BD32059E-0A74-4E00-835E-4479F7BE2418";
name = Regular;
paths = (
{
closed = 1;
nodes = (
"515 -15 OFFCURVE",
"600 6 OFFCURVE",
"665 60 CURVE",
"665 159 LINE",
"597 100 OFFCURVE",
"520 77 OFFCURVE",
"424 77 CURVE SMOOTH",
"264 77 OFFCURVE",
"148 181 OFFCURVE",
"148 349 CURVE SMOOTH",
"148 516 OFFCURVE",
"261 620 OFFCURVE",
"424 620 CURVE SMOOTH",
"515 620 OFFCURVE",
"595 597 OFFCURVE",
"656 543 CURVE",
"656 641 LINE",
"591 690 OFFCURVE",
"512 714 OFFCURVE",
"415 714 CURVE SMOOTH",
"198 714 OFFCURVE",
"45 571 OFFCURVE",
"45 349 CURVE SMOOTH",
"45 127 OFFCURVE",
"198 -15 OFFCURVE",
"415 -15 CURVE SMOOTH"
);
},
{
closed = 1;
nodes = (
"456 742 LINE",
"598 908 LINE",
"496 908 LINE",
"412 801 LINE",
"328 908 LINE",
"225 908 LINE",
"367 742 LINE"
);
}
);
width = 710;
}
);
leftKerningGroup = C;
note = Ccaron;
rightKerningGroup = C;
unicode = 010C;
},
{
glyphname = Ccedilla;
lastChange = "2015-11-30 00:26:46 +0000";
layers = (
{
layerId = "BD32059E-0A74-4E00-835E-4479F7BE2418";
name = Regular;
paths = (
{
closed = 1;
nodes = (
"515 -15 OFFCURVE",
"600 6 OFFCURVE",
"665 60 CURVE",
"665 159 LINE",
"597 100 OFFCURVE",
"520 77 OFFCURVE",
"424 77 CURVE SMOOTH",
"264 77 OFFCURVE",
"148 181 OFFCURVE",
"148 349 CURVE SMOOTH",
"148 516 OFFCURVE",
"261 620 OFFCURVE",
"424 620 CURVE SMOOTH",
"515 620 OFFCURVE",
"595 597 OFFCURVE",
"656 543 CURVE",
"656 641 LINE",
"591 690 OFFCURVE",
"512 714 OFFCURVE",
"415 714 CURVE SMOOTH",
"198 714 OFFCURVE",
"45 571 OFFCURVE",
"45 349 CURVE SMOOTH",
"45 127 OFFCURVE",
"198 -15 OFFCURVE",
"415 -15 CURVE SMOOTH"
);
},
{
closed = 1;
nodes = (
"492 -248 OFFCURVE",
"543 -210 OFFCURVE",
"543 -151 CURVE SMOOTH",
"543 -99 OFFCURVE",
"513 -64 OFFCURVE",
"452 -56 CURVE",
"474 0 LINE",
"382 0 LINE",
"348 -89 LINE",
"423 -89 OFFCURVE",
"449 -111 OFFCURVE",
"449 -144 CURVE SMOOTH",
"449 -176 OFFCURVE",
"426 -190 OFFCURVE",
"385 -190 CURVE SMOOTH",
"366 -190 OFFCURVE",
"341 -185 OFFCURVE",
"328 -179 CURVE",
"327 -237 LINE",
"344 -244 OFFCURVE",
"377 -248 OFFCURVE",
"409 -248 CURVE SMOOTH"
);
}
);
width = 710;
}
);
leftKerningGroup = C;
note = Ccedilla;
rightKerningGroup = C;
unicode = 00C7;
},
{
glyphname = Ccircumflex;
lastChange = "2015-11-30 00:26:45 +0000";
layers = (
{
layerId = "BD32059E-0A74-4E00-835E-4479F7BE2418";
name = Regular;
paths = (
{
closed = 1;
nodes = (
"515 -15 OFFCURVE",
"600 6 OFFCURVE",
"665 60 CURVE",
"665 159 LINE",
"597 100 OFFCURVE",
"520 77 OFFCURVE",
"424 77 CURVE SMOOTH",
"264 77 OFFCURVE",
"148 181 OFFCURVE",
"148 349 CURVE SMOOTH",
"148 516 OFFCURVE",
"261 620 OFFCURVE",
"424 620 CURVE SMOOTH",
"515 620 OFFCURVE",
"595 597 OFFCURVE",
"656 543 CURVE",
"656 641 LINE",
"591 690 OFFCURVE",
"512 714 OFFCURVE",
"415 714 CURVE SMOOTH",
"198 714 OFFCURVE",
"45 571 OFFCURVE",
"45 349 CURVE SMOOTH",
"45 127 OFFCURVE",
"198 -15 OFFCURVE",
"415 -15 CURVE SMOOTH"
);
},
{
closed = 1;
nodes = (
"323 741 LINE",
"407 848 LINE",
"491 741 LINE",
"593 741 LINE",
"451 907 LINE",
"362 907 LINE",
"220 741 LINE"
);
}
);
width = 710;
}
);
leftKerningGroup = C;
note = Ccircumflex;
rightKerningGroup = C;
unicode = 0108;
},
{
glyphname = Cdotaccent;
lastChange = "2015-11-30 00:26:45 +0000";
layers = (
{
layerId = "BD32059E-0A74-4E00-835E-4479F7BE2418";
name = Regular;
paths = (
{
closed = 1;
nodes = (
"515 -15 OFFCURVE",
"600 6 OFFCURVE",
"665 60 CURVE",
"665 159 LINE",
"597 100 OFFCURVE",
"520 77 OFFCURVE",
"424 77 CURVE SMOOTH",
"264 77 OFFCURVE",
"148 181 OFFCURVE",
"148 349 CURVE SMOOTH",
"148 516 OFFCURVE",
"261 620 OFFCURVE",
"424 620 CURVE SMOOTH",
"515 620 OFFCURVE",
"595 597 OFFCURVE",
"656 543 CURVE",
"656 641 LINE",
"591 690 OFFCURVE",
"512 714 OFFCURVE",
"415 714 CURVE SMOOTH",
"198 714 OFFCURVE",
"45 571 OFFCURVE",
"45 349 CURVE SMOOTH",
"45 127 OFFCURVE",
"198 -15 OFFCURVE",
"415 -15 CURVE SMOOTH"
);
},
{
closed = 1;
nodes = (
"438 741 OFFCURVE",
"464 767 OFFCURVE",
"464 799 CURVE SMOOTH",
"464 831 OFFCURVE",
"438 857 OFFCURVE",
"407 857 CURVE SMOOTH",
"375 857 OFFCURVE",
"348 831 OFFCURVE",
"348 799 CURVE SMOOTH",
"348 767 OFFCURVE",
"375 741 OFFCURVE",
"407 741 CURVE SMOOTH"
);
}
);
width = 710;
}
);
leftKerningGroup = C;
note = Cdotaccent;
rightKerningGroup = C;
unicode = 010A;
},
{
glyphname = D;
lastChange = "2015-11-30 00:26:46 +0000";
layers = (
{
layerId = "BD32059E-0A74-4E00-835E-4479F7BE2418";
name = Regular;
paths = (
{
closed = 1;
nodes = (
"276 0 LINE SMOOTH",
"513 0 OFFCURVE",
"658 116 OFFCURVE",
"658 353 CURVE SMOOTH",
"658 566 OFFCURVE",
"518 699 OFFCURVE",
"290 699 CURVE SMOOTH",
"65 699 LINE",
"65 0 LINE"
);
},
{
closed = 1;
nodes = (
"167 613 LINE",
"291 613 LINE SMOOTH",
"463 613 OFFCURVE",
"555 510 OFFCURVE",
"555 353 CURVE SMOOTH",
"555 183 OFFCURVE",
"465 85 OFFCURVE",
"275 85 CURVE SMOOTH",
"167 85 LINE"
);
}
);
width = 703;
}
);
note = D;
rightKerningGroup = D;
unicode = 0044;
},
{
glyphname = Eth;
lastChange = "2015-11-30 00:26:45 +0000";
layers = (
{
layerId = "BD32059E-0A74-4E00-835E-4479F7BE2418";
name = Regular;
paths = (
{
closed = 1;
nodes = (
"300 0 LINE SMOOTH",
"537 0 OFFCURVE",
"682 116 OFFCURVE",
"682 353 CURVE SMOOTH",
"682 566 OFFCURVE",
"542 699 OFFCURVE",
"314 699 CURVE SMOOTH",
"89 699 LINE",
"89 388 LINE",
"25 388 LINE",
"25 310 LINE",
"89 310 LINE",
"89 0 LINE"
);
},
{
closed = 1;
nodes = (
"192 310 LINE",
"376 310 LINE",
"376 388 LINE",
"192 388 LINE",
"192 611 LINE",
"315 611 LINE SMOOTH",
"482 611 OFFCURVE",
"579 510 OFFCURVE",
"579 353 CURVE SMOOTH",
"579 183 OFFCURVE",
"484 88 OFFCURVE",
"299 88 CURVE SMOOTH",
"192 88 LINE"
);
}
);
width = 727;
}
);
note = Eth;
rightKerningGroup = D;
unicode = 00D0;
},
{
glyphname = Dcaron;
lastChange = "2015-11-30 00:26:47 +0000";
layers = (
{
layerId = "BD32059E-0A74-4E00-835E-4479F7BE2418";
name = Regular;
paths = (
{
closed = 1;
nodes = (
"276 0 LINE SMOOTH",
"513 0 OFFCURVE",
"658 116 OFFCURVE",
"658 353 CURVE SMOOTH",
"658 566 OFFCURVE",
"518 699 OFFCURVE",
"290 699 CURVE SMOOTH",
"65 699 LINE",
"65 0 LINE"
);
},
{
closed = 1;
nodes = (
"167 613 LINE",
"291 613 LINE SMOOTH",
"463 613 OFFCURVE",
"555 510 OFFCURVE",
"555 353 CURVE SMOOTH",
"555 183 OFFCURVE",
"465 85 OFFCURVE",
"275 85 CURVE SMOOTH",
"167 85 LINE"
);
},
{
closed = 1;
nodes = (
"363 742 LINE",
"505 908 LINE",
"403 908 LINE",
"319 801 LINE",
"235 908 LINE",
"132 908 LINE",
"274 742 LINE"
);
}
);
width = 703;
}
);
note = Dcaron;
rightKerningGroup = D;
unicode = 010E;
},
{
glyphname = Dcroat;
lastChange = "2015-11-30 00:26:46 +0000";
layers = (
{
layerId = "BD32059E-0A74-4E00-835E-4479F7BE2418";
name = Regular;
paths = (
{
closed = 1;
nodes = (
"300 0 LINE SMOOTH",
"537 0 OFFCURVE",
"682 116 OFFCURVE",
"682 353 CURVE SMOOTH",
"682 566 OFFCURVE",
"542 699 OFFCURVE",
"314 699 CURVE SMOOTH",
"89 699 LINE",
"89 388 LINE",
"25 388 LINE",
"25 310 LINE",
"89 310 LINE",
"89 0 LINE"
);
},
{
closed = 1;
nodes = (
"192 310 LINE",
"376 310 LINE",
"376 388 LINE",
"192 388 LINE",
"192 611 LINE",
"315 611 LINE SMOOTH",
"482 611 OFFCURVE",
"579 510 OFFCURVE",
"579 353 CURVE SMOOTH",
"579 183 OFFCURVE",
"484 88 OFFCURVE",
"299 88 CURVE SMOOTH",
"192 88 LINE"
);
}
);
width = 727;
}
);
note = Dcroat;
rightKerningGroup = D;
unicode = 0110;
},
{
glyphname = Ddotbelow;
lastChange = "2015-11-30 00:26:45 +0000";
layers = (
{
layerId = "BD32059E-0A74-4E00-835E-4479F7BE2418";
name = Regular;
paths = (
{
closed = 1;
nodes = (
"276 0 LINE SMOOTH",
"513 0 OFFCURVE",
"658 116 OFFCURVE",
"658 353 CURVE SMOOTH",
"658 566 OFFCURVE",
"518 699 OFFCURVE",
"290 699 CURVE SMOOTH",
"65 699 LINE",
"65 0 LINE"
);
},
{
closed = 1;
nodes = (
"307 -166 OFFCURVE",
"333 -140 OFFCURVE",
"333 -108 CURVE SMOOTH",
"333 -76 OFFCURVE",
"307 -50 OFFCURVE",
"276 -50 CURVE SMOOTH",
"244 -50 OFFCURVE",
"217 -76 OFFCURVE",
"217 -108 CURVE SMOOTH",
"217 -140 OFFCURVE",
"244 -166 OFFCURVE",
"276 -166 CURVE SMOOTH"
);
},
{
closed = 1;
nodes = (
"167 613 LINE",
"291 613 LINE SMOOTH",
"463 613 OFFCURVE",
"555 510 OFFCURVE",
"555 353 CURVE SMOOTH",
"555 183 OFFCURVE",
"465 85 OFFCURVE",
"275 85 CURVE SMOOTH",
"167 85 LINE"
);
}
);
width = 703;
}
);
note = Ddotbelow;
rightKerningGroup = D;
unicode = 1E0C;
},
{
glyphname = Dlinebelow;
lastChange = "2015-11-30 00:26:46 +0000";
layers = (
{
layerId = "BD32059E-0A74-4E00-835E-4479F7BE2418";
name = Regular;
paths = (
{
closed = 1;
nodes = (
"276 0 LINE SMOOTH",
"513 0 OFFCURVE",
"658 116 OFFCURVE",
"658 353 CURVE SMOOTH",
"658 566 OFFCURVE",
"518 699 OFFCURVE",
"290 699 CURVE SMOOTH",
"65 699 LINE",
"65 0 LINE"
);
},
{
closed = 1;
nodes = (
"440 -141 LINE",
"440 -71 LINE",
"126 -71 LINE",
"126 -141 LINE"
);
},
{
closed = 1;
nodes = (
"167 613 LINE",
"291 613 LINE SMOOTH",
"463 613 OFFCURVE",
"555 510 OFFCURVE",
"555 353 CURVE SMOOTH",
"555 183 OFFCURVE",
"465 85 OFFCURVE",
"275 85 CURVE SMOOTH",
"167 85 LINE"
);
}
);
width = 703;
}
);
note = Dlinebelow;
rightKerningGroup = D;
unicode = 1E0E;
},
{
glyphname = E;
lastChange = "2015-11-30 00:26:39 +0000";
layers = (
{
layerId = "BD32059E-0A74-4E00-835E-4479F7BE2418";
name = Regular;
paths = (
{
closed = 1;
nodes = (
"526 0 LINE",
"526 85 LINE",
"167 85 LINE",
"167 307 LINE",
"435 307 LINE",
"435 392 LINE",
"167 392 LINE",
"167 613 LINE",
"526 613 LINE",
"526 699 LINE",
"65 699 LINE",
"65 0 LINE"
);
}
);
width = 566;
}
);
leftKerningGroup = E;
note = E;
rightKerningGroup = E;
unicode = 0045;
},
{
glyphname = Eacute;
lastChange = "2015-11-30 00:26:46 +0000";
layers = (
{
layerId = "BD32059E-0A74-4E00-835E-4479F7BE2418";
name = Regular;
paths = (
{
closed = 1;
nodes = (
"526 0 LINE",
"526 85 LINE",
"167 85 LINE",
"167 307 LINE",
"435 307 LINE",
"435 392 LINE",
"167 392 LINE",
"167 613 LINE",
"526 613 LINE",
"526 699 LINE",
"65 699 LINE",
"65 0 LINE"
);
},
{
closed = 1;
nodes = (
"325 741 LINE",
"408 913 LINE",
"301 913 LINE",
"233 741 LINE"
);
}
);
width = 566;
}
);
leftKerningGroup = E;
note = Eacute;
rightKerningGroup = E;
unicode = 00C9;
},
{
glyphname = Ebreve;
lastChange = "2015-11-30 00:26:46 +0000";
layers = (
{
layerId = "BD32059E-0A74-4E00-835E-4479F7BE2418";
name = Regular;
paths = (
{
closed = 1;
nodes = (
"526 0 LINE",
"526 85 LINE",
"167 85 LINE",
"167 307 LINE",
"435 307 LINE",
"435 392 LINE",
"167 392 LINE",
"167 613 LINE",
"526 613 LINE",
"526 699 LINE",
"65 699 LINE",
"65 0 LINE"
);
},
{
closed = 1;
nodes = (
"396 742 OFFCURVE",
"453 800 OFFCURVE",
"453 882 CURVE",
"376 882 LINE",
"376 837 OFFCURVE",
"349 811 OFFCURVE",
"303 811 CURVE SMOOTH",
"257 811 OFFCURVE",
"230 837 OFFCURVE",
"230 882 CURVE",
"152 882 LINE",
"152 800 OFFCURVE",
"209 742 OFFCURVE",
"303 742 CURVE SMOOTH"
);
}
);
width = 571;
}
);
leftKerningGroup = E;
note = Ebreve;
rightKerningGroup = E;
unicode = 0114;
},
{
glyphname = Ecaron;
lastChange = "2015-11-30 00:26:47 +0000";
layers = (
{
layerId = "BD32059E-0A74-4E00-835E-4479F7BE2418";
name = Regular;
paths = (
{
closed = 1;
nodes = (
"526 0 LINE",
"526 85 LINE",
"167 85 LINE",
"167 307 LINE",
"435 307 LINE",
"435 392 LINE",
"167 392 LINE",
"167 613 LINE",
"526 613 LINE",
"526 699 LINE",
"65 699 LINE",
"65 0 LINE"
);
},
{
closed = 1;
nodes = (
"348 742 LINE",
"490 908 LINE",
"388 908 LINE",
"304 801 LINE",
"220 908 LINE",
"117 908 LINE",
"259 742 LINE"
);
}
);
width = 571;
}
);
leftKerningGroup = E;
note = Ecaron;
rightKerningGroup = E;
unicode = 011A;
},
{
glyphname = Ecircumflex;
lastChange = "2015-11-30 00:26:46 +0000";
layers = (
{
layerId = "BD32059E-0A74-4E00-835E-4479F7BE2418";
name = Regular;
paths = (
{
closed = 1;
nodes = (
"526 0 LINE",
"526 85 LINE",
"167 85 LINE",
"167 307 LINE",
"435 307 LINE",
"435 392 LINE",
"167 392 LINE",
"167 613 LINE",
"526 613 LINE",
"526 699 LINE",
"65 699 LINE",
"65 0 LINE"
);
},
{
closed = 1;
nodes = (
"197 747 LINE",
"281 854 LINE",
"365 747 LINE",
"467 747 LINE",
"325 913 LINE",
"236 913 LINE",
"94 747 LINE"
);
}
);
width = 571;
}
);
leftKerningGroup = E;
note = Ecircumflex;
rightKerningGroup = E;
unicode = 00CA;
},
{
glyphname = Ecircumflexacute;
lastChange = "2015-11-30 00:26:46 +0000";
layers = (
{
layerId = "BD32059E-0A74-4E00-835E-4479F7BE2418";
name = Regular;
paths = (
{
closed = 1;
nodes = (
"526 0 LINE",
"526 85 LINE",
"167 85 LINE",
"167 307 LINE",
"435 307 LINE",
"435 392 LINE",
"167 392 LINE",
"167 613 LINE",
"526 613 LINE",
"526 699 LINE",
"65 699 LINE",
"65 0 LINE"
);
},
{
closed = 1;
nodes = (
"193 741 LINE",
"275 831 LINE",
"357 741 LINE",
"456 741 LINE",
"318 886 LINE",
"232 886 LINE",
"94 741 LINE"
);
},
{
closed = 1;
nodes = (
"464 842 LINE",
"543 966 LINE",
"452 966 LINE",
"386 842 LINE"
);
}
);
width = 568;
}
);
leftKerningGroup = E;
note = Ecircumflexacute;
rightKerningGroup = E;
unicode = 1EBE;
},
{
glyphname = Ecircumflexdotbelow;
lastChange = "2015-11-30 00:26:45 +0000";
layers = (
{
layerId = "BD32059E-0A74-4E00-835E-4479F7BE2418";
name = Regular;
paths = (
{
closed = 1;
nodes = (
"526 0 LINE",
"526 85 LINE",
"167 85 LINE",
"167 307 LINE",
"435 307 LINE",
"435 392 LINE",
"167 392 LINE",
"167 613 LINE",
"526 613 LINE",
"526 699 LINE",
"65 699 LINE",
"65 0 LINE"
);
},
{
closed = 1;
nodes = (
"315 -166 OFFCURVE",
"341 -140 OFFCURVE",
"341 -108 CURVE SMOOTH",
"341 -76 OFFCURVE",
"315 -50 OFFCURVE",
"284 -50 CURVE SMOOTH",
"252 -50 OFFCURVE",
"225 -76 OFFCURVE",
"225 -108 CURVE SMOOTH",
"225 -140 OFFCURVE",
"252 -166 OFFCURVE",
"284 -166 CURVE SMOOTH"
);
},
{
closed = 1;
nodes = (
"200 752 LINE",
"284 859 LINE",
"368 752 LINE",
"470 752 LINE",
"328 918 LINE",
"239 918 LINE",
"97 752 LINE"
);
}
);
width = 571;
}
);
leftKerningGroup = E;
note = Ecircumflexdotbelow;
rightKerningGroup = E;
unicode = 1EC6;
},
{
glyphname = Ecircumflexgrave;
lastChange = "2015-11-30 00:26:45 +0000";
layers = (
{
layerId = "BD32059E-0A74-4E00-835E-4479F7BE2418";
name = Regular;
paths = (
{
closed = 1;
nodes = (
"541 0 LINE",
"541 85 LINE",
"182 85 LINE",
"182 307 LINE",
"450 307 LINE",
"450 392 LINE",
"182 392 LINE",
"182 613 LINE",
"541 613 LINE",
"541 699 LINE",
"80 699 LINE",
"80 0 LINE"
);
},
{
closed = 1;
nodes = (
"187 842 LINE",
"121 966 LINE",
"30 966 LINE",
"109 842 LINE"
);
},
{
closed = 1;
nodes = (
"216 741 LINE",
"298 831 LINE",
"380 741 LINE",
"479 741 LINE",
"341 886 LINE",
"255 886 LINE",
"117 741 LINE"
);
}
);
width = 581;
}
);
leftKerningGroup = E;
note = Ecircumflexgrave;
rightKerningGroup = E;
unicode = 1EC0;
},
{
glyphname = Ecircumflexhookabove;
lastChange = "2015-11-30 00:26:46 +0000";
layers = (
{
layerId = "BD32059E-0A74-4E00-835E-4479F7BE2418";
name = Regular;
paths = (
{
closed = 1;
nodes = (
"526 0 LINE",
"526 85 LINE",
"167 85 LINE",
"167 307 LINE",
"435 307 LINE",
"435 392 LINE",
"167 392 LINE",
"167 613 LINE",
"526 613 LINE",
"526 699 LINE",
"65 699 LINE",
"65 0 LINE"
);
},
{
closed = 1;
nodes = (
"223 741 LINE",
"305 831 LINE",
"387 741 LINE",
"486 741 LINE",
"348 886 LINE",
"262 886 LINE",
"124 741 LINE"
);
},
{
closed = 1;
nodes = (
"483 833 LINE",
"483 858 LINE",
"525 864 OFFCURVE",
"549 890 OFFCURVE",
"549 923 CURVE SMOOTH",
"549 964 OFFCURVE",
"516 991 OFFCURVE",
"458 991 CURVE SMOOTH",
"436 991 OFFCURVE",
"408 986 OFFCURVE",
"392 981 CURVE",
"392 938 LINE",
"402 943 OFFCURVE",
"420 946 OFFCURVE",
"435 946 CURVE SMOOTH",
"464 946 OFFCURVE",
"478 938 OFFCURVE",
"478 917 CURVE SMOOTH",
"478 893 OFFCURVE",
"459 883 OFFCURVE",
"419 883 CURVE",
"419 833 LINE"
);
}
);
width = 574;
}
);
leftKerningGroup = E;
note = Ecircumflexhookabove;
rightKerningGroup = E;
unicode = 1EC2;
},
{
glyphname = Ecircumflextilde;
lastChange = "2015-11-30 00:26:46 +0000";
layers = (
{
layerId = "BD32059E-0A74-4E00-835E-4479F7BE2418";
name = Regular;
paths = (
{
closed = 1;
nodes = (
"526 0 LINE",
"526 85 LINE",
"167 85 LINE",
"167 307 LINE",
"435 307 LINE",
"435 392 LINE",
"167 392 LINE",
"167 613 LINE",
"526 613 LINE",
"526 699 LINE",
"65 699 LINE",
"65 0 LINE"
);
},
{
closed = 1;
nodes = (
"225 741 LINE",
"307 831 LINE",
"389 741 LINE",
"488 741 LINE",
"350 886 LINE",
"264 886 LINE",
"126 741 LINE"
);
},
{
closed = 1;
nodes = (
"177 927 OFFCURVE",
"202 938 OFFCURVE",
"233 938 CURVE SMOOTH",
"284 938 OFFCURVE",
"330 895 OFFCURVE",
"389 895 CURVE SMOOTH",
"424 895 OFFCURVE",
"452 904 OFFCURVE",
"470 930 CURVE",
"470 1005 LINE",
"447 972 OFFCURVE",
"420 961 OFFCURVE",
"389 961 CURVE SMOOTH",
"337 961 OFFCURVE",
"288 1005 OFFCURVE",
"233 1005 CURVE SMOOTH",
"198 1005 OFFCURVE",
"170 995 OFFCURVE",
"152 969 CURVE",
"152 894 LINE"
);
}
);
width = 571;
}
);
leftKerningGroup = E;
note = Ecircumflextilde;
rightKerningGroup = E;
unicode = 1EC4;
},
{
glyphname = Edieresis;
lastChange = "2015-11-30 00:26:45 +0000";
layers = (
{
layerId = "BD32059E-0A74-4E00-835E-4479F7BE2418";
name = Regular;
paths = (
{
closed = 1;
nodes = (
"526 0 LINE",
"526 85 LINE",
"167 85 LINE",
"167 307 LINE",
"435 307 LINE",
"435 392 LINE",
"167 392 LINE",
"167 613 LINE",
"526 613 LINE",
"526 699 LINE",
"65 699 LINE",
"65 0 LINE"
);
},
{
closed = 1;
nodes = (
"203 751 OFFCURVE",
"229 777 OFFCURVE",
"229 809 CURVE SMOOTH",
"229 841 OFFCURVE",
"203 867 OFFCURVE",
"172 867 CURVE SMOOTH",
"140 867 OFFCURVE",
"113 841 OFFCURVE",
"113 809 CURVE SMOOTH",
"113 777 OFFCURVE",
"140 751 OFFCURVE",
"172 751 CURVE SMOOTH"
);
},
{
closed = 1;
nodes = (
"430 751 OFFCURVE",
"456 777 OFFCURVE",
"456 809 CURVE SMOOTH",
"456 841 OFFCURVE",
"430 867 OFFCURVE",
"399 867 CURVE SMOOTH",
"367 867 OFFCURVE",
"340 841 OFFCURVE",
"340 809 CURVE SMOOTH",
"340 777 OFFCURVE",
"367 751 OFFCURVE",
"399 751 CURVE SMOOTH"
);
}
);
width = 571;
}
);
leftKerningGroup = E;
note = Edieresis;
rightKerningGroup = E;
unicode = 00CB;
},
{
glyphname = Edotaccent;
lastChange = "2015-11-30 00:26:45 +0000";
layers = (
{
layerId = "BD32059E-0A74-4E00-835E-4479F7BE2418";
name = Regular;
paths = (
{
closed = 1;
nodes = (
"526 0 LINE",
"526 85 LINE",
"167 85 LINE",
"167 307 LINE",
"435 307 LINE",
"435 392 LINE",
"167 392 LINE",
"167 613 LINE",
"526 613 LINE",
"526 699 LINE",
"65 699 LINE",
"65 0 LINE"
);
},
{
closed = 1;
nodes = (
"330 740 OFFCURVE",
"356 766 OFFCURVE",
"356 798 CURVE SMOOTH",
"356 830 OFFCURVE",
"330 856 OFFCURVE",
"299 856 CURVE SMOOTH",
"267 856 OFFCURVE",
"240 830 OFFCURVE",
"240 798 CURVE SMOOTH",
"240 766 OFFCURVE",
"267 740 OFFCURVE",
"299 740 CURVE SMOOTH"
);
}
);
width = 571;
}
);
leftKerningGroup = E;
note = Edotaccent;
rightKerningGroup = E;
unicode = 0116;
},
{
glyphname = Edotbelow;
lastChange = "2015-11-30 00:26:48 +0000";
layers = (
{
layerId = "BD32059E-0A74-4E00-835E-4479F7BE2418";
name = Regular;
paths = (
{
closed = 1;
nodes = (
"526 0 LINE",
"526 85 LINE",
"167 85 LINE",
"167 307 LINE",
"435 307 LINE",
"435 392 LINE",
"167 392 LINE",
"167 613 LINE",
"526 613 LINE",
"526 699 LINE",
"65 699 LINE",
"65 0 LINE"
);
},
{
closed = 1;
nodes = (
"317 -166 OFFCURVE",
"343 -140 OFFCURVE",
"343 -108 CURVE SMOOTH",
"343 -76 OFFCURVE",
"317 -50 OFFCURVE",
"286 -50 CURVE SMOOTH",
"254 -50 OFFCURVE",
"227 -76 OFFCURVE",
"227 -108 CURVE SMOOTH",
"227 -140 OFFCURVE",
"254 -166 OFFCURVE",
"286 -166 CURVE SMOOTH"
);
}
);
width = 571;
}
);
leftKerningGroup = E;
note = Edotbelow;
rightKerningGroup = E;
unicode = 1EB8;
},
{
glyphname = Egrave;
lastChange = "2015-11-30 00:26:47 +0000";
layers = (
{
layerId = "BD32059E-0A74-4E00-835E-4479F7BE2418";
name = Regular;
paths = (
{
closed = 1;
nodes = (
"526 0 LINE",
"526 85 LINE",
"167 85 LINE",
"167 307 LINE",
"435 307 LINE",
"435 392 LINE",
"167 392 LINE",
"167 613 LINE",
"526 613 LINE",
"526 699 LINE",
"65 699 LINE",
"65 0 LINE"
);
},
{
closed = 1;
nodes = (
"340 754 LINE",
"271 926 LINE",
"164 926 LINE",
"247 754 LINE"
);
}
);
width = 571;
}
);
leftKerningGroup = E;
note = Egrave;
rightKerningGroup = E;
unicode = 00C8;
},
{
glyphname = Ehookabove;
lastChange = "2015-11-30 00:26:45 +0000";
layers = (
{
layerId = "BD32059E-0A74-4E00-835E-4479F7BE2418";
name = Regular;
paths = (
{
closed = 1;
nodes = (
"526 0 LINE",
"526 85 LINE",
"167 85 LINE",
"167 307 LINE",
"435 307 LINE",
"435 392 LINE",
"167 392 LINE",
"167 613 LINE",
"526 613 LINE",
"526 699 LINE",
"65 699 LINE",
"65 0 LINE"
);
},
{
closed = 1;
nodes = (
"326 742 LINE",
"326 776 LINE",
"386 784 OFFCURVE",
"418 822 OFFCURVE",
"418 870 CURVE SMOOTH",
"418 927 OFFCURVE",
"375 967 OFFCURVE",
"287 967 CURVE SMOOTH",
"255 967 OFFCURVE",
"220 961 OFFCURVE",
"200 954 CURVE",
"200 899 LINE",
"213 905 OFFCURVE",
"247 910 OFFCURVE",
"263 910 CURVE SMOOTH",
"309 910 OFFCURVE",
"329 897 OFFCURVE",
"329 866 CURVE SMOOTH",
"329 827 OFFCURVE",
"297 813 OFFCURVE",
"237 813 CURVE",
"237 742 LINE"
);
}
);
width = 571;
}
);
leftKerningGroup = E;
note = Ehookabove;
rightKerningGroup = E;
unicode = 1EBA;
},
{
glyphname = Emacron;
lastChange = "2015-11-30 00:26:45 +0000";
layers = (
{
layerId = "BD32059E-0A74-4E00-835E-4479F7BE2418";
name = Regular;
paths = (
{
closed = 1;
nodes = (
"526 0 LINE",
"526 85 LINE",
"167 85 LINE",
"167 307 LINE",
"435 307 LINE",
"435 392 LINE",
"167 392 LINE",
"167 613 LINE",
"526 613 LINE",
"526 699 LINE",
"65 699 LINE",
"65 0 LINE"
);
},
{
closed = 1;
nodes = (
"455 762 LINE",
"455 831 LINE",
"143 831 LINE",
"143 762 LINE"
);
}
);
width = 571;
}
);
leftKerningGroup = E;
note = Emacron;
rightKerningGroup = E;
unicode = 0112;
},
{
glyphname = Eogonek;
lastChange = "2015-11-30 00:26:46 +0000";
layers = (
{
layerId = "BD32059E-0A74-4E00-835E-4479F7BE2418";
name = Regular;
paths = (
{
closed = 1;
nodes = (
"526 0 LINE",
"526 85 LINE",
"167 85 LINE",
"167 307 LINE",
"435 307 LINE",
"435 392 LINE",
"167 392 LINE",
"167 613 LINE",
"526 613 LINE",
"526 699 LINE",
"65 699 LINE",
"65 0 LINE"
);
},
{
closed = 1;
nodes = (
"473 -212 OFFCURVE",
"501 -207 OFFCURVE",
"520 -200 CURVE",
"520 -139 LINE",
"506 -145 OFFCURVE",
"490 -149 OFFCURVE",
"472 -149 CURVE SMOOTH",
"444 -149 OFFCURVE",
"428 -135 OFFCURVE",
"428 -106 CURVE SMOOTH",
"428 -65 OFFCURVE",
"456 -33 OFFCURVE",
"507 0 CURVE",
"413 0 LINE",
"371 -27 OFFCURVE",
"339 -70 OFFCURVE",
"339 -122 CURVE SMOOTH",
"339 -183 OFFCURVE",
"385 -212 OFFCURVE",
"443 -212 CURVE SMOOTH"
);
}
);
width = 571;
}
);
leftKerningGroup = E;
note = Eogonek;
rightKerningGroup = E;
unicode = 0118;
},
{
glyphname = Etilde;
lastChange = "2015-11-30 00:26:47 +0000";
layers = (
{
layerId = "BD32059E-0A74-4E00-835E-4479F7BE2418";
name = Regular;
paths = (
{
closed = 1;
nodes = (
"526 0 LINE",
"526 85 LINE",
"167 85 LINE",
"167 307 LINE",
"435 307 LINE",
"435 392 LINE",
"167 392 LINE",
"167 613 LINE",
"526 613 LINE",
"526 699 LINE",
"65 699 LINE",
"65 0 LINE"
);
},
{
closed = 1;
nodes = (
"128 796 OFFCURVE",
"160 808 OFFCURVE",
"196 808 CURVE SMOOTH",
"260 808 OFFCURVE",
"308 758 OFFCURVE",
"381 758 CURVE SMOOTH",
"422 758 OFFCURVE",
"456 769 OFFCURVE",
"478 800 CURVE",
"478 886 LINE",
"451 847 OFFCURVE",
"418 835 OFFCURVE",
"381 835 CURVE SMOOTH",
"316 835 OFFCURVE",
"264 885 OFFCURVE",
"196 885 CURVE SMOOTH",
"156 885 OFFCURVE",
"120 873 OFFCURVE",
"98 842 CURVE",
"98 756 LINE"
);
}
);
width = 571;
}
);
leftKerningGroup = E;
note = Etilde;
rightKerningGroup = E;
unicode = 1EBC;
},
{
glyphname = F;
lastChange = "2015-11-30 00:26:40 +0000";
layers = (
{
layerId = "BD32059E-0A74-4E00-835E-4479F7BE2418";
name = Regular;
paths = (
{
closed = 1;
nodes = (
"167 0 LINE",
"167 309 LINE",
"435 309 LINE",
"435 390 LINE",
"167 390 LINE",
"167 613 LINE",
"526 613 LINE",
"526 699 LINE",
"65 699 LINE",
"65 0 LINE"
);
}
);
width = 551;
}
);
note = F;
unicode = 0046;
},
{
glyphname = G;
lastChange = "2015-11-30 00:26:40 +0000";
layers = (
{
layerId = "BD32059E-0A74-4E00-835E-4479F7BE2418";
name = Regular;
paths = (
{
closed = 1;
nodes = (
"520 -15 OFFCURVE",
"606 6 OFFCURVE",
"671 60 CURVE",
"671 380 LINE",
"436 380 LINE",
"436 297 LINE",
"569 297 LINE",
"569 114 LINE",
"528 88 OFFCURVE",
"480 77 OFFCURVE",
"420 77 CURVE SMOOTH",
"263 77 OFFCURVE",
"148 181 OFFCURVE",
"148 349 CURVE SMOOTH",
"148 516 OFFCURVE",
"266 620 OFFCURVE",
"424 620 CURVE SMOOTH",
"515 620 OFFCURVE",
"594 598 OFFCURVE",
"656 544 CURVE",
"656 642 LINE",
"591 691 OFFCURVE",
"513 714 OFFCURVE",
"415 714 CURVE SMOOTH",
"198 714 OFFCURVE",
"45 571 OFFCURVE",
"45 349 CURVE SMOOTH",
"45 127 OFFCURVE",
"198 -15 OFFCURVE",
"415 -15 CURVE SMOOTH"
);
}
);
width = 716;
}
);
leftKerningGroup = C;
note = G;
unicode = 0047;
},
{
glyphname = Gbreve;
lastChange = "2015-11-30 00:26:45 +0000";
layers = (
{
layerId = "BD32059E-0A74-4E00-835E-4479F7BE2418";
name = Regular;
paths = (
{
closed = 1;
nodes = (
"520 -15 OFFCURVE",
"606 6 OFFCURVE",
"671 60 CURVE",
"671 380 LINE",
"436 380 LINE",
"436 297 LINE",
"569 297 LINE",
"569 114 LINE",
"528 88 OFFCURVE",
"480 77 OFFCURVE",
"420 77 CURVE SMOOTH",
"263 77 OFFCURVE",
"148 181 OFFCURVE",
"148 349 CURVE SMOOTH",
"148 516 OFFCURVE",
"266 620 OFFCURVE",
"424 620 CURVE SMOOTH",
"515 620 OFFCURVE",
"594 598 OFFCURVE",
"656 544 CURVE",
"656 642 LINE",
"591 691 OFFCURVE",
"513 714 OFFCURVE",
"415 714 CURVE SMOOTH",
"198 714 OFFCURVE",
"45 571 OFFCURVE",
"45 349 CURVE SMOOTH",
"45 127 OFFCURVE",
"198 -15 OFFCURVE",
"415 -15 CURVE SMOOTH"
);
},
{
closed = 1;
nodes = (
"512 742 OFFCURVE",
"569 800 OFFCURVE",
"569 882 CURVE",
"492 882 LINE",
"492 837 OFFCURVE",
"465 811 OFFCURVE",
"419 811 CURVE SMOOTH",
"373 811 OFFCURVE",
"346 837 OFFCURVE",
"346 882 CURVE",
"268 882 LINE",
"268 800 OFFCURVE",
"325 742 OFFCURVE",
"419 742 CURVE SMOOTH"
);
}
);
width = 716;
}
);
leftKerningGroup = C;
note = Gbreve;
unicode = 011E;
},
{
glyphname = Gcaron;
lastChange = "2015-11-30 00:26:46 +0000";
layers = (
{
layerId = "BD32059E-0A74-4E00-835E-4479F7BE2418";
name = Regular;
paths = (
{
closed = 1;
nodes = (
"520 -15 OFFCURVE",
"606 6 OFFCURVE",
"671 60 CURVE",
"671 380 LINE",
"436 380 LINE",
"436 297 LINE",
"569 297 LINE",
"569 114 LINE",
"528 88 OFFCURVE",
"480 77 OFFCURVE",
"420 77 CURVE SMOOTH",
"263 77 OFFCURVE",
"148 181 OFFCURVE",
"148 349 CURVE SMOOTH",
"148 516 OFFCURVE",
"266 620 OFFCURVE",
"424 620 CURVE SMOOTH",
"515 620 OFFCURVE",
"594 598 OFFCURVE",
"656 544 CURVE",
"656 642 LINE",
"591 691 OFFCURVE",
"513 714 OFFCURVE",
"415 714 CURVE SMOOTH",
"198 714 OFFCURVE",
"45 571 OFFCURVE",
"45 349 CURVE SMOOTH",
"45 127 OFFCURVE",
"198 -15 OFFCURVE",
"415 -15 CURVE SMOOTH"
);
},
{
closed = 1;
nodes = (
"421 753 LINE",
"563 919 LINE",
"461 919 LINE",
"377 812 LINE",
"293 919 LINE",
"190 919 LINE",
"332 753 LINE"
);
}
);
width = 716;
}
);
leftKerningGroup = C;
note = Gcaron;
unicode = 01E6;
},
{
glyphname = Gcircumflex;
lastChange = "2015-11-30 00:26:45 +0000";
layers = (
{
layerId = "BD32059E-0A74-4E00-835E-4479F7BE2418";
name = Regular;
paths = (
{
closed = 1;
nodes = (
"520 -15 OFFCURVE",
"606 6 OFFCURVE",
"671 60 CURVE",
"671 380 LINE",
"436 380 LINE",
"436 297 LINE",
"569 297 LINE",
"569 114 LINE",
"528 88 OFFCURVE",
"480 77 OFFCURVE",
"420 77 CURVE SMOOTH",
"263 77 OFFCURVE",
"148 181 OFFCURVE",
"148 349 CURVE SMOOTH",
"148 516 OFFCURVE",
"266 620 OFFCURVE",
"424 620 CURVE SMOOTH",
"515 620 OFFCURVE",
"594 598 OFFCURVE",
"656 544 CURVE",
"656 642 LINE",
"591 691 OFFCURVE",
"513 714 OFFCURVE",
"415 714 CURVE SMOOTH",
"198 714 OFFCURVE",
"45 571 OFFCURVE",
"45 349 CURVE SMOOTH",
"45 127 OFFCURVE",
"198 -15 OFFCURVE",
"415 -15 CURVE SMOOTH"
);
},
{
closed = 1;
nodes = (
"327 741 LINE",
"411 848 LINE",
"495 741 LINE",
"597 741 LINE",
"455 907 LINE",
"366 907 LINE",
"224 741 LINE"
);
}
);
width = 716;
}
);
leftKerningGroup = C;
note = Gcircumflex;
unicode = 011C;
},
{
glyphname = Gcommaaccent;
lastChange = "2015-11-30 00:26:46 +0000";
layers = (
{
layerId = "BD32059E-0A74-4E00-835E-4479F7BE2418";
name = Regular;
paths = (
{
closed = 1;
nodes = (
"520 -15 OFFCURVE",
"606 6 OFFCURVE",
"671 60 CURVE",
"671 380 LINE",
"436 380 LINE",
"436 297 LINE",
"569 297 LINE",
"569 114 LINE",
"528 88 OFFCURVE",
"480 77 OFFCURVE",
"420 77 CURVE SMOOTH",
"263 77 OFFCURVE",
"148 181 OFFCURVE",
"148 349 CURVE SMOOTH",
"148 516 OFFCURVE",
"266 620 OFFCURVE",
"424 620 CURVE SMOOTH",
"515 620 OFFCURVE",
"594 598 OFFCURVE",
"656 544 CURVE",
"656 642 LINE",
"591 691 OFFCURVE",
"513 714 OFFCURVE",
"415 714 CURVE SMOOTH",
"198 714 OFFCURVE",
"45 571 OFFCURVE",
"45 349 CURVE SMOOTH",
"45 127 OFFCURVE",
"198 -15 OFFCURVE",
"415 -15 CURVE SMOOTH"
);
},
{
closed = 1;
nodes = (
"382 -260 LINE",
"477 -60 LINE",
"371 -60 LINE",
"290 -260 LINE"
);
}
);
width = 716;
}
);
leftKerningGroup = C;
note = Gcommaaccent;
unicode = 0122;
},
{
glyphname = Gdotaccent;
lastChange = "2015-11-30 00:26:46 +0000";
layers = (
{
layerId = "BD32059E-0A74-4E00-835E-4479F7BE2418";
name = Regular;
paths = (
{
closed = 1;
nodes = (
"520 -15 OFFCURVE",
"606 6 OFFCURVE",
"671 60 CURVE",
"671 380 LINE",
"436 380 LINE",
"436 297 LINE",
"569 297 LINE",
"569 114 LINE",
"528 88 OFFCURVE",
"480 77 OFFCURVE",
"420 77 CURVE SMOOTH",
"263 77 OFFCURVE",
"148 181 OFFCURVE",
"148 349 CURVE SMOOTH",
"148 516 OFFCURVE",
"266 620 OFFCURVE",
"424 620 CURVE SMOOTH",
"515 620 OFFCURVE",
"594 598 OFFCURVE",
"656 544 CURVE",
"656 642 LINE",
"591 691 OFFCURVE",
"513 714 OFFCURVE",
"415 714 CURVE SMOOTH",
"198 714 OFFCURVE",
"45 571 OFFCURVE",
"45 349 CURVE SMOOTH",
"45 127 OFFCURVE",
"198 -15 OFFCURVE",
"415 -15 CURVE SMOOTH"
);
},
{
closed = 1;
nodes = (
"446 741 OFFCURVE",
"472 767 OFFCURVE",
"472 799 CURVE SMOOTH",
"472 831 OFFCURVE",
"446 857 OFFCURVE",
"415 857 CURVE SMOOTH",
"383 857 OFFCURVE",
"356 831 OFFCURVE",
"356 799 CURVE SMOOTH",
"356 767 OFFCURVE",
"383 741 OFFCURVE",
"415 741 CURVE SMOOTH"
);
}
);
width = 716;
}
);
leftKerningGroup = C;
note = Gdotaccent;
unicode = 0120;
},
{
glyphname = Gmacron;
lastChange = "2015-11-30 00:26:46 +0000";
layers = (
{
layerId = "BD32059E-0A74-4E00-835E-4479F7BE2418";
name = Regular;
paths = (
{
closed = 1;
nodes = (
"520 -15 OFFCURVE",
"606 6 OFFCURVE",
"671 60 CURVE",
"671 380 LINE",
"436 380 LINE",
"436 297 LINE",
"569 297 LINE",
"569 114 LINE",
"528 88 OFFCURVE",
"480 77 OFFCURVE",
"420 77 CURVE SMOOTH",
"263 77 OFFCURVE",
"148 181 OFFCURVE",
"148 349 CURVE SMOOTH",
"148 516 OFFCURVE",
"266 620 OFFCURVE",
"424 620 CURVE SMOOTH",
"515 620 OFFCURVE",
"594 598 OFFCURVE",
"656 544 CURVE",
"656 642 LINE",
"591 691 OFFCURVE",
"513 714 OFFCURVE",
"415 714 CURVE SMOOTH",
"198 714 OFFCURVE",
"45 571 OFFCURVE",
"45 349 CURVE SMOOTH",
"45 127 OFFCURVE",
"198 -15 OFFCURVE",
"415 -15 CURVE SMOOTH"
);
},
{
closed = 1;
nodes = (
"572 762 LINE",
"572 831 LINE",
"260 831 LINE",
"260 762 LINE"
);
}
);
width = 716;
}
);
leftKerningGroup = C;
note = Gmacron;
unicode = 1E20;
},
{
glyphname = H;
lastChange = "2015-11-30 00:26:40 +0000";
layers = (
{
layerId = "BD32059E-0A74-4E00-835E-4479F7BE2418";
name = Regular;
paths = (
{
closed = 1;
nodes = (
"167 0 LINE",
"167 313 LINE",
"532 313 LINE",
"532 0 LINE",
"634 0 LINE",
"634 699 LINE",
"532 699 LINE",
"532 399 LINE",
"167 399 LINE",
"167 699 LINE",
"65 699 LINE",
"65 0 LINE"
);
}
);
width = 699;
}
);
note = H;
unicode = 0048;
},
{
glyphname = Hbar;
lastChange = "2015-11-30 00:26:46 +0000";
layers = (
{
layerId = "BD32059E-0A74-4E00-835E-4479F7BE2418";
name = Regular;
paths = (
{
closed = 1;
nodes = (
"173 0 LINE",
"173 312 LINE",
"538 312 LINE",
"538 0 LINE",
"640 0 LINE",
"640 505 LINE",
"695 505 LINE",
"695 588 LINE",
"640 588 LINE",
"640 699 LINE",
"538 699 LINE",
"538 588 LINE",
"173 588 LINE",
"173 699 LINE",
"71 699 LINE",
"71 588 LINE",
"25 588 LINE",
"25 505 LINE",
"71 505 LINE",
"71 0 LINE"
);
},
{
closed = 1;
nodes = (
"173 505 LINE",
"538 505 LINE",
"538 400 LINE",
"173 400 LINE"
);
}
);
width = 720;
}
);
note = Hbar;
unicode = 0126;
},
{
glyphname = Hbrevebelow;
lastChange = "2015-11-30 00:26:46 +0000";
layers = (
{
layerId = "BD32059E-0A74-4E00-835E-4479F7BE2418";
name = Regular;
paths = (
{
closed = 1;
nodes = (
"167 0 LINE",
"167 313 LINE",
"532 313 LINE",
"532 0 LINE",
"634 0 LINE",
"634 699 LINE",
"532 699 LINE",
"532 399 LINE",
"167 399 LINE",
"167 699 LINE",
"65 699 LINE",
"65 0 LINE"
);
},
{
closed = 1;
nodes = (
"443 -202 OFFCURVE",
"500 -144 OFFCURVE",
"500 -61 CURVE",
"423 -61 LINE",
"423 -106 OFFCURVE",
"396 -133 OFFCURVE",
"350 -133 CURVE SMOOTH",
"304 -133 OFFCURVE",
"277 -106 OFFCURVE",
"277 -61 CURVE",
"199 -61 LINE",
"199 -144 OFFCURVE",
"256 -202 OFFCURVE",
"350 -202 CURVE SMOOTH"
);
}
);
width = 699;
}
);
note = Hbrevebelow;
unicode = 1E2A;
},
{
glyphname = Hcircumflex;
lastChange = "2015-11-30 00:26:46 +0000";
layers = (
{
layerId = "BD32059E-0A74-4E00-835E-4479F7BE2418";
name = Regular;
paths = (
{
closed = 1;
nodes = (
"167 0 LINE",
"167 313 LINE",
"532 313 LINE",
"532 0 LINE",
"634 0 LINE",
"634 699 LINE",
"532 699 LINE",
"532 399 LINE",
"167 399 LINE",
"167 699 LINE",
"65 699 LINE",
"65 0 LINE"
);
},
{
closed = 1;
nodes = (
"266 741 LINE",
"350 848 LINE",
"434 741 LINE",
"536 741 LINE",
"394 907 LINE",
"305 907 LINE",
"163 741 LINE"
);
}
);
width = 699;
}
);
note = Hcircumflex;
unicode = 0124;
},
{
glyphname = Hdotbelow;
lastChange = "2015-11-30 00:26:46 +0000";
layers = (
{
layerId = "BD32059E-0A74-4E00-835E-4479F7BE2418";
name = Regular;
paths = (
{
closed = 1;
nodes = (
"167 0 LINE",
"167 313 LINE",
"532 313 LINE",
"532 0 LINE",
"634 0 LINE",
"634 699 LINE",
"532 699 LINE",
"532 399 LINE",
"167 399 LINE",
"167 699 LINE",
"65 699 LINE",
"65 0 LINE"
);
},
{
closed = 1;
nodes = (
"381 -166 OFFCURVE",
"407 -140 OFFCURVE",
"407 -108 CURVE SMOOTH",
"407 -76 OFFCURVE",
"381 -50 OFFCURVE",
"350 -50 CURVE SMOOTH",
"318 -50 OFFCURVE",
"291 -76 OFFCURVE",
"291 -108 CURVE SMOOTH",
"291 -140 OFFCURVE",
"318 -166 OFFCURVE",
"350 -166 CURVE SMOOTH"
);
}
);
width = 699;
}
);
note = Hdotbelow;
unicode = 1E24;
},
{
glyphname = I;
lastChange = "2015-11-30 00:26:40 +0000";
layers = (
{
layerId = "BD32059E-0A74-4E00-835E-4479F7BE2418";
name = Regular;
paths = (
{
closed = 1;
nodes = (
"168 0 LINE",
"168 699 LINE",
"65 699 LINE",
"65 0 LINE"
);
}
);
width = 233;
}
);
note = I;
unicode = 0049;
},
{
glyphname = IJ;
lastChange = "2015-11-30 00:26:47 +0000";
layers = (
{
layerId = "BD32059E-0A74-4E00-835E-4479F7BE2418";
name = Regular;
paths = (
{
closed = 1;
nodes = (
"480 -15 OFFCURVE",
"551 52 OFFCURVE",
"551 168 CURVE SMOOTH",
"551 699 LINE",
"449 699 LINE",
"449 175 LINE SMOOTH",
"449 106 OFFCURVE",
"412 75 OFFCURVE",
"346 75 CURVE SMOOTH",
"320 75 OFFCURVE",
"284 80 OFFCURVE",
"263 89 CURVE",
"263 2 LINE",
"285 -8 OFFCURVE",
"332 -15 OFFCURVE",
"369 -15 CURVE SMOOTH"
);
},
{
closed = 1;
nodes = (
"169 0 LINE",
"169 699 LINE",
"66 699 LINE",
"66 0 LINE"
);
}
);
width = 613;
}
);
note = IJ;
rightKerningGroup = J;
unicode = 0132;
},
{
glyphname = Iacute;
lastChange = "2015-11-30 00:26:46 +0000";
layers = (
{
layerId = "BD32059E-0A74-4E00-835E-4479F7BE2418";
name = Regular;
paths = (
{
closed = 1;
nodes = (
"169 0 LINE",
"169 699 LINE",
"66 699 LINE",
"66 0 LINE"
);
},
{
closed = 1;
nodes = (
"164 741 LINE",
"247 913 LINE",
"140 913 LINE",
"72 741 LINE"
);
}
);
width = 236;
}
);
note = Iacute;
unicode = 00CD;
},
{
glyphname = Ibreve;
lastChange = "2015-11-30 00:26:47 +0000";
layers = (
{
layerId = "BD32059E-0A74-4E00-835E-4479F7BE2418";
name = Regular;
paths = (
{
closed = 1;
nodes = (
"169 0 LINE",
"169 699 LINE",
"66 699 LINE",
"66 0 LINE"
);
},
{
closed = 1;
nodes = (
"211 742 OFFCURVE",
"268 800 OFFCURVE",
"268 882 CURVE",
"191 882 LINE",
"191 837 OFFCURVE",
"164 811 OFFCURVE",
"118 811 CURVE SMOOTH",
"72 811 OFFCURVE",
"45 837 OFFCURVE",
"45 882 CURVE",
"-33 882 LINE",
"-33 800 OFFCURVE",
"24 742 OFFCURVE",
"118 742 CURVE SMOOTH"
);
}
);
width = 236;
}
);
note = Ibreve;
unicode = 012C;
},
{
glyphname = Icaron;
lastChange = "2015-11-30 00:26:45 +0000";
layers = (
{
layerId = "BD32059E-0A74-4E00-835E-4479F7BE2418";
name = Regular;
paths = (
{
closed = 1;
nodes = (
"187 0 LINE",
"187 699 LINE",
"84 699 LINE",
"84 0 LINE"
);
},
{
closed = 1;
nodes = (
"168 753 LINE",
"310 919 LINE",
"208 919 LINE",
"124 812 LINE",
"40 919 LINE",
"-63 919 LINE",
"79 753 LINE"
);
}
);
width = 247;
}
);
note = Icaron;
unicode = 01CF;
},
{
glyphname = Icircumflex;
lastChange = "2015-11-30 00:26:45 +0000";
layers = (
{
layerId = "BD32059E-0A74-4E00-835E-4479F7BE2418";
name = Regular;
paths = (
{
closed = 1;
nodes = (
"169 0 LINE",
"169 699 LINE",
"66 699 LINE",
"66 0 LINE"
);
},
{
closed = 1;
nodes = (
"34 741 LINE",
"118 848 LINE",
"202 741 LINE",
"304 741 LINE",
"162 907 LINE",
"73 907 LINE",
"-69 741 LINE"
);
}
);
width = 236;
}
);
note = Icircumflex;
unicode = 00CE;
},
{
glyphname = Idieresis;
lastChange = "2015-11-30 00:26:48 +0000";
layers = (
{
layerId = "BD32059E-0A74-4E00-835E-4479F7BE2418";
name = Regular;
paths = (
{
closed = 1;
nodes = (
"169 0 LINE",
"169 699 LINE",
"66 699 LINE",
"66 0 LINE"
);
},
{
closed = 1;
nodes = (
"35 741 OFFCURVE",
"61 767 OFFCURVE",
"61 799 CURVE SMOOTH",
"61 831 OFFCURVE",
"35 857 OFFCURVE",
"4 857 CURVE SMOOTH",
"-28 857 OFFCURVE",
"-55 831 OFFCURVE",
"-55 799 CURVE SMOOTH",
"-55 767 OFFCURVE",
"-28 741 OFFCURVE",
"4 741 CURVE SMOOTH"
);
},
{
closed = 1;
nodes = (
"262 741 OFFCURVE",
"288 767 OFFCURVE",
"288 799 CURVE SMOOTH",
"288 831 OFFCURVE",
"262 857 OFFCURVE",
"231 857 CURVE SMOOTH",
"199 857 OFFCURVE",
"172 831 OFFCURVE",
"172 799 CURVE SMOOTH",
"172 767 OFFCURVE",
"199 741 OFFCURVE",
"231 741 CURVE SMOOTH"
);
}
);
width = 236;
}
);
note = Idieresis;
unicode = 00CF;
},
{
glyphname = Idotaccent;
lastChange = "2015-11-30 00:26:46 +0000";
layers = (
{
layerId = "BD32059E-0A74-4E00-835E-4479F7BE2418";
name = Regular;
paths = (
{
closed = 1;
nodes = (
"169 0 LINE",
"169 699 LINE",
"66 699 LINE",
"66 0 LINE"
);
},
{
closed = 1;
nodes = (
"150 741 OFFCURVE",
"176 767 OFFCURVE",
"176 799 CURVE SMOOTH",
"176 831 OFFCURVE",
"150 857 OFFCURVE",
"119 857 CURVE SMOOTH",
"87 857 OFFCURVE",
"60 831 OFFCURVE",
"60 799 CURVE SMOOTH",
"60 767 OFFCURVE",
"87 741 OFFCURVE",
"119 741 CURVE SMOOTH"
);
}
);
width = 236;
}
);
note = Idotaccent;
unicode = 0130;
},
{
glyphname = Idotbelow;
lastChange = "2015-11-30 00:26:45 +0000";
layers = (
{
layerId = "BD32059E-0A74-4E00-835E-4479F7BE2418";
name = Regular;
paths = (
{
closed = 1;
nodes = (
"169 0 LINE",
"169 699 LINE",
"66 699 LINE",
"66 0 LINE"
);
},
{
closed = 1;
nodes = (
"150 -166 OFFCURVE",
"176 -140 OFFCURVE",
"176 -108 CURVE SMOOTH",
"176 -76 OFFCURVE",
"150 -50 OFFCURVE",
"119 -50 CURVE SMOOTH",
"87 -50 OFFCURVE",
"60 -76 OFFCURVE",
"60 -108 CURVE SMOOTH",
"60 -140 OFFCURVE",
"87 -166 OFFCURVE",
"119 -166 CURVE SMOOTH"
);
}
);
width = 236;
}
);
note = Idotbelow;
unicode = 1ECA;
},
{
glyphname = Igrave;
lastChange = "2015-11-30 00:26:45 +0000";
layers = (
{
layerId = "BD32059E-0A74-4E00-835E-4479F7BE2418";
name = Regular;
paths = (
{
closed = 1;
nodes = (
"169 0 LINE",
"169 699 LINE",
"66 699 LINE",
"66 0 LINE"
);
},
{
closed = 1;
nodes = (
"164 741 LINE",
"95 913 LINE",
"-12 913 LINE",
"71 741 LINE"
);
}
);
width = 236;
}
);
note = Igrave;
unicode = 00CC;
},
{
glyphname = Ihookabove;
lastChange = "2015-11-30 00:26:46 +0000";
layers = (
{
layerId = "BD32059E-0A74-4E00-835E-4479F7BE2418";
name = Regular;
paths = (
{
closed = 1;
nodes = (
"169 0 LINE",
"169 699 LINE",
"66 699 LINE",
"66 0 LINE"
);
},
{
closed = 1;
nodes = (
"161 742 LINE",
"161 776 LINE",
"221 784 OFFCURVE",
"253 822 OFFCURVE",
"253 870 CURVE SMOOTH",
"253 927 OFFCURVE",
"210 967 OFFCURVE",
"122 967 CURVE SMOOTH",
"90 967 OFFCURVE",
"55 961 OFFCURVE",
"35 954 CURVE",
"35 899 LINE",
"48 905 OFFCURVE",
"82 910 OFFCURVE",
"98 910 CURVE SMOOTH",
"144 910 OFFCURVE",
"164 897 OFFCURVE",
"164 866 CURVE SMOOTH",
"164 827 OFFCURVE",
"132 813 OFFCURVE",
"72 813 CURVE",
"72 742 LINE"
);
}
);
width = 236;
}
);
note = Ihookabove;
unicode = 1EC8;
},
{
glyphname = Imacron;
lastChange = "2015-11-30 00:26:46 +0000";
layers = (
{
layerId = "BD32059E-0A74-4E00-835E-4479F7BE2418";
name = Regular;
paths = (
{
closed = 1;
nodes = (
"169 0 LINE",
"169 699 LINE",
"66 699 LINE",
"66 0 LINE"
);
},
{
closed = 1;
nodes = (
"277 762 LINE",
"277 832 LINE",
"-42 832 LINE",
"-42 762 LINE"
);
}
);
width = 236;
}
);
note = Imacron;
unicode = 012A;
},
{
glyphname = Iogonek;
lastChange = "2015-11-30 00:26:46 +0000";
layers = (
{
layerId = "BD32059E-0A74-4E00-835E-4479F7BE2418";
name = Regular;
paths = (
{
closed = 1;
nodes = (
"169 0 LINE",
"169 699 LINE",
"66 699 LINE",
"66 0 LINE"
);
},
{
closed = 1;
nodes = (
"132 -212 OFFCURVE",
"160 -207 OFFCURVE",
"179 -200 CURVE",
"179 -139 LINE",
"165 -145 OFFCURVE",
"149 -149 OFFCURVE",
"131 -149 CURVE SMOOTH",
"103 -149 OFFCURVE",
"87 -135 OFFCURVE",
"87 -106 CURVE SMOOTH",
"87 -65 OFFCURVE",
"115 -33 OFFCURVE",
"166 0 CURVE",
"72 0 LINE",
"30 -27 OFFCURVE",
"-2 -70 OFFCURVE",
"-2 -122 CURVE SMOOTH",
"-2 -183 OFFCURVE",
"44 -212 OFFCURVE",
"102 -212 CURVE SMOOTH"
);
}
);
width = 236;
}
);
note = Iogonek;
unicode = 012E;
},
{
glyphname = Itilde;
lastChange = "2015-11-30 00:26:45 +0000";
layers = (
{
layerId = "BD32059E-0A74-4E00-835E-4479F7BE2418";
name = Regular;
paths = (
{
closed = 1;
nodes = (
"169 0 LINE",
"169 699 LINE",
"66 699 LINE",
"66 0 LINE"
);
},
{
closed = 1;
nodes = (
"-43 782 OFFCURVE",
"-11 794 OFFCURVE",
"25 794 CURVE SMOOTH",
"89 794 OFFCURVE",
"137 744 OFFCURVE",
"210 744 CURVE SMOOTH",
"251 744 OFFCURVE",
"285 755 OFFCURVE",
"307 786 CURVE",
"307 872 LINE",
"280 833 OFFCURVE",
"247 821 OFFCURVE",
"210 821 CURVE SMOOTH",
"145 821 OFFCURVE",
"93 871 OFFCURVE",
"25 871 CURVE SMOOTH",
"-15 871 OFFCURVE",
"-51 859 OFFCURVE",
"-73 828 CURVE",
"-73 742 LINE"
);
}
);
width = 236;
}
);
note = Itilde;
unicode = 0128;
},
{
glyphname = J;
lastChange = "2015-11-30 00:26:40 +0000";
layers = (
{
layerId = "BD32059E-0A74-4E00-835E-4479F7BE2418";
name = Regular;
paths = (
{
closed = 1;
nodes = (
"242 -15 OFFCURVE",
"313 52 OFFCURVE",
"313 168 CURVE SMOOTH",
"313 699 LINE",
"211 699 LINE",
"211 175 LINE SMOOTH",
"211 106 OFFCURVE",
"174 75 OFFCURVE",
"108 75 CURVE SMOOTH",
"82 75 OFFCURVE",
"46 80 OFFCURVE",
"25 89 CURVE",
"25 2 LINE",
"47 -8 OFFCURVE",
"94 -15 OFFCURVE",
"131 -15 CURVE SMOOTH"
);
}
);
width = 373;
}
);
note = J;
rightKerningGroup = J;
unicode = 004A;
},
{
glyphname = Jcircumflex;
lastChange = "2015-11-30 00:26:47 +0000";
layers = (
{
layerId = "BD32059E-0A74-4E00-835E-4479F7BE2418";
name = Regular;
paths = (
{
closed = 1;
nodes = (
"242 -15 OFFCURVE",
"313 52 OFFCURVE",
"313 168 CURVE SMOOTH",
"313 699 LINE",
"211 699 LINE",
"211 175 LINE SMOOTH",
"211 106 OFFCURVE",
"174 75 OFFCURVE",
"108 75 CURVE SMOOTH",
"82 75 OFFCURVE",
"46 80 OFFCURVE",
"25 89 CURVE",
"25 2 LINE",
"47 -8 OFFCURVE",
"94 -15 OFFCURVE",
"131 -15 CURVE SMOOTH"
);
},
{
closed = 1;
nodes = (
"178 741 LINE",
"262 848 LINE",
"346 741 LINE",
"448 741 LINE",
"306 907 LINE",
"217 907 LINE",
"75 741 LINE"
);
}
);
width = 375;
}
);
note = Jcircumflex;
rightKerningGroup = J;
unicode = 0134;
},
{
glyphname = K;
lastChange = "2015-11-30 00:26:45 +0000";
layers = (
{
layerId = "BD32059E-0A74-4E00-835E-4479F7BE2418";
name = Regular;
paths = (
{
closed = 1;
nodes = (
"635 0 LINE",
"296 356 LINE",
"615 699 LINE",
"491 699 LINE",
"172 356 LINE",
"511 0 LINE"
);
},
{
closed = 1;
nodes = (
"167 0 LINE",
"167 699 LINE",
"65 699 LINE",
"65 0 LINE"
);
}
);
width = 670;
}
);
leftKerningGroup = K;
note = K;
rightKerningGroup = K;
unicode = 004B;
},
{
glyphname = Kcommaaccent;
lastChange = "2015-11-30 00:26:45 +0000";
layers = (
{
layerId = "BD32059E-0A74-4E00-835E-4479F7BE2418";
name = Regular;
paths = (
{
closed = 1;
nodes = (
"635 0 LINE",
"296 356 LINE",
"615 699 LINE",
"491 699 LINE",
"172 356 LINE",
"511 0 LINE"
);
},
{
closed = 1;
nodes = (
"274 -260 LINE",
"369 -60 LINE",
"263 -60 LINE",
"182 -260 LINE"
);
},
{
closed = 1;
nodes = (
"167 0 LINE",
"167 699 LINE",
"65 699 LINE",
"65 0 LINE"
);
}
);
width = 670;
}
);
leftKerningGroup = K;
note = Kcommaaccent;
rightKerningGroup = K;
unicode = 0136;
},
{
glyphname = L;
lastChange = "2015-11-30 00:26:40 +0000";
layers = (
{
layerId = "BD32059E-0A74-4E00-835E-4479F7BE2418";
name = Regular;
paths = (
{
closed = 1;
nodes = (
"521 0 LINE",
"521 85 LINE",
"167 85 LINE",
"167 699 LINE",
"65 699 LINE",
"65 0 LINE"
);
}
);
width = 546;
}
);
note = L;
rightKerningGroup = L;
unicode = 004C;
},
{
glyphname = Lacute;
lastChange = "2015-11-30 00:26:44 +0000";
layers = (
{
layerId = "BD32059E-0A74-4E00-835E-4479F7BE2418";
name = Regular;
paths = (
{
closed = 1;
nodes = (
"521 0 LINE",
"521 85 LINE",
"167 85 LINE",
"167 699 LINE",
"65 699 LINE",
"65 0 LINE"
);
},
{
closed = 1;
nodes = (
"162 757 LINE",
"245 929 LINE",
"138 929 LINE",
"70 757 LINE"
);
}
);
width = 546;
}
);
note = Lacute;
rightKerningGroup = L;
unicode = 0139;
},
{
glyphname = Lcaron;
lastChange = "2015-11-30 00:26:45 +0000";
layers = (
{
layerId = "BD32059E-0A74-4E00-835E-4479F7BE2418";
name = Regular;
paths = (
{
closed = 1;
nodes = (
"521 0 LINE",
"521 85 LINE",
"167 85 LINE",
"167 699 LINE",
"65 699 LINE",
"65 0 LINE"
);
},
{
closed = 1;
nodes = (
"365 502 LINE",
"460 702 LINE",
"354 702 LINE",
"273 502 LINE"
);
}
);
width = 546;
}
);
note = Lcaron;
rightKerningGroup = L;
unicode = 013D;
},
{
glyphname = Lcommaaccent;
lastChange = "2015-11-30 00:26:47 +0000";
layers = (
{
layerId = "BD32059E-0A74-4E00-835E-4479F7BE2418";
name = Regular;
paths = (
{
closed = 1;
nodes = (
"521 0 LINE",
"521 85 LINE",
"167 85 LINE",
"167 699 LINE",
"65 699 LINE",
"65 0 LINE"
);
},
{
closed = 1;
nodes = (
"257 -260 LINE",
"352 -60 LINE",
"246 -60 LINE",
"165 -260 LINE"
);
}
);
width = 546;
}
);
note = Lcommaaccent;
rightKerningGroup = L;
unicode = 013B;
},
{
glyphname = Ldot;
lastChange = "2015-11-30 00:26:46 +0000";
layers = (
{
layerId = "BD32059E-0A74-4E00-835E-4479F7BE2418";
name = Regular;
paths = (
{
closed = 1;
nodes = (
"521 0 LINE",
"521 85 LINE",
"167 85 LINE",
"167 699 LINE",
"65 699 LINE",
"65 0 LINE"
);
},
{
closed = 1;
nodes = (
"394 325 OFFCURVE",
"421 351 OFFCURVE",
"421 383 CURVE SMOOTH",
"421 415 OFFCURVE",
"394 441 OFFCURVE",
"363 441 CURVE SMOOTH",
"332 441 OFFCURVE",
"305 415 OFFCURVE",
"305 383 CURVE SMOOTH",
"305 351 OFFCURVE",
"332 325 OFFCURVE",
"363 325 CURVE SMOOTH"
);
}
);
width = 546;
}
);
note = Ldot;
rightKerningGroup = L;
unicode = 013F;
},
{
glyphname = Ldotbelow;
lastChange = "2015-11-30 00:26:45 +0000";
layers = (
{
layerId = "BD32059E-0A74-4E00-835E-4479F7BE2418";
name = Regular;
paths = (
{
closed = 1;
nodes = (
"521 0 LINE",
"521 85 LINE",
"167 85 LINE",
"167 699 LINE",
"65 699 LINE",
"65 0 LINE"
);
},
{
closed = 1;
nodes = (
"304 -166 OFFCURVE",
"330 -140 OFFCURVE",
"330 -108 CURVE SMOOTH",
"330 -76 OFFCURVE",
"304 -50 OFFCURVE",
"273 -50 CURVE SMOOTH",
"241 -50 OFFCURVE",
"214 -76 OFFCURVE",
"214 -108 CURVE SMOOTH",
"214 -140 OFFCURVE",
"241 -166 OFFCURVE",
"273 -166 CURVE SMOOTH"
);
}
);
width = 546;
}
);
note = Ldotbelow;
rightKerningGroup = L;
unicode = 1E36;
},
{
glyphname = Ldotbelowmacron;
lastChange = "2015-11-30 00:26:46 +0000";
layers = (
{
layerId = "BD32059E-0A74-4E00-835E-4479F7BE2418";
name = Regular;
paths = (
{
closed = 1;
nodes = (
"529 0 LINE",
"529 85 LINE",
"175 85 LINE",
"175 699 LINE",
"73 699 LINE",
"73 0 LINE"
);
},
{
closed = 1;
nodes = (
"327 -166 OFFCURVE",
"353 -140 OFFCURVE",
"353 -108 CURVE SMOOTH",
"353 -76 OFFCURVE",
"327 -50 OFFCURVE",
"296 -50 CURVE SMOOTH",
"264 -50 OFFCURVE",
"237 -76 OFFCURVE",
"237 -108 CURVE SMOOTH",
"237 -140 OFFCURVE",
"264 -166 OFFCURVE",
"296 -166 CURVE SMOOTH"
);
},
{
closed = 1;
nodes = (
"382 773 LINE",
"382 842 LINE",
"70 842 LINE",
"70 773 LINE"
);
}
);
width = 554;
}
);
note = Ldotbelowmacron;
rightKerningGroup = L;
unicode = 1E38;
},
{
glyphname = Llinebelow;
lastChange = "2015-11-30 00:26:46 +0000";
layers = (
{
layerId = "BD32059E-0A74-4E00-835E-4479F7BE2418";
name = Regular;
paths = (
{
closed = 1;
nodes = (
"521 0 LINE",
"521 85 LINE",
"167 85 LINE",
"167 699 LINE",
"65 699 LINE",
"65 0 LINE"
);
},
{
closed = 1;
nodes = (
"446 -141 LINE",
"446 -71 LINE",
"132 -71 LINE",
"132 -141 LINE"
);
}
);
width = 546;
}
);
note = Llinebelow;
rightKerningGroup = L;
unicode = 1E3A;
},
{
glyphname = Lslash;
lastChange = "2015-11-30 00:26:40 +0000";
layers = (
{
layerId = "BD32059E-0A74-4E00-835E-4479F7BE2418";
name = Regular;
paths = (
{
closed = 1;
nodes = (
"573 0 LINE",
"573 85 LINE",
"219 85 LINE",
"219 342 LINE",
"381 415 LINE",
"381 511 LINE",
"219 438 LINE",
"219 699 LINE",
"117 699 LINE",
"117 392 LINE",
"15 347 LINE",
"15 251 LINE",
"117 296 LINE",
"117 0 LINE"
);
}
);
width = 598;
}
);
note = Lslash;
rightKerningGroup = L;
unicode = 0141;
},
{
glyphname = M;
lastChange = "2015-11-30 00:26:40 +0000";
layers = (
{
layerId = "BD32059E-0A74-4E00-835E-4479F7BE2418";
name = Regular;
paths = (
{
closed = 1;
nodes = (
"163 0 LINE",
"163 497 LINE",
"391 0 LINE",
"441 0 LINE",
"668 497 LINE",
"668 0 LINE",
"767 0 LINE",
"767 699 LINE",
"665 699 LINE",
"416 154 LINE",
"167 699 LINE",
"65 699 LINE",
"65 0 LINE"
);
}
);
width = 832;
}
);
note = M;
unicode = 004D;
},
{
glyphname = Mdotbelow;
lastChange = "2015-11-30 00:26:46 +0000";
layers = (
{
layerId = "BD32059E-0A74-4E00-835E-4479F7BE2418";
name = Regular;
paths = (
{
closed = 1;
nodes = (
"163 0 LINE",
"163 497 LINE",
"391 0 LINE",
"441 0 LINE",
"668 497 LINE",
"668 0 LINE",
"767 0 LINE",
"767 699 LINE",
"665 699 LINE",
"416 154 LINE",
"167 699 LINE",
"65 699 LINE",
"65 0 LINE"
);
},
{
closed = 1;
nodes = (
"448 -166 OFFCURVE",
"474 -140 OFFCURVE",
"474 -108 CURVE SMOOTH",
"474 -76 OFFCURVE",
"448 -50 OFFCURVE",
"417 -50 CURVE SMOOTH",
"385 -50 OFFCURVE",
"358 -76 OFFCURVE",
"358 -108 CURVE SMOOTH",
"358 -140 OFFCURVE",
"385 -166 OFFCURVE",
"417 -166 CURVE SMOOTH"
);
}
);
width = 832;
}
);
note = Mdotbelow;
unicode = 1E42;
},
{
glyphname = N;
lastChange = "2015-11-30 00:26:40 +0000";
layers = (
{
layerId = "BD32059E-0A74-4E00-835E-4479F7BE2418";
name = Regular;
paths = (
{
closed = 1;
nodes = (
"167 0 LINE",
"167 527 LINE",
"523 0 LINE",
"621 0 LINE",
"621 699 LINE",
"518 699 LINE",
"518 172 LINE",
"162 699 LINE",
"65 699 LINE",
"65 0 LINE"
);
}
);
width = 686;
}
);
note = N;
unicode = 004E;
},
{
glyphname = Nacute;
lastChange = "2015-11-30 00:26:44 +0000";
layers = (
{
layerId = "BD32059E-0A74-4E00-835E-4479F7BE2418";
name = Regular;
paths = (
{
closed = 1;
nodes = (
"167 0 LINE",
"167 527 LINE",
"523 0 LINE",
"621 0 LINE",
"621 699 LINE",
"518 699 LINE",
"518 172 LINE",
"162 699 LINE",
"65 699 LINE",
"65 0 LINE"
);
},
{
closed = 1;
nodes = (
"382 741 LINE",
"465 913 LINE",
"358 913 LINE",
"290 741 LINE"
);
}
);
width = 686;
}
);
note = Nacute;
unicode = 0143;
},
{
glyphname = Ncaron;
lastChange = "2015-11-30 00:26:47 +0000";
layers = (
{
layerId = "BD32059E-0A74-4E00-835E-4479F7BE2418";
name = Regular;
paths = (
{
closed = 1;
nodes = (
"167 0 LINE",
"167 527 LINE",
"523 0 LINE",
"621 0 LINE",
"621 699 LINE",
"518 699 LINE",
"518 172 LINE",
"162 699 LINE",
"65 699 LINE",
"65 0 LINE"
);
},
{
closed = 1;
nodes = (
"389 742 LINE",
"531 908 LINE",
"429 908 LINE",
"345 801 LINE",
"261 908 LINE",
"158 908 LINE",
"300 742 LINE"
);
}
);
width = 686;
}
);
note = Ncaron;
unicode = 0147;
},
{
glyphname = Ncommaaccent;
lastChange = "2015-11-30 00:26:45 +0000";
layers = (
{
layerId = "BD32059E-0A74-4E00-835E-4479F7BE2418";
name = Regular;
paths = (
{
closed = 1;
nodes = (
"167 0 LINE",
"167 527 LINE",
"523 0 LINE",
"621 0 LINE",
"621 699 LINE",
"518 699 LINE",
"518 172 LINE",
"162 699 LINE",
"65 699 LINE",
"65 0 LINE"
);
},
{
closed = 1;
nodes = (
"314 -260 LINE",
"409 -60 LINE",
"303 -60 LINE",
"222 -260 LINE"
);
}
);
width = 686;
}
);
note = Ncommaaccent;
unicode = 0145;
},
{
glyphname = Ndotaccent;
lastChange = "2015-11-30 00:26:47 +0000";
layers = (
{
layerId = "BD32059E-0A74-4E00-835E-4479F7BE2418";
name = Regular;
paths = (
{
closed = 1;
nodes = (
"167 0 LINE",
"167 527 LINE",
"523 0 LINE",
"621 0 LINE",
"621 699 LINE",
"518 699 LINE",
"518 172 LINE",
"162 699 LINE",
"65 699 LINE",
"65 0 LINE"
);
},
{
closed = 1;
nodes = (
"381 741 OFFCURVE",
"407 767 OFFCURVE",
"407 799 CURVE SMOOTH",
"407 831 OFFCURVE",
"381 857 OFFCURVE",
"350 857 CURVE SMOOTH",
"318 857 OFFCURVE",
"291 831 OFFCURVE",
"291 799 CURVE SMOOTH",
"291 767 OFFCURVE",
"318 741 OFFCURVE",
"350 741 CURVE SMOOTH"
);
}
);
width = 686;
}
);
note = Ndotaccent;
unicode = 1E44;
},
{
glyphname = Ndotbelow;
lastChange = "2015-11-30 00:26:47 +0000";
layers = (
{
layerId = "BD32059E-0A74-4E00-835E-4479F7BE2418";
name = Regular;
paths = (
{
closed = 1;
nodes = (
"167 0 LINE",
"167 527 LINE",
"523 0 LINE",
"621 0 LINE",
"621 699 LINE",
"518 699 LINE",
"518 172 LINE",
"162 699 LINE",
"65 699 LINE",
"65 0 LINE"
);
},
{
closed = 1;
nodes = (
"378 -166 OFFCURVE",
"404 -140 OFFCURVE",
"404 -108 CURVE SMOOTH",
"404 -76 OFFCURVE",
"378 -50 OFFCURVE",
"347 -50 CURVE SMOOTH",
"315 -50 OFFCURVE",
"288 -76 OFFCURVE",
"288 -108 CURVE SMOOTH",
"288 -140 OFFCURVE",
"315 -166 OFFCURVE",
"347 -166 CURVE SMOOTH"
);
}
);
width = 686;
}
);
note = Ndotbelow;
unicode = 1E46;
},
{
glyphname = Eng;
lastChange = "2015-11-30 00:26:40 +0000";
layers = (
{
layerId = "BD32059E-0A74-4E00-835E-4479F7BE2418";
name = Regular;
paths = (
{
closed = 1;
nodes = (
"551 -231 OFFCURVE",
"621 -179 OFFCURVE",
"621 -64 CURVE SMOOTH",
"621 699 LINE",
"518 699 LINE",
"518 172 LINE",
"162 699 LINE",
"65 699 LINE",
"65 0 LINE",
"167 0 LINE",
"167 527 LINE",
"519 6 LINE",
"519 -58 LINE SMOOTH",
"519 -121 OFFCURVE",
"495 -149 OFFCURVE",
"435 -149 CURVE SMOOTH",
"413 -149 OFFCURVE",
"392 -144 OFFCURVE",
"375 -136 CURVE",
"375 -220 LINE",
"395 -227 OFFCURVE",
"420 -231 OFFCURVE",
"451 -231 CURVE SMOOTH"
);
}
);
width = 686;
}
);
note = Eng;
unicode = 014A;
},
{
glyphname = Nlinebelow;
lastChange = "2015-11-30 00:26:45 +0000";
layers = (
{
layerId = "BD32059E-0A74-4E00-835E-4479F7BE2418";
name = Regular;
paths = (
{
closed = 1;
nodes = (
"167 0 LINE",
"167 527 LINE",
"523 0 LINE",
"621 0 LINE",
"621 699 LINE",
"518 699 LINE",
"518 172 LINE",
"162 699 LINE",
"65 699 LINE",
"65 0 LINE"
);
},
{
closed = 1;
nodes = (
"509 -141 LINE",
"509 -71 LINE",
"195 -71 LINE",
"195 -141 LINE"
);
}
);
width = 686;
}
);
note = Nlinebelow;
unicode = 1E48;
},
{
glyphname = Ntilde;
lastChange = "2015-11-30 00:26:46 +0000";
layers = (
{
layerId = "BD32059E-0A74-4E00-835E-4479F7BE2418";
name = Regular;
paths = (
{
closed = 1;
nodes = (
"167 0 LINE",
"167 527 LINE",
"523 0 LINE",
"621 0 LINE",
"621 699 LINE",
"518 699 LINE",
"518 172 LINE",
"162 699 LINE",
"65 699 LINE",
"65 0 LINE"
);
},
{
closed = 1;
nodes = (
"194 782 OFFCURVE",
"226 794 OFFCURVE",
"262 794 CURVE SMOOTH",
"326 794 OFFCURVE",
"374 744 OFFCURVE",
"447 744 CURVE SMOOTH",
"488 744 OFFCURVE",
"522 755 OFFCURVE",
"544 786 CURVE",
"544 872 LINE",
"517 833 OFFCURVE",
"484 821 OFFCURVE",
"447 821 CURVE SMOOTH",
"382 821 OFFCURVE",
"330 871 OFFCURVE",
"262 871 CURVE SMOOTH",
"222 871 OFFCURVE",
"186 859 OFFCURVE",
"164 828 CURVE",
"164 742 LINE"
);
}
);
width = 686;
}
);
note = Ntilde;
unicode = 00D1;
},
{
glyphname = O;
lastChange = "2015-11-30 00:26:46 +0000";
layers = (
{
layerId = "BD32059E-0A74-4E00-835E-4479F7BE2418";
name = Regular;
paths = (
{
closed = 1;
nodes = (
"622 -15 OFFCURVE",
"781 131 OFFCURVE",
"781 349 CURVE SMOOTH",
"781 568 OFFCURVE",
"622 714 OFFCURVE",
"413 714 CURVE SMOOTH",
"204 714 OFFCURVE",
"45 568 OFFCURVE",
"45 349 CURVE SMOOTH",
"45 131 OFFCURVE",
"204 -15 OFFCURVE",
"413 -15 CURVE SMOOTH"
);
},
{
closed = 1;
nodes = (
"266 77 OFFCURVE",
"148 181 OFFCURVE",
"148 349 CURVE SMOOTH",
"148 515 OFFCURVE",
"264 620 OFFCURVE",
"413 620 CURVE SMOOTH",
"562 621 OFFCURVE",
"678 515 OFFCURVE",
"678 349 CURVE SMOOTH",
"678 181 OFFCURVE",
"560 77 OFFCURVE",
"413 77 CURVE SMOOTH"
);
}
);
width = 826;
}
);
leftKerningGroup = O;
note = O;
rightKerningGroup = O;
unicode = 004F;
},
{
glyphname = Oacute;
lastChange = "2015-11-30 00:26:45 +0000";
layers = (
{
layerId = "BD32059E-0A74-4E00-835E-4479F7BE2418";
name = Regular;
paths = (
{
closed = 1;
nodes = (
"622 -15 OFFCURVE",
"781 131 OFFCURVE",
"781 349 CURVE SMOOTH",
"781 568 OFFCURVE",
"622 714 OFFCURVE",
"413 714 CURVE SMOOTH",
"204 714 OFFCURVE",
"45 568 OFFCURVE",
"45 349 CURVE SMOOTH",
"45 131 OFFCURVE",
"204 -15 OFFCURVE",
"413 -15 CURVE SMOOTH"
);
},
{
closed = 1;
nodes = (
"266 77 OFFCURVE",
"148 181 OFFCURVE",
"148 349 CURVE SMOOTH",
"148 515 OFFCURVE",
"264 620 OFFCURVE",
"413 620 CURVE SMOOTH",
"562 621 OFFCURVE",
"678 515 OFFCURVE",
"678 349 CURVE SMOOTH",
"678 181 OFFCURVE",
"560 77 OFFCURVE",
"413 77 CURVE SMOOTH"
);
},
{
closed = 1;
nodes = (
"458 741 LINE",
"541 913 LINE",
"434 913 LINE",
"366 741 LINE"
);
}
);
width = 826;
}
);
leftKerningGroup = O;
note = Oacute;
rightKerningGroup = O;
unicode = 00D3;
},
{
glyphname = Obreve;
lastChange = "2015-11-30 00:26:46 +0000";
layers = (
{
layerId = "BD32059E-0A74-4E00-835E-4479F7BE2418";
name = Regular;
paths = (
{
closed = 1;
nodes = (
"622 -15 OFFCURVE",
"781 131 OFFCURVE",
"781 349 CURVE SMOOTH",
"781 568 OFFCURVE",
"622 714 OFFCURVE",
"413 714 CURVE SMOOTH",
"204 714 OFFCURVE",
"45 568 OFFCURVE",
"45 349 CURVE SMOOTH",
"45 131 OFFCURVE",
"204 -15 OFFCURVE",
"413 -15 CURVE SMOOTH"
);
},
{
closed = 1;
nodes = (
"266 77 OFFCURVE",
"148 181 OFFCURVE",
"148 349 CURVE SMOOTH",
"148 515 OFFCURVE",
"264 620 OFFCURVE",
"413 620 CURVE SMOOTH",
"562 621 OFFCURVE",
"678 515 OFFCURVE",
"678 349 CURVE SMOOTH",
"678 181 OFFCURVE",
"560 77 OFFCURVE",
"413 77 CURVE SMOOTH"
);
},
{
closed = 1;
nodes = (
"506 742 OFFCURVE",
"563 800 OFFCURVE",
"563 882 CURVE",
"486 882 LINE",
"486 837 OFFCURVE",
"459 811 OFFCURVE",
"413 811 CURVE SMOOTH",
"367 811 OFFCURVE",
"340 837 OFFCURVE",
"340 882 CURVE",
"262 882 LINE",
"262 800 OFFCURVE",
"319 742 OFFCURVE",
"413 742 CURVE SMOOTH"
);
}
);
width = 826;
}
);
leftKerningGroup = O;
note = Obreve;
rightKerningGroup = O;
unicode = 014E;
},
{
glyphname = Ocaron;
lastChange = "2015-11-30 00:26:45 +0000";
layers = (
{
layerId = "BD32059E-0A74-4E00-835E-4479F7BE2418";
name = Regular;
paths = (
{
closed = 1;
nodes = (
"622 -15 OFFCURVE",
"781 131 OFFCURVE",
"781 349 CURVE SMOOTH",
"781 568 OFFCURVE",
"622 714 OFFCURVE",
"413 714 CURVE SMOOTH",
"204 714 OFFCURVE",
"45 568 OFFCURVE",
"45 349 CURVE SMOOTH",
"45 131 OFFCURVE",
"204 -15 OFFCURVE",
"413 -15 CURVE SMOOTH"
);
},
{
closed = 1;
nodes = (
"266 77 OFFCURVE",
"148 181 OFFCURVE",
"148 349 CURVE SMOOTH",
"148 515 OFFCURVE",
"264 620 OFFCURVE",
"413 620 CURVE SMOOTH",
"562 621 OFFCURVE",
"678 515 OFFCURVE",
"678 349 CURVE SMOOTH",
"678 181 OFFCURVE",
"560 77 OFFCURVE",
"413 77 CURVE SMOOTH"
);
},
{
closed = 1;
nodes = (
"458 742 LINE",
"600 908 LINE",
"498 908 LINE",
"414 801 LINE",
"330 908 LINE",
"227 908 LINE",
"369 742 LINE"
);
}
);
width = 826;
}
);
leftKerningGroup = O;
note = Ocaron;
rightKerningGroup = O;
unicode = 01D1;
},
{
glyphname = Ocircumflex;
lastChange = "2015-11-30 00:26:46 +0000";
layers = (
{
layerId = "BD32059E-0A74-4E00-835E-4479F7BE2418";
name = Regular;
paths = (
{
closed = 1;
nodes = (
"622 -15 OFFCURVE",
"781 131 OFFCURVE",
"781 349 CURVE SMOOTH",
"781 568 OFFCURVE",
"622 714 OFFCURVE",
"413 714 CURVE SMOOTH",
"204 714 OFFCURVE",
"45 568 OFFCURVE",
"45 349 CURVE SMOOTH",
"45 131 OFFCURVE",
"204 -15 OFFCURVE",
"413 -15 CURVE SMOOTH"
);
},
{
closed = 1;
nodes = (
"266 77 OFFCURVE",
"148 181 OFFCURVE",
"148 349 CURVE SMOOTH",
"148 515 OFFCURVE",
"264 620 OFFCURVE",
"413 620 CURVE SMOOTH",
"562 621 OFFCURVE",
"678 515 OFFCURVE",
"678 349 CURVE SMOOTH",
"678 181 OFFCURVE",
"560 77 OFFCURVE",
"413 77 CURVE SMOOTH"
);
},
{
closed = 1;
nodes = (
"330 741 LINE",
"414 848 LINE",
"498 741 LINE",
"600 741 LINE",
"458 907 LINE",
"369 907 LINE",
"227 741 LINE"
);
}
);
width = 826;
}
);
leftKerningGroup = O;
note = Ocircumflex;
rightKerningGroup = O;
unicode = 00D4;
},
{
glyphname = Ocircumflexacute;
lastChange = "2015-11-30 00:26:45 +0000";
layers = (
{
layerId = "BD32059E-0A74-4E00-835E-4479F7BE2418";
name = Regular;
paths = (
{
closed = 1;
nodes = (
"622 -15 OFFCURVE",
"781 131 OFFCURVE",
"781 349 CURVE SMOOTH",
"781 568 OFFCURVE",
"622 714 OFFCURVE",
"413 714 CURVE SMOOTH",
"204 714 OFFCURVE",
"45 568 OFFCURVE",
"45 349 CURVE SMOOTH",
"45 131 OFFCURVE",
"204 -15 OFFCURVE",
"413 -15 CURVE SMOOTH"
);
},
{
closed = 1;
nodes = (
"266 77 OFFCURVE",
"148 181 OFFCURVE",
"148 349 CURVE SMOOTH",
"148 515 OFFCURVE",
"264 620 OFFCURVE",
"413 620 CURVE SMOOTH",
"562 621 OFFCURVE",
"678 515 OFFCURVE",
"678 349 CURVE SMOOTH",
"678 181 OFFCURVE",
"560 77 OFFCURVE",
"413 77 CURVE SMOOTH"
);
},
{
closed = 1;
nodes = (
"342 741 LINE",
"424 831 LINE",
"506 741 LINE",
"605 741 LINE",
"467 886 LINE",
"381 886 LINE",
"243 741 LINE"
);
},
{
closed = 1;
nodes = (
"613 842 LINE",
"692 966 LINE",
"601 966 LINE",
"535 842 LINE"
);
}
);
width = 826;
}
);
leftKerningGroup = O;
note = Ocircumflexacute;
rightKerningGroup = O;
unicode = 1ED0;
},
{
glyphname = Ocircumflexdotbelow;
lastChange = "2015-11-30 00:26:47 +0000";
layers = (
{
layerId = "BD32059E-0A74-4E00-835E-4479F7BE2418";
name = Regular;
paths = (
{
closed = 1;
nodes = (
"622 -15 OFFCURVE",
"781 131 OFFCURVE",
"781 349 CURVE SMOOTH",
"781 568 OFFCURVE",
"622 714 OFFCURVE",
"413 714 CURVE SMOOTH",
"204 714 OFFCURVE",
"45 568 OFFCURVE",
"45 349 CURVE SMOOTH",
"45 131 OFFCURVE",
"204 -15 OFFCURVE",
"413 -15 CURVE SMOOTH"
);
},
{
closed = 1;
nodes = (
"445 -166 OFFCURVE",
"471 -140 OFFCURVE",
"471 -108 CURVE SMOOTH",
"471 -76 OFFCURVE",
"445 -50 OFFCURVE",
"414 -50 CURVE SMOOTH",
"382 -50 OFFCURVE",
"355 -76 OFFCURVE",
"355 -108 CURVE SMOOTH",
"355 -140 OFFCURVE",
"382 -166 OFFCURVE",
"414 -166 CURVE SMOOTH"
);
},
{
closed = 1;
nodes = (
"266 77 OFFCURVE",
"148 181 OFFCURVE",
"148 349 CURVE SMOOTH",
"148 515 OFFCURVE",
"264 620 OFFCURVE",
"413 620 CURVE SMOOTH",
"562 621 OFFCURVE",
"678 515 OFFCURVE",
"678 349 CURVE SMOOTH",
"678 181 OFFCURVE",
"560 77 OFFCURVE",
"413 77 CURVE SMOOTH"
);
},
{
closed = 1;
nodes = (
"329 741 LINE",
"413 848 LINE",
"497 741 LINE",
"599 741 LINE",
"457 907 LINE",
"368 907 LINE",
"226 741 LINE"
);
}
);
width = 826;
}
);
leftKerningGroup = O;
note = Ocircumflexdotbelow;
rightKerningGroup = O;
unicode = 1ED8;
},
{
glyphname = Ocircumflexgrave;
lastChange = "2015-11-30 00:26:46 +0000";
layers = (
{
layerId = "BD32059E-0A74-4E00-835E-4479F7BE2418";
name = Regular;
paths = (
{
closed = 1;
nodes = (
"622 -15 OFFCURVE",
"781 131 OFFCURVE",
"781 349 CURVE SMOOTH",
"781 568 OFFCURVE",
"622 714 OFFCURVE",
"413 714 CURVE SMOOTH",
"204 714 OFFCURVE",
"45 568 OFFCURVE",
"45 349 CURVE SMOOTH",
"45 131 OFFCURVE",
"204 -15 OFFCURVE",
"413 -15 CURVE SMOOTH"
);
},
{
closed = 1;
nodes = (
"266 77 OFFCURVE",
"148 181 OFFCURVE",
"148 349 CURVE SMOOTH",
"148 515 OFFCURVE",
"264 620 OFFCURVE",
"413 620 CURVE SMOOTH",
"562 621 OFFCURVE",
"678 515 OFFCURVE",
"678 349 CURVE SMOOTH",
"678 181 OFFCURVE",
"560 77 OFFCURVE",
"413 77 CURVE SMOOTH"
);
},
{
closed = 1;
nodes = (
"304 842 LINE",
"238 966 LINE",
"147 966 LINE",
"226 842 LINE"
);
},
{
closed = 1;
nodes = (
"333 741 LINE",
"415 831 LINE",
"497 741 LINE",
"596 741 LINE",
"458 886 LINE",
"372 886 LINE",
"234 741 LINE"
);
}
);
width = 826;
}
);
leftKerningGroup = O;
note = Ocircumflexgrave;
rightKerningGroup = O;
unicode = 1ED2;
},
{
glyphname = Ocircumflexhookabove;
lastChange = "2015-11-30 00:26:46 +0000";
layers = (
{
layerId = "BD32059E-0A74-4E00-835E-4479F7BE2418";
name = Regular;
paths = (
{
closed = 1;
nodes = (
"622 -15 OFFCURVE",
"781 131 OFFCURVE",
"781 349 CURVE SMOOTH",
"781 568 OFFCURVE",
"622 714 OFFCURVE",
"413 714 CURVE SMOOTH",
"204 714 OFFCURVE",
"45 568 OFFCURVE",
"45 349 CURVE SMOOTH",
"45 131 OFFCURVE",
"204 -15 OFFCURVE",
"413 -15 CURVE SMOOTH"
);
},
{
closed = 1;
nodes = (
"266 77 OFFCURVE",
"148 181 OFFCURVE",
"148 349 CURVE SMOOTH",
"148 515 OFFCURVE",
"264 620 OFFCURVE",
"413 620 CURVE SMOOTH",
"562 621 OFFCURVE",
"678 515 OFFCURVE",
"678 349 CURVE SMOOTH",
"678 181 OFFCURVE",
"560 77 OFFCURVE",
"413 77 CURVE SMOOTH"
);
},
{
closed = 1;
nodes = (
"336 741 LINE",
"418 831 LINE",
"500 741 LINE",
"599 741 LINE",
"461 886 LINE",
"375 886 LINE",
"237 741 LINE"
);
},
{
closed = 1;
nodes = (
"596 833 LINE",
"596 858 LINE",
"638 864 OFFCURVE",
"662 890 OFFCURVE",
"662 923 CURVE SMOOTH",
"662 964 OFFCURVE",
"629 991 OFFCURVE",
"571 991 CURVE SMOOTH",
"549 991 OFFCURVE",
"521 986 OFFCURVE",
"505 981 CURVE",
"505 938 LINE",
"515 943 OFFCURVE",
"533 946 OFFCURVE",
"548 946 CURVE SMOOTH",
"577 946 OFFCURVE",
"591 938 OFFCURVE",
"591 917 CURVE SMOOTH",
"591 893 OFFCURVE",
"572 883 OFFCURVE",
"532 883 CURVE",
"532 833 LINE"
);
}
);
width = 826;
}
);
leftKerningGroup = O;
note = Ocircumflexhookabove;
rightKerningGroup = O;
unicode = 1ED4;
},
{
glyphname = Ocircumflextilde;
lastChange = "2015-11-30 00:26:45 +0000";
layers = (
{
layerId = "BD32059E-0A74-4E00-835E-4479F7BE2418";
name = Regular;
paths = (
{
closed = 1;
nodes = (
"622 -15 OFFCURVE",
"781 131 OFFCURVE",
"781 349 CURVE SMOOTH",
"781 568 OFFCURVE",
"622 714 OFFCURVE",
"413 714 CURVE SMOOTH",
"204 714 OFFCURVE",
"45 568 OFFCURVE",
"45 349 CURVE SMOOTH",
"45 131 OFFCURVE",
"204 -15 OFFCURVE",
"413 -15 CURVE SMOOTH"
);
},
{
closed = 1;
nodes = (
"266 77 OFFCURVE",
"148 181 OFFCURVE",
"148 349 CURVE SMOOTH",
"148 515 OFFCURVE",
"264 620 OFFCURVE",
"413 620 CURVE SMOOTH",
"562 621 OFFCURVE",
"678 515 OFFCURVE",
"678 349 CURVE SMOOTH",
"678 181 OFFCURVE",
"560 77 OFFCURVE",
"413 77 CURVE SMOOTH"
);
},
{
closed = 1;
nodes = (
"506 742 OFFCURVE",
"562 798 OFFCURVE",
"562 879 CURVE",
"487 879 LINE",
"487 835 OFFCURVE",
"461 809 OFFCURVE",
"415 809 CURVE SMOOTH",
"370 809 OFFCURVE",
"343 835 OFFCURVE",
"343 879 CURVE",
"269 879 LINE",
"269 798 OFFCURVE",
"324 742 OFFCURVE",
"415 742 CURVE SMOOTH"
);
},
{
closed = 1;
nodes = (
"279 939 OFFCURVE",
"304 950 OFFCURVE",
"335 950 CURVE SMOOTH",
"386 950 OFFCURVE",
"432 907 OFFCURVE",
"491 907 CURVE SMOOTH",
"526 907 OFFCURVE",
"554 916 OFFCURVE",
"572 942 CURVE",
"572 1017 LINE",
"549 984 OFFCURVE",
"522 973 OFFCURVE",
"491 973 CURVE SMOOTH",
"439 973 OFFCURVE",
"390 1017 OFFCURVE",
"335 1017 CURVE SMOOTH",
"300 1017 OFFCURVE",
"272 1007 OFFCURVE",
"254 981 CURVE",
"254 906 LINE"
);
}
);
width = 826;
}
);
leftKerningGroup = O;
note = Ocircumflextilde;
rightKerningGroup = O;
unicode = 1ED6;
},
{
glyphname = Odieresis;
lastChange = "2015-11-30 00:26:44 +0000";
layers = (
{
layerId = "BD32059E-0A74-4E00-835E-4479F7BE2418";
name = Regular;
paths = (
{
closed = 1;
nodes = (
"622 -15 OFFCURVE",
"781 131 OFFCURVE",
"781 349 CURVE SMOOTH",
"781 568 OFFCURVE",
"622 714 OFFCURVE",
"413 714 CURVE SMOOTH",
"204 714 OFFCURVE",
"45 568 OFFCURVE",
"45 349 CURVE SMOOTH",
"45 131 OFFCURVE",
"204 -15 OFFCURVE",
"413 -15 CURVE SMOOTH"
);
},
{
closed = 1;
nodes = (
"266 77 OFFCURVE",
"148 181 OFFCURVE",
"148 349 CURVE SMOOTH",
"148 515 OFFCURVE",
"264 620 OFFCURVE",
"413 620 CURVE SMOOTH",
"562 621 OFFCURVE",
"678 515 OFFCURVE",
"678 349 CURVE SMOOTH",
"678 181 OFFCURVE",
"560 77 OFFCURVE",
"413 77 CURVE SMOOTH"
);
},
{
closed = 1;
nodes = (
"331 741 OFFCURVE",
"357 767 OFFCURVE",
"357 799 CURVE SMOOTH",
"357 831 OFFCURVE",
"331 857 OFFCURVE",
"300 857 CURVE SMOOTH",
"268 857 OFFCURVE",
"241 831 OFFCURVE",
"241 799 CURVE SMOOTH",
"241 767 OFFCURVE",
"268 741 OFFCURVE",
"300 741 CURVE SMOOTH"
);
},
{
closed = 1;
nodes = (
"558 741 OFFCURVE",
"584 767 OFFCURVE",
"584 799 CURVE SMOOTH",
"584 831 OFFCURVE",
"558 857 OFFCURVE",
"527 857 CURVE SMOOTH",
"495 857 OFFCURVE",
"468 831 OFFCURVE",
"468 799 CURVE SMOOTH",
"468 767 OFFCURVE",
"495 741 OFFCURVE",
"527 741 CURVE SMOOTH"
);
}
);
width = 826;
}
);
leftKerningGroup = O;
note = Odieresis;
rightKerningGroup = O;
unicode = 00D6;
},
{
glyphname = Odotbelow;
lastChange = "2015-11-30 00:26:46 +0000";
layers = (
{
layerId = "BD32059E-0A74-4E00-835E-4479F7BE2418";
name = Regular;
paths = (
{
closed = 1;
nodes = (
"622 -15 OFFCURVE",
"781 131 OFFCURVE",
"781 349 CURVE SMOOTH",
"781 568 OFFCURVE",
"622 714 OFFCURVE",
"413 714 CURVE SMOOTH",
"204 714 OFFCURVE",
"45 568 OFFCURVE",
"45 349 CURVE SMOOTH",
"45 131 OFFCURVE",
"204 -15 OFFCURVE",
"413 -15 CURVE SMOOTH"
);
},
{
closed = 1;
nodes = (
"445 -166 OFFCURVE",
"471 -140 OFFCURVE",
"471 -108 CURVE SMOOTH",
"471 -76 OFFCURVE",
"445 -50 OFFCURVE",
"414 -50 CURVE SMOOTH",
"382 -50 OFFCURVE",
"355 -76 OFFCURVE",
"355 -108 CURVE SMOOTH",
"355 -140 OFFCURVE",
"382 -166 OFFCURVE",
"414 -166 CURVE SMOOTH"
);
},
{
closed = 1;
nodes = (
"266 77 OFFCURVE",
"148 181 OFFCURVE",
"148 349 CURVE SMOOTH",
"148 515 OFFCURVE",
"264 620 OFFCURVE",
"413 620 CURVE SMOOTH",
"562 621 OFFCURVE",
"678 515 OFFCURVE",
"678 349 CURVE SMOOTH",
"678 181 OFFCURVE",
"560 77 OFFCURVE",
"413 77 CURVE SMOOTH"
);
}
);
width = 826;
}
);
leftKerningGroup = O;
note = Odotbelow;
rightKerningGroup = O;
unicode = 1ECC;
},
{
glyphname = Ograve;
lastChange = "2015-11-30 00:26:46 +0000";
layers = (
{
layerId = "BD32059E-0A74-4E00-835E-4479F7BE2418";
name = Regular;
paths = (
{
closed = 1;
nodes = (
"622 -15 OFFCURVE",
"781 131 OFFCURVE",
"781 349 CURVE SMOOTH",
"781 568 OFFCURVE",
"622 714 OFFCURVE",
"413 714 CURVE SMOOTH",
"204 714 OFFCURVE",
"45 568 OFFCURVE",
"45 349 CURVE SMOOTH",
"45 131 OFFCURVE",
"204 -15 OFFCURVE",
"413 -15 CURVE SMOOTH"
);
},
{
closed = 1;
nodes = (
"266 77 OFFCURVE",
"148 181 OFFCURVE",
"148 349 CURVE SMOOTH",
"148 515 OFFCURVE",
"264 620 OFFCURVE",
"413 620 CURVE SMOOTH",
"562 621 OFFCURVE",
"678 515 OFFCURVE",
"678 349 CURVE SMOOTH",
"678 181 OFFCURVE",
"560 77 OFFCURVE",
"413 77 CURVE SMOOTH"
);
},
{
closed = 1;
nodes = (
"470 741 LINE",
"401 913 LINE",
"294 913 LINE",
"377 741 LINE"
);
}
);
width = 826;
}
);
leftKerningGroup = O;
note = Ograve;
rightKerningGroup = O;
unicode = 00D2;
},
{
glyphname = Ohookabove;
lastChange = "2015-11-30 00:26:46 +0000";
layers = (
{
layerId = "BD32059E-0A74-4E00-835E-4479F7BE2418";
name = Regular;
paths = (
{
closed = 1;
nodes = (
"622 -15 OFFCURVE",
"781 131 OFFCURVE",
"781 349 CURVE SMOOTH",
"781 568 OFFCURVE",
"622 714 OFFCURVE",
"413 714 CURVE SMOOTH",
"204 714 OFFCURVE",
"45 568 OFFCURVE",
"45 349 CURVE SMOOTH",
"45 131 OFFCURVE",
"204 -15 OFFCURVE",
"413 -15 CURVE SMOOTH"
);
},
{
closed = 1;
nodes = (
"266 77 OFFCURVE",
"148 181 OFFCURVE",
"148 349 CURVE SMOOTH",
"148 515 OFFCURVE",
"264 620 OFFCURVE",
"413 620 CURVE SMOOTH",
"562 621 OFFCURVE",
"678 515 OFFCURVE",
"678 349 CURVE SMOOTH",
"678 181 OFFCURVE",
"560 77 OFFCURVE",
"413 77 CURVE SMOOTH"
);
},
{
closed = 1;
nodes = (
"456 742 LINE",
"456 776 LINE",
"516 784 OFFCURVE",
"548 822 OFFCURVE",
"548 870 CURVE SMOOTH",
"548 927 OFFCURVE",
"505 967 OFFCURVE",
"417 967 CURVE SMOOTH",
"385 967 OFFCURVE",
"350 961 OFFCURVE",
"330 954 CURVE",
"330 899 LINE",
"343 905 OFFCURVE",
"377 910 OFFCURVE",
"393 910 CURVE SMOOTH",
"439 910 OFFCURVE",
"459 897 OFFCURVE",
"459 866 CURVE SMOOTH",
"459 827 OFFCURVE",
"427 813 OFFCURVE",
"367 813 CURVE",
"367 742 LINE"
);
}
);
width = 826;
}
);
leftKerningGroup = O;
note = Ohookabove;
rightKerningGroup = O;
unicode = 1ECE;
},
{
glyphname = Ohorn;
lastChange = "2015-11-30 00:26:46 +0000";
layers = (
{
layerId = "BD32059E-0A74-4E00-835E-4479F7BE2418";
name = Regular;
paths = (
{
closed = 1;
nodes = (
"622 -15 OFFCURVE",
"781 131 OFFCURVE",
"781 349 CURVE SMOOTH",
"781 425 OFFCURVE",
"761 493 OFFCURVE",
"727 549 CURVE",
"800 568 OFFCURVE",
"845 632 OFFCURVE",
"845 706 CURVE SMOOTH",
"845 747 LINE",
"751 747 LINE",
"751 711 LINE SMOOTH",
"751 652 OFFCURVE",
"726 625 OFFCURVE",
"664 624 CURVE",
"599 681 OFFCURVE",
"511 714 OFFCURVE",
"413 714 CURVE SMOOTH",
"204 714 OFFCURVE",
"45 568 OFFCURVE",
"45 349 CURVE SMOOTH",
"45 131 OFFCURVE",
"204 -15 OFFCURVE",
"413 -15 CURVE SMOOTH"
);
},
{
closed = 1;
nodes = (
"268 80 OFFCURVE",
"151 183 OFFCURVE",
"151 349 CURVE SMOOTH",
"151 513 OFFCURVE",
"266 617 OFFCURVE",
"413 617 CURVE SMOOTH",
"560 618 OFFCURVE",
"675 513 OFFCURVE",
"675 349 CURVE SMOOTH",
"675 183 OFFCURVE",
"558 80 OFFCURVE",
"413 80 CURVE SMOOTH"
);
}
);
width = 862;
}
);
leftKerningGroup = O;
note = Ohorn;
rightKerningGroup = O;
unicode = 01A0;
},
{
glyphname = Ohornacute;
lastChange = "2015-11-30 00:26:45 +0000";
layers = (
{
layerId = "BD32059E-0A74-4E00-835E-4479F7BE2418";
name = Regular;
paths = (
{
closed = 1;
nodes = (
"622 -15 OFFCURVE",
"781 131 OFFCURVE",
"781 349 CURVE SMOOTH",
"781 425 OFFCURVE",
"761 493 OFFCURVE",
"727 549 CURVE",
"800 568 OFFCURVE",
"845 632 OFFCURVE",
"845 706 CURVE SMOOTH",
"845 747 LINE",
"751 747 LINE",
"751 711 LINE SMOOTH",
"751 652 OFFCURVE",
"726 625 OFFCURVE",
"664 624 CURVE",
"599 681 OFFCURVE",
"511 714 OFFCURVE",
"413 714 CURVE SMOOTH",
"204 714 OFFCURVE",
"45 568 OFFCURVE",
"45 349 CURVE SMOOTH",
"45 131 OFFCURVE",
"204 -15 OFFCURVE",
"413 -15 CURVE SMOOTH"
);
},
{
closed = 1;
nodes = (
"268 80 OFFCURVE",
"151 183 OFFCURVE",
"151 349 CURVE SMOOTH",
"151 513 OFFCURVE",
"266 617 OFFCURVE",
"413 617 CURVE SMOOTH",
"560 618 OFFCURVE",
"675 513 OFFCURVE",
"675 349 CURVE SMOOTH",
"675 183 OFFCURVE",
"558 80 OFFCURVE",
"413 80 CURVE SMOOTH"
);
},
{
closed = 1;
nodes = (
"463 741 LINE",
"546 913 LINE",
"439 913 LINE",
"371 741 LINE"
);
}
);
width = 865;
}
);
leftKerningGroup = O;
note = Ohornacute;
rightKerningGroup = O;
unicode = 1EDA;
},
{
glyphname = Ohorndotbelow;
lastChange = "2015-11-30 00:26:46 +0000";
layers = (
{
layerId = "BD32059E-0A74-4E00-835E-4479F7BE2418";
name = Regular;
paths = (
{
closed = 1;
nodes = (
"622 -15 OFFCURVE",
"781 131 OFFCURVE",
"781 349 CURVE SMOOTH",
"781 425 OFFCURVE",
"761 493 OFFCURVE",
"727 549 CURVE",
"800 568 OFFCURVE",
"845 632 OFFCURVE",
"845 706 CURVE SMOOTH",
"845 747 LINE",
"751 747 LINE",
"751 711 LINE SMOOTH",
"751 652 OFFCURVE",
"726 625 OFFCURVE",
"664 624 CURVE",
"599 681 OFFCURVE",
"511 714 OFFCURVE",
"413 714 CURVE SMOOTH",
"204 714 OFFCURVE",
"45 568 OFFCURVE",
"45 349 CURVE SMOOTH",
"45 131 OFFCURVE",
"204 -15 OFFCURVE",
"413 -15 CURVE SMOOTH"
);
},
{
closed = 1;
nodes = (
"442 -166 OFFCURVE",
"468 -140 OFFCURVE",
"468 -108 CURVE SMOOTH",
"468 -76 OFFCURVE",
"442 -50 OFFCURVE",
"411 -50 CURVE SMOOTH",
"379 -50 OFFCURVE",
"352 -76 OFFCURVE",
"352 -108 CURVE SMOOTH",
"352 -140 OFFCURVE",
"379 -166 OFFCURVE",
"411 -166 CURVE SMOOTH"
);
},
{
closed = 1;
nodes = (
"268 80 OFFCURVE",
"151 183 OFFCURVE",
"151 349 CURVE SMOOTH",
"151 513 OFFCURVE",
"266 617 OFFCURVE",
"413 617 CURVE SMOOTH",
"560 618 OFFCURVE",
"675 513 OFFCURVE",
"675 349 CURVE SMOOTH",
"675 183 OFFCURVE",
"558 80 OFFCURVE",
"413 80 CURVE SMOOTH"
);
}
);
width = 865;
}
);
leftKerningGroup = O;
note = Ohorndotbelow;
rightKerningGroup = O;
unicode = 1EE2;
},
{
glyphname = Ohorngrave;
lastChange = "2015-11-30 00:26:47 +0000";
layers = (
{
layerId = "BD32059E-0A74-4E00-835E-4479F7BE2418";
name = Regular;
paths = (
{
closed = 1;
nodes = (
"622 -15 OFFCURVE",
"781 131 OFFCURVE",
"781 349 CURVE SMOOTH",
"781 425 OFFCURVE",
"761 493 OFFCURVE",
"727 549 CURVE",
"800 568 OFFCURVE",
"845 632 OFFCURVE",
"845 706 CURVE SMOOTH",
"845 747 LINE",
"751 747 LINE",
"751 711 LINE SMOOTH",
"751 652 OFFCURVE",
"726 625 OFFCURVE",
"664 624 CURVE",
"599 681 OFFCURVE",
"511 714 OFFCURVE",
"413 714 CURVE SMOOTH",
"204 714 OFFCURVE",
"45 568 OFFCURVE",
"45 349 CURVE SMOOTH",
"45 131 OFFCURVE",
"204 -15 OFFCURVE",
"413 -15 CURVE SMOOTH"
);
},
{
closed = 1;
nodes = (
"268 80 OFFCURVE",
"151 183 OFFCURVE",
"151 349 CURVE SMOOTH",
"151 513 OFFCURVE",
"266 617 OFFCURVE",
"413 617 CURVE SMOOTH",
"560 618 OFFCURVE",
"675 513 OFFCURVE",
"675 349 CURVE SMOOTH",
"675 183 OFFCURVE",
"558 80 OFFCURVE",
"413 80 CURVE SMOOTH"
);
},
{
closed = 1;
nodes = (
"455 741 LINE",
"386 913 LINE",
"279 913 LINE",
"362 741 LINE"
);
}
);
width = 865;
}
);
leftKerningGroup = O;
note = Ohorngrave;
rightKerningGroup = O;
unicode = 1EDC;
},
{
glyphname = Ohornhookabove;
lastChange = "2015-11-30 00:26:44 +0000";
layers = (
{
layerId = "BD32059E-0A74-4E00-835E-4479F7BE2418";
name = Regular;
paths = (
{
closed = 1;
nodes = (
"622 -15 OFFCURVE",
"781 131 OFFCURVE",
"781 349 CURVE SMOOTH",
"781 425 OFFCURVE",
"761 493 OFFCURVE",
"727 549 CURVE",
"800 568 OFFCURVE",
"845 632 OFFCURVE",
"845 706 CURVE SMOOTH",
"845 747 LINE",
"751 747 LINE",
"751 711 LINE SMOOTH",
"751 652 OFFCURVE",
"726 625 OFFCURVE",
"664 624 CURVE",
"599 681 OFFCURVE",
"511 714 OFFCURVE",
"413 714 CURVE SMOOTH",
"204 714 OFFCURVE",
"45 568 OFFCURVE",
"45 349 CURVE SMOOTH",
"45 131 OFFCURVE",
"204 -15 OFFCURVE",
"413 -15 CURVE SMOOTH"
);
},
{
closed = 1;
nodes = (
"268 80 OFFCURVE",
"151 183 OFFCURVE",
"151 349 CURVE SMOOTH",
"151 513 OFFCURVE",
"266 617 OFFCURVE",
"413 617 CURVE SMOOTH",
"560 618 OFFCURVE",
"675 513 OFFCURVE",
"675 349 CURVE SMOOTH",
"675 183 OFFCURVE",
"558 80 OFFCURVE",
"413 80 CURVE SMOOTH"
);
},
{
closed = 1;
nodes = (
"458 742 LINE",
"458 776 LINE",
"518 784 OFFCURVE",
"550 822 OFFCURVE",
"550 870 CURVE SMOOTH",
"550 927 OFFCURVE",
"507 967 OFFCURVE",
"419 967 CURVE SMOOTH",
"387 967 OFFCURVE",
"352 961 OFFCURVE",
"332 954 CURVE",
"332 899 LINE",
"345 905 OFFCURVE",
"379 910 OFFCURVE",
"395 910 CURVE SMOOTH",
"441 910 OFFCURVE",
"461 897 OFFCURVE",
"461 866 CURVE SMOOTH",
"461 827 OFFCURVE",
"429 813 OFFCURVE",
"369 813 CURVE",
"369 742 LINE"
);
}
);
width = 865;
}
);
leftKerningGroup = O;
note = Ohornhookabove;
rightKerningGroup = O;
unicode = 1EDE;
},
{
glyphname = Ohorntilde;
lastChange = "2015-11-30 00:26:47 +0000";
layers = (
{
layerId = "BD32059E-0A74-4E00-835E-4479F7BE2418";
name = Regular;
paths = (
{
closed = 1;
nodes = (
"622 -15 OFFCURVE",
"781 131 OFFCURVE",
"781 349 CURVE SMOOTH",
"781 425 OFFCURVE",
"761 493 OFFCURVE",
"727 549 CURVE",
"800 568 OFFCURVE",
"845 632 OFFCURVE",
"845 706 CURVE SMOOTH",
"845 747 LINE",
"751 747 LINE",
"751 711 LINE SMOOTH",
"751 652 OFFCURVE",
"726 625 OFFCURVE",
"664 624 CURVE",
"599 681 OFFCURVE",
"511 714 OFFCURVE",
"413 714 CURVE SMOOTH",
"204 714 OFFCURVE",
"45 568 OFFCURVE",
"45 349 CURVE SMOOTH",
"45 131 OFFCURVE",
"204 -15 OFFCURVE",
"413 -15 CURVE SMOOTH"
);
},
{
closed = 1;
nodes = (
"268 80 OFFCURVE",
"151 183 OFFCURVE",
"151 349 CURVE SMOOTH",
"151 513 OFFCURVE",
"266 617 OFFCURVE",
"413 617 CURVE SMOOTH",
"560 618 OFFCURVE",
"675 513 OFFCURVE",
"675 349 CURVE SMOOTH",
"675 183 OFFCURVE",
"558 80 OFFCURVE",
"413 80 CURVE SMOOTH"
);
},
{
closed = 1;
nodes = (
"271 782 OFFCURVE",
"303 794 OFFCURVE",
"339 794 CURVE SMOOTH",
"403 794 OFFCURVE",
"451 744 OFFCURVE",
"524 744 CURVE SMOOTH",
"565 744 OFFCURVE",
"599 755 OFFCURVE",
"621 786 CURVE",
"621 872 LINE",
"594 833 OFFCURVE",
"561 821 OFFCURVE",
"524 821 CURVE SMOOTH",
"459 821 OFFCURVE",
"407 871 OFFCURVE",
"339 871 CURVE SMOOTH",
"299 871 OFFCURVE",
"263 859 OFFCURVE",
"241 828 CURVE",
"241 742 LINE"
);
}
);
width = 865;
}
);
leftKerningGroup = O;
note = Ohorntilde;
rightKerningGroup = O;
unicode = 1EE0;
},
{
glyphname = Ohungarumlaut;
lastChange = "2015-11-30 00:26:47 +0000";
layers = (
{
layerId = "BD32059E-0A74-4E00-835E-4479F7BE2418";
name = Regular;
paths = (
{
closed = 1;
nodes = (
"622 -15 OFFCURVE",
"781 131 OFFCURVE",
"781 349 CURVE SMOOTH",
"781 568 OFFCURVE",
"622 714 OFFCURVE",
"413 714 CURVE SMOOTH",
"204 714 OFFCURVE",
"45 568 OFFCURVE",
"45 349 CURVE SMOOTH",
"45 131 OFFCURVE",
"204 -15 OFFCURVE",
"413 -15 CURVE SMOOTH"
);
},
{
closed = 1;
nodes = (
"266 77 OFFCURVE",
"148 181 OFFCURVE",
"148 349 CURVE SMOOTH",
"148 515 OFFCURVE",
"264 620 OFFCURVE",
"413 620 CURVE SMOOTH",
"562 621 OFFCURVE",
"678 515 OFFCURVE",
"678 349 CURVE SMOOTH",
"678 181 OFFCURVE",
"560 77 OFFCURVE",
"413 77 CURVE SMOOTH"
);
},
{
closed = 1;
nodes = (
"343 741 LINE",
"426 913 LINE",
"324 913 LINE",
"256 741 LINE"
);
},
{
closed = 1;
nodes = (
"550 741 LINE",
"633 913 LINE",
"531 913 LINE",
"462 741 LINE"
);
}
);
width = 826;
}
);
leftKerningGroup = O;
note = Ohungarumlaut;
rightKerningGroup = O;
unicode = 0150;
},
{
glyphname = Omacron;
lastChange = "2015-11-30 00:26:47 +0000";
layers = (
{
layerId = "BD32059E-0A74-4E00-835E-4479F7BE2418";
name = Regular;
paths = (
{
closed = 1;
nodes = (
"622 -15 OFFCURVE",
"781 131 OFFCURVE",
"781 349 CURVE SMOOTH",
"781 568 OFFCURVE",
"622 714 OFFCURVE",
"413 714 CURVE SMOOTH",
"204 714 OFFCURVE",
"45 568 OFFCURVE",
"45 349 CURVE SMOOTH",
"45 131 OFFCURVE",
"204 -15 OFFCURVE",
"413 -15 CURVE SMOOTH"
);
},
{
closed = 1;
nodes = (
"266 77 OFFCURVE",
"148 181 OFFCURVE",
"148 349 CURVE SMOOTH",
"148 515 OFFCURVE",
"264 620 OFFCURVE",
"413 620 CURVE SMOOTH",
"562 621 OFFCURVE",
"678 515 OFFCURVE",
"678 349 CURVE SMOOTH",
"678 181 OFFCURVE",
"560 77 OFFCURVE",
"413 77 CURVE SMOOTH"
);
},
{
closed = 1;
nodes = (
"569 762 LINE",
"569 831 LINE",
"257 831 LINE",
"257 762 LINE"
);
}
);
width = 826;
}
);
leftKerningGroup = O;
note = Omacron;
rightKerningGroup = O;
unicode = 014C;
},
{
glyphname = Oslash;
lastChange = "2015-11-30 00:26:47 +0000";
layers = (
{
layerId = "BD32059E-0A74-4E00-835E-4479F7BE2418";
name = Regular;
paths = (
{
closed = 1;
nodes = (
"291 -86 LINE",
"323 -5 LINE",
"352 -11 OFFCURVE",
"382 -15 OFFCURVE",
"413 -15 CURVE SMOOTH",
"622 -15 OFFCURVE",
"781 131 OFFCURVE",
"781 349 CURVE SMOOTH",
"781 497 OFFCURVE",
"708 612 OFFCURVE",
"595 671 CURVE",
"641 784 LINE",
"541 784 LINE",
"508 703 LINE",
"478 710 OFFCURVE",
"446 714 OFFCURVE",
"413 714 CURVE SMOOTH",
"204 714 OFFCURVE",
"45 568 OFFCURVE",
"45 349 CURVE SMOOTH",
"45 199 OFFCURVE",
"121 83 OFFCURVE",
"236 25 CURVE",
"191 -86 LINE"
);
},
{
closed = 1;
nodes = (
"197 159 OFFCURVE",
"148 240 OFFCURVE",
"148 349 CURVE SMOOTH",
"148 515 OFFCURVE",
"264 620 OFFCURVE",
"413 620 CURVE SMOOTH",
"433 620 OFFCURVE",
"453 618 OFFCURVE",
"472 614 CURVE",
"271 114 LINE"
);
},
{
closed = 1;
nodes = (
"394 77 OFFCURVE",
"376 78 OFFCURVE",
"358 82 CURVE",
"559 580 LINE",
"631 535 OFFCURVE",
"678 454 OFFCURVE",
"678 349 CURVE SMOOTH",
"678 181 OFFCURVE",
"560 77 OFFCURVE",
"413 77 CURVE SMOOTH"
);
}
);
width = 826;
}
);
leftKerningGroup = O;
note = Oslash;
rightKerningGroup = O;
unicode = 00D8;
},
{
glyphname = Oslashacute;
lastChange = "2015-11-30 00:26:46 +0000";
layers = (
{
layerId = "BD32059E-0A74-4E00-835E-4479F7BE2418";
name = Regular;
paths = (
{
closed = 1;
nodes = (
"291 -86 LINE",
"323 -5 LINE",
"352 -11 OFFCURVE",
"382 -15 OFFCURVE",
"413 -15 CURVE SMOOTH",
"622 -15 OFFCURVE",
"781 131 OFFCURVE",
"781 349 CURVE SMOOTH",
"781 497 OFFCURVE",
"708 612 OFFCURVE",
"595 671 CURVE",
"641 784 LINE",
"541 784 LINE",
"508 703 LINE",
"478 710 OFFCURVE",
"446 714 OFFCURVE",
"413 714 CURVE SMOOTH",
"204 714 OFFCURVE",
"45 568 OFFCURVE",
"45 349 CURVE SMOOTH",
"45 199 OFFCURVE",
"121 83 OFFCURVE",
"236 25 CURVE",
"191 -86 LINE"
);
},
{
closed = 1;
nodes = (
"197 159 OFFCURVE",
"148 240 OFFCURVE",
"148 349 CURVE SMOOTH",
"148 515 OFFCURVE",
"264 620 OFFCURVE",
"413 620 CURVE SMOOTH",
"433 620 OFFCURVE",
"453 618 OFFCURVE",
"472 614 CURVE",
"271 114 LINE"
);
},
{
closed = 1;
nodes = (
"394 77 OFFCURVE",
"376 78 OFFCURVE",
"358 82 CURVE",
"559 580 LINE",
"631 535 OFFCURVE",
"678 454 OFFCURVE",
"678 349 CURVE SMOOTH",
"678 181 OFFCURVE",
"560 77 OFFCURVE",
"413 77 CURVE SMOOTH"
);
},
{
closed = 1;
nodes = (
"455 748 LINE",
"538 920 LINE",
"431 920 LINE",
"362 748 LINE"
);
}
);
width = 826;
}
);
leftKerningGroup = O;
note = Oslashacute;
rightKerningGroup = O;
unicode = 01FE;
},
{
glyphname = Otilde;
lastChange = "2015-11-30 00:26:45 +0000";
layers = (
{
layerId = "BD32059E-0A74-4E00-835E-4479F7BE2418";
name = Regular;
paths = (
{
closed = 1;
nodes = (
"622 -15 OFFCURVE",
"781 131 OFFCURVE",
"781 349 CURVE SMOOTH",
"781 568 OFFCURVE",
"622 714 OFFCURVE",
"413 714 CURVE SMOOTH",
"204 714 OFFCURVE",
"45 568 OFFCURVE",
"45 349 CURVE SMOOTH",
"45 131 OFFCURVE",
"204 -15 OFFCURVE",
"413 -15 CURVE SMOOTH"
);
},
{
closed = 1;
nodes = (
"266 77 OFFCURVE",
"148 181 OFFCURVE",
"148 349 CURVE SMOOTH",
"148 515 OFFCURVE",
"264 620 OFFCURVE",
"413 620 CURVE SMOOTH",
"562 621 OFFCURVE",
"678 515 OFFCURVE",
"678 349 CURVE SMOOTH",
"678 181 OFFCURVE",
"560 77 OFFCURVE",
"413 77 CURVE SMOOTH"
);
},
{
closed = 1;
nodes = (
"253 782 OFFCURVE",
"285 794 OFFCURVE",
"321 794 CURVE SMOOTH",
"385 794 OFFCURVE",
"433 744 OFFCURVE",
"506 744 CURVE SMOOTH",
"547 744 OFFCURVE",
"581 755 OFFCURVE",
"603 786 CURVE",
"603 872 LINE",
"576 833 OFFCURVE",
"543 821 OFFCURVE",
"506 821 CURVE SMOOTH",
"441 821 OFFCURVE",
"389 871 OFFCURVE",
"321 871 CURVE SMOOTH",
"281 871 OFFCURVE",
"245 859 OFFCURVE",
"223 828 CURVE",
"223 742 LINE"
);
}
);
width = 826;
}
);
leftKerningGroup = O;
note = Otilde;
rightKerningGroup = O;
unicode = 00D5;
},
{
glyphname = OE;
lastChange = "2015-11-30 00:26:46 +0000";
layers = (
{
layerId = "BD32059E-0A74-4E00-835E-4479F7BE2418";
name = Regular;
paths = (
{
closed = 1;
nodes = (
"846 0 LINE",
"846 85 LINE",
"537 85 LINE",
"537 307 LINE",
"756 307 LINE",
"756 392 LINE",
"537 392 LINE",
"537 613 LINE",
"846 613 LINE",
"846 699 LINE",
"422 699 LINE SMOOTH",
"207 699 OFFCURVE",
"45 568 OFFCURVE",
"45 349 CURVE SMOOTH",
"45 131 OFFCURVE",
"207 0 OFFCURVE",
"422 0 CURVE SMOOTH"
);
},
{
closed = 1;
nodes = (
"265 85 OFFCURVE",
"148 182 OFFCURVE",
"148 349 CURVE SMOOTH",
"148 515 OFFCURVE",
"264 613 OFFCURVE",
"415 613 CURVE SMOOTH",
"435 613 LINE",
"435 85 LINE",
"415 85 LINE SMOOTH"
);
}
);
width = 891;
}
);
leftKerningGroup = O;
note = OE;
rightKerningGroup = E;
unicode = 0152;
},
{
glyphname = P;
lastChange = "2015-11-30 00:26:46 +0000";
layers = (
{
layerId = "BD32059E-0A74-4E00-835E-4479F7BE2418";
name = Regular;
paths = (
{
closed = 1;
nodes = (
"167 0 LINE",
"167 267 LINE",
"334 267 LINE SMOOTH",
"482 267 OFFCURVE",
"578 337 OFFCURVE",
"578 482 CURVE SMOOTH",
"578 623 OFFCURVE",
"482 699 OFFCURVE",
"334 699 CURVE SMOOTH",
"65 699 LINE",
"65 0 LINE"
);
},
{
closed = 1;
nodes = (
"167 613 LINE",
"323 613 LINE SMOOTH",
"406 613 OFFCURVE",
"475 586 OFFCURVE",
"475 482 CURVE SMOOTH",
"475 379 OFFCURVE",
"406 352 OFFCURVE",
"323 352 CURVE SMOOTH",
"167 352 LINE"
);
}
);
width = 603;
}
);
note = P;
unicode = 0050;
},
{
glyphname = Thorn;
lastChange = "2015-11-30 00:26:47 +0000";
layers = (
{
layerId = "BD32059E-0A74-4E00-835E-4479F7BE2418";
name = Regular;
paths = (
{
closed = 1;
nodes = (
"167 0 LINE",
"167 141 LINE",
"340 141 LINE SMOOTH",
"488 141 OFFCURVE",
"578 205 OFFCURVE",
"578 350 CURVE SMOOTH",
"578 496 OFFCURVE",
"488 561 OFFCURVE",
"340 561 CURVE SMOOTH",
"167 561 LINE",
"167 699 LINE",
"65 699 LINE",
"65 0 LINE"
);
},
{
closed = 1;
nodes = (
"167 475 LINE",
"323 475 LINE SMOOTH",
"406 475 OFFCURVE",
"475 454 OFFCURVE",
"475 350 CURVE SMOOTH",
"475 247 OFFCURVE",
"406 226 OFFCURVE",
"323 226 CURVE SMOOTH",
"167 226 LINE"
);
}
);
width = 603;
}
);
note = Thorn;
unicode = 00DE;
},
{
glyphname = Q;
lastChange = "2015-11-30 00:26:45 +0000";
layers = (
{
layerId = "BD32059E-0A74-4E00-835E-4479F7BE2418";
name = Regular;
paths = (
{
closed = 1;
nodes = (
"792 0 LINE",
"792 88 LINE",
"641 88 LINE",
"724 137 OFFCURVE",
"781 236 OFFCURVE",
"781 351 CURVE SMOOTH",
"781 570 OFFCURVE",
"621 714 OFFCURVE",
"413 714 CURVE SMOOTH",
"204 714 OFFCURVE",
"45 570 OFFCURVE",
"45 351 CURVE SMOOTH",
"45 137 OFFCURVE",
"201 0 OFFCURVE",
"431 0 CURVE SMOOTH"
);
},
{
closed = 1;
nodes = (
"258 93 OFFCURVE",
"148 184 OFFCURVE",
"148 351 CURVE SMOOTH",
"148 516 OFFCURVE",
"265 620 OFFCURVE",
"413 620 CURVE SMOOTH",
"560 620 OFFCURVE",
"677 516 OFFCURVE",
"677 351 CURVE SMOOTH",
"677 185 OFFCURVE",
"566 93 OFFCURVE",
"413 93 CURVE SMOOTH"
);
}
);
width = 817;
}
);
leftKerningGroup = O;
note = Q;
rightKerningGroup = O;
unicode = 0051;
},
{
glyphname = R;
lastChange = "2015-11-30 00:26:46 +0000";
layers = (
{
layerId = "BD32059E-0A74-4E00-835E-4479F7BE2418";
name = Regular;
paths = (
{
closed = 1;
nodes = (
"167 0 LINE",
"167 276 LINE",
"320 276 LINE",
"469 0 LINE",
"575 0 LINE",
"421 284 LINE",
"521 309 OFFCURVE",
"578 385 OFFCURVE",
"578 487 CURVE SMOOTH",
"578 626 OFFCURVE",
"495 699 OFFCURVE",
"346 699 CURVE SMOOTH",
"65 699 LINE",
"65 0 LINE"
);
},
{
closed = 1;
nodes = (
"167 613 LINE",
"329 613 LINE SMOOTH",
"413 613 OFFCURVE",
"475 584 OFFCURVE",
"475 487 CURVE SMOOTH",
"475 402 OFFCURVE",
"415 362 OFFCURVE",
"329 362 CURVE SMOOTH",
"167 362 LINE"
);
}
);
width = 623;
}
);
note = R;
rightKerningGroup = R;
unicode = 0052;
},
{
glyphname = Racute;
lastChange = "2015-11-30 00:26:46 +0000";
layers = (
{
layerId = "BD32059E-0A74-4E00-835E-4479F7BE2418";
name = Regular;
paths = (
{
closed = 1;
nodes = (
"167 0 LINE",
"167 276 LINE",
"320 276 LINE",
"469 0 LINE",
"575 0 LINE",
"421 284 LINE",
"521 309 OFFCURVE",
"578 385 OFFCURVE",
"578 487 CURVE SMOOTH",
"578 626 OFFCURVE",
"495 699 OFFCURVE",
"346 699 CURVE SMOOTH",
"65 699 LINE",
"65 0 LINE"
);
},
{
closed = 1;
nodes = (
"167 613 LINE",
"329 613 LINE SMOOTH",
"413 613 OFFCURVE",
"475 584 OFFCURVE",
"475 487 CURVE SMOOTH",
"475 402 OFFCURVE",
"415 362 OFFCURVE",
"329 362 CURVE SMOOTH",
"167 362 LINE"
);
},
{
closed = 1;
nodes = (
"319 741 LINE",
"402 913 LINE",
"295 913 LINE",
"227 741 LINE"
);
}
);
width = 623;
}
);
note = Racute;
rightKerningGroup = R;
unicode = 0154;
},
{
glyphname = Rcaron;
lastChange = "2015-11-30 00:26:47 +0000";
layers = (
{
layerId = "BD32059E-0A74-4E00-835E-4479F7BE2418";
name = Regular;
paths = (
{
closed = 1;
nodes = (
"167 0 LINE",
"167 276 LINE",
"320 276 LINE",
"469 0 LINE",
"575 0 LINE",
"421 284 LINE",
"521 309 OFFCURVE",
"578 385 OFFCURVE",
"578 487 CURVE SMOOTH",
"578 626 OFFCURVE",
"495 699 OFFCURVE",
"346 699 CURVE SMOOTH",
"65 699 LINE",
"65 0 LINE"
);
},
{
closed = 1;
nodes = (
"167 613 LINE",
"329 613 LINE SMOOTH",
"413 613 OFFCURVE",
"475 584 OFFCURVE",
"475 487 CURVE SMOOTH",
"475 402 OFFCURVE",
"415 362 OFFCURVE",
"329 362 CURVE SMOOTH",
"167 362 LINE"
);
},
{
closed = 1;
nodes = (
"322 742 LINE",
"464 908 LINE",
"362 908 LINE",
"278 801 LINE",
"194 908 LINE",
"91 908 LINE",
"233 742 LINE"
);
}
);
width = 623;
}
);
note = Rcaron;
rightKerningGroup = R;
unicode = 0158;
},
{
glyphname = Rcommaaccent;
lastChange = "2015-11-30 00:26:44 +0000";
layers = (
{
layerId = "BD32059E-0A74-4E00-835E-4479F7BE2418";
name = Regular;
paths = (
{
closed = 1;
nodes = (
"167 0 LINE",
"167 276 LINE",
"320 276 LINE",
"469 0 LINE",
"575 0 LINE",
"421 284 LINE",
"521 309 OFFCURVE",
"578 385 OFFCURVE",
"578 487 CURVE SMOOTH",
"578 626 OFFCURVE",
"495 699 OFFCURVE",
"346 699 CURVE SMOOTH",
"65 699 LINE",
"65 0 LINE"
);
},
{
closed = 1;
nodes = (
"261 -260 LINE",
"356 -60 LINE",
"250 -60 LINE",
"169 -260 LINE"
);
},
{
closed = 1;
nodes = (
"167 613 LINE",
"329 613 LINE SMOOTH",
"413 613 OFFCURVE",
"475 584 OFFCURVE",
"475 487 CURVE SMOOTH",
"475 402 OFFCURVE",
"415 362 OFFCURVE",
"329 362 CURVE SMOOTH",
"167 362 LINE"
);
}
);
width = 623;
}
);
note = Rcommaaccent;
rightKerningGroup = R;
unicode = 0156;
},
{
glyphname = Rdotbelow;
lastChange = "2015-11-30 00:26:44 +0000";
layers = (
{
layerId = "BD32059E-0A74-4E00-835E-4479F7BE2418";
name = Regular;
paths = (
{
closed = 1;
nodes = (
"167 0 LINE",
"167 276 LINE",
"320 276 LINE",
"469 0 LINE",
"575 0 LINE",
"421 284 LINE",
"521 309 OFFCURVE",
"578 385 OFFCURVE",
"578 487 CURVE SMOOTH",
"578 626 OFFCURVE",
"495 699 OFFCURVE",
"346 699 CURVE SMOOTH",
"65 699 LINE",
"65 0 LINE"
);
},
{
closed = 1;
nodes = (
"332 -166 OFFCURVE",
"358 -140 OFFCURVE",
"358 -108 CURVE SMOOTH",
"358 -76 OFFCURVE",
"332 -50 OFFCURVE",
"301 -50 CURVE SMOOTH",
"269 -50 OFFCURVE",
"242 -76 OFFCURVE",
"242 -108 CURVE SMOOTH",
"242 -140 OFFCURVE",
"269 -166 OFFCURVE",
"301 -166 CURVE SMOOTH"
);
},
{
closed = 1;
nodes = (
"167 613 LINE",
"329 613 LINE SMOOTH",
"413 613 OFFCURVE",
"475 584 OFFCURVE",
"475 487 CURVE SMOOTH",
"475 402 OFFCURVE",
"415 362 OFFCURVE",
"329 362 CURVE SMOOTH",
"167 362 LINE"
);
}
);
width = 623;
}
);
note = Rdotbelow;
rightKerningGroup = R;
unicode = 1E5A;
},
{
glyphname = Rdotbelowmacron;
lastChange = "2015-11-30 00:26:46 +0000";
layers = (
{
layerId = "BD32059E-0A74-4E00-835E-4479F7BE2418";
name = Regular;
paths = (
{
closed = 1;
nodes = (
"167 0 LINE",
"167 276 LINE",
"320 276 LINE",
"469 0 LINE",
"575 0 LINE",
"421 284 LINE",
"521 309 OFFCURVE",
"578 385 OFFCURVE",
"578 487 CURVE SMOOTH",
"578 626 OFFCURVE",
"495 699 OFFCURVE",
"346 699 CURVE SMOOTH",
"65 699 LINE",
"65 0 LINE"
);
},
{
closed = 1;
nodes = (
"311 -166 OFFCURVE",
"337 -140 OFFCURVE",
"337 -108 CURVE SMOOTH",
"337 -76 OFFCURVE",
"311 -50 OFFCURVE",
"280 -50 CURVE SMOOTH",
"248 -50 OFFCURVE",
"221 -76 OFFCURVE",
"221 -108 CURVE SMOOTH",
"221 -140 OFFCURVE",
"248 -166 OFFCURVE",
"280 -166 CURVE SMOOTH"
);
},
{
closed = 1;
nodes = (
"167 613 LINE",
"329 613 LINE SMOOTH",
"413 613 OFFCURVE",
"475 584 OFFCURVE",
"475 487 CURVE SMOOTH",
"475 402 OFFCURVE",
"415 362 OFFCURVE",
"329 362 CURVE SMOOTH",
"167 362 LINE"
);
},
{
closed = 1;
nodes = (
"435 774 LINE",
"435 843 LINE",
"123 843 LINE",
"123 774 LINE"
);
}
);
width = 623;
}
);
note = Rdotbelowmacron;
rightKerningGroup = R;
unicode = 1E5C;
},
{
glyphname = Rlinebelow;
lastChange = "2015-11-30 00:26:45 +0000";
layers = (
{
layerId = "BD32059E-0A74-4E00-835E-4479F7BE2418";
name = Regular;
paths = (
{
closed = 1;
nodes = (
"167 0 LINE",
"167 276 LINE",
"320 276 LINE",
"469 0 LINE",
"575 0 LINE",
"421 284 LINE",
"521 309 OFFCURVE",
"578 385 OFFCURVE",
"578 487 CURVE SMOOTH",
"578 626 OFFCURVE",
"495 699 OFFCURVE",
"346 699 CURVE SMOOTH",
"65 699 LINE",
"65 0 LINE"
);
},
{
closed = 1;
nodes = (
"452 -141 LINE",
"452 -71 LINE",
"138 -71 LINE",
"138 -141 LINE"
);
},
{
closed = 1;
nodes = (
"167 613 LINE",
"329 613 LINE SMOOTH",
"413 613 OFFCURVE",
"475 584 OFFCURVE",
"475 487 CURVE SMOOTH",
"475 402 OFFCURVE",
"415 362 OFFCURVE",
"329 362 CURVE SMOOTH",
"167 362 LINE"
);
}
);
width = 623;
}
);
note = Rlinebelow;
rightKerningGroup = R;
unicode = 1E5E;
},
{
glyphname = S;
lastChange = "2015-11-30 00:26:40 +0000";
layers = (
{
layerId = "BD32059E-0A74-4E00-835E-4479F7BE2418";
name = Regular;
paths = (
{
closed = 1;
nodes = (
"431 -15 OFFCURVE",
"516 57 OFFCURVE",
"516 176 CURVE SMOOTH",
"516 292 OFFCURVE",
"449 336 OFFCURVE",
"320 388 CURVE SMOOTH",
"207 434 OFFCURVE",
"158 459 OFFCURVE",
"158 527 CURVE SMOOTH",
"158 590 OFFCURVE",
"209 627 OFFCURVE",
"306 627 CURVE SMOOTH",
"368 627 OFFCURVE",
"424 614 OFFCURVE",
"482 588 CURVE",
"482 676 LINE",
"424 702 OFFCURVE",
"366 714 OFFCURVE",
"289 714 CURVE SMOOTH",
"147 714 OFFCURVE",
"51 639 OFFCURVE",
"51 527 CURVE SMOOTH",
"51 428 OFFCURVE",
"109 370 OFFCURVE",
"238 318 CURVE SMOOTH",
"358 270 OFFCURVE",
"408 250 OFFCURVE",
"408 176 CURVE SMOOTH",
"408 109 OFFCURVE",
"359 71 OFFCURVE",
"252 71 CURVE SMOOTH",
"184 71 OFFCURVE",
"111 85 OFFCURVE",
"45 116 CURVE",
"45 24 LINE",
"95 0 OFFCURVE",
"179 -15 OFFCURVE",
"259 -15 CURVE SMOOTH"
);
}
);
width = 561;
}
);
leftKerningGroup = S;
note = S;
rightKerningGroup = S;
unicode = 0053;
},
{
glyphname = Sacute;
lastChange = "2015-11-30 00:26:46 +0000";
layers = (
{
layerId = "BD32059E-0A74-4E00-835E-4479F7BE2418";
name = Regular;
paths = (
{
closed = 1;
nodes = (
"431 -15 OFFCURVE",
"516 57 OFFCURVE",
"516 176 CURVE SMOOTH",
"516 292 OFFCURVE",
"449 336 OFFCURVE",
"320 388 CURVE SMOOTH",
"207 434 OFFCURVE",
"158 459 OFFCURVE",
"158 527 CURVE SMOOTH",
"158 590 OFFCURVE",
"209 627 OFFCURVE",
"306 627 CURVE SMOOTH",
"368 627 OFFCURVE",
"424 614 OFFCURVE",
"482 588 CURVE",
"482 676 LINE",
"424 702 OFFCURVE",
"366 714 OFFCURVE",
"289 714 CURVE SMOOTH",
"147 714 OFFCURVE",
"51 639 OFFCURVE",
"51 527 CURVE SMOOTH",
"51 428 OFFCURVE",
"109 370 OFFCURVE",
"238 318 CURVE SMOOTH",
"358 270 OFFCURVE",
"408 250 OFFCURVE",
"408 176 CURVE SMOOTH",
"408 109 OFFCURVE",
"359 71 OFFCURVE",
"252 71 CURVE SMOOTH",
"184 71 OFFCURVE",
"111 85 OFFCURVE",
"45 116 CURVE",
"45 24 LINE",
"95 0 OFFCURVE",
"179 -15 OFFCURVE",
"259 -15 CURVE SMOOTH"
);
},
{
closed = 1;
nodes = (
"323 741 LINE",
"406 913 LINE",
"299 913 LINE",
"231 741 LINE"
);
}
);
width = 561;
}
);
leftKerningGroup = S;
note = Sacute;
rightKerningGroup = S;
unicode = 015A;
},
{
glyphname = Scaron;
lastChange = "2015-11-30 00:26:47 +0000";
layers = (
{
layerId = "BD32059E-0A74-4E00-835E-4479F7BE2418";
name = Regular;
paths = (
{
closed = 1;
nodes = (
"431 -15 OFFCURVE",
"516 57 OFFCURVE",
"516 176 CURVE SMOOTH",
"516 292 OFFCURVE",
"449 336 OFFCURVE",
"320 388 CURVE SMOOTH",
"207 434 OFFCURVE",
"158 459 OFFCURVE",
"158 527 CURVE SMOOTH",
"158 590 OFFCURVE",
"209 627 OFFCURVE",
"306 627 CURVE SMOOTH",
"368 627 OFFCURVE",
"424 614 OFFCURVE",
"482 588 CURVE",
"482 676 LINE",
"424 702 OFFCURVE",
"366 714 OFFCURVE",
"289 714 CURVE SMOOTH",
"147 714 OFFCURVE",
"51 639 OFFCURVE",
"51 527 CURVE SMOOTH",
"51 428 OFFCURVE",
"109 370 OFFCURVE",
"238 318 CURVE SMOOTH",
"358 270 OFFCURVE",
"408 250 OFFCURVE",
"408 176 CURVE SMOOTH",
"408 109 OFFCURVE",
"359 71 OFFCURVE",
"252 71 CURVE SMOOTH",
"184 71 OFFCURVE",
"111 85 OFFCURVE",
"45 116 CURVE",
"45 24 LINE",
"95 0 OFFCURVE",
"179 -15 OFFCURVE",
"259 -15 CURVE SMOOTH"
);
},
{
closed = 1;
nodes = (
"338 742 LINE",
"480 908 LINE",
"378 908 LINE",
"294 801 LINE",
"210 908 LINE",
"107 908 LINE",
"249 742 LINE"
);
}
);
width = 561;
}
);
leftKerningGroup = S;
note = Scaron;
rightKerningGroup = S;
unicode = 0160;
},
{
glyphname = Scedilla;
lastChange = "2015-11-30 00:26:47 +0000";
layers = (
{
layerId = "BD32059E-0A74-4E00-835E-4479F7BE2418";
name = Regular;
paths = (
{
closed = 1;
nodes = (
"431 -15 OFFCURVE",
"516 57 OFFCURVE",
"516 176 CURVE SMOOTH",
"516 292 OFFCURVE",
"449 336 OFFCURVE",
"320 388 CURVE SMOOTH",
"207 434 OFFCURVE",
"158 459 OFFCURVE",
"158 527 CURVE SMOOTH",
"158 590 OFFCURVE",
"209 627 OFFCURVE",
"306 627 CURVE SMOOTH",
"368 627 OFFCURVE",
"424 614 OFFCURVE",
"482 588 CURVE",
"482 676 LINE",
"424 702 OFFCURVE",
"366 714 OFFCURVE",
"289 714 CURVE SMOOTH",
"147 714 OFFCURVE",
"51 639 OFFCURVE",
"51 527 CURVE SMOOTH",
"51 428 OFFCURVE",
"109 370 OFFCURVE",
"238 318 CURVE SMOOTH",
"358 270 OFFCURVE",
"408 250 OFFCURVE",
"408 176 CURVE SMOOTH",
"408 109 OFFCURVE",
"359 71 OFFCURVE",
"252 71 CURVE SMOOTH",
"184 71 OFFCURVE",
"111 85 OFFCURVE",
"45 116 CURVE",
"45 24 LINE",
"95 0 OFFCURVE",
"179 -15 OFFCURVE",
"259 -15 CURVE SMOOTH"
);
},
{
closed = 1;
nodes = (
"332 -248 OFFCURVE",
"383 -210 OFFCURVE",
"383 -151 CURVE SMOOTH",
"383 -99 OFFCURVE",
"353 -64 OFFCURVE",
"292 -56 CURVE",
"314 0 LINE",
"222 0 LINE",
"188 -89 LINE",
"263 -89 OFFCURVE",
"289 -111 OFFCURVE",
"289 -144 CURVE SMOOTH",
"289 -176 OFFCURVE",
"266 -190 OFFCURVE",
"225 -190 CURVE SMOOTH",
"206 -190 OFFCURVE",
"181 -185 OFFCURVE",
"168 -179 CURVE",
"167 -237 LINE",
"184 -244 OFFCURVE",
"217 -248 OFFCURVE",
"249 -248 CURVE SMOOTH"
);
}
);
width = 561;
}
);
leftKerningGroup = S;
note = Scedilla;
rightKerningGroup = S;
unicode = 015E;
},
{
glyphname = Scircumflex;
lastChange = "2015-11-30 00:26:46 +0000";
layers = (
{
layerId = "BD32059E-0A74-4E00-835E-4479F7BE2418";
name = Regular;
paths = (
{
closed = 1;
nodes = (
"431 -15 OFFCURVE",
"516 57 OFFCURVE",
"516 176 CURVE SMOOTH",
"516 292 OFFCURVE",
"449 336 OFFCURVE",
"320 388 CURVE SMOOTH",
"207 434 OFFCURVE",
"158 459 OFFCURVE",
"158 527 CURVE SMOOTH",
"158 590 OFFCURVE",
"209 627 OFFCURVE",
"306 627 CURVE SMOOTH",
"368 627 OFFCURVE",
"424 614 OFFCURVE",
"482 588 CURVE",
"482 676 LINE",
"424 702 OFFCURVE",
"366 714 OFFCURVE",
"289 714 CURVE SMOOTH",
"147 714 OFFCURVE",
"51 639 OFFCURVE",
"51 527 CURVE SMOOTH",
"51 428 OFFCURVE",
"109 370 OFFCURVE",
"238 318 CURVE SMOOTH",
"358 270 OFFCURVE",
"408 250 OFFCURVE",
"408 176 CURVE SMOOTH",
"408 109 OFFCURVE",
"359 71 OFFCURVE",
"252 71 CURVE SMOOTH",
"184 71 OFFCURVE",
"111 85 OFFCURVE",
"45 116 CURVE",
"45 24 LINE",
"95 0 OFFCURVE",
"179 -15 OFFCURVE",
"259 -15 CURVE SMOOTH"
);
},
{
closed = 1;
nodes = (
"198 741 LINE",
"282 848 LINE",
"366 741 LINE",
"468 741 LINE",
"326 907 LINE",
"237 907 LINE",
"95 741 LINE"
);
}
);
width = 561;
}
);
leftKerningGroup = S;
note = Scircumflex;
rightKerningGroup = S;
unicode = 015C;
},
{
glyphname = Scommaaccent;
lastChange = "2015-11-30 00:26:46 +0000";
layers = (
{
layerId = "BD32059E-0A74-4E00-835E-4479F7BE2418";
name = Regular;
paths = (
{
closed = 1;
nodes = (
"431 -15 OFFCURVE",
"516 57 OFFCURVE",
"516 176 CURVE SMOOTH",
"516 292 OFFCURVE",
"449 336 OFFCURVE",
"320 388 CURVE SMOOTH",
"207 434 OFFCURVE",
"158 459 OFFCURVE",
"158 527 CURVE SMOOTH",
"158 590 OFFCURVE",
"209 627 OFFCURVE",
"306 627 CURVE SMOOTH",
"368 627 OFFCURVE",
"424 614 OFFCURVE",
"482 588 CURVE",
"482 676 LINE",
"424 702 OFFCURVE",
"366 714 OFFCURVE",
"289 714 CURVE SMOOTH",
"147 714 OFFCURVE",
"51 639 OFFCURVE",
"51 527 CURVE SMOOTH",
"51 428 OFFCURVE",
"109 370 OFFCURVE",
"238 318 CURVE SMOOTH",
"358 270 OFFCURVE",
"408 250 OFFCURVE",
"408 176 CURVE SMOOTH",
"408 109 OFFCURVE",
"359 71 OFFCURVE",
"252 71 CURVE SMOOTH",
"184 71 OFFCURVE",
"111 85 OFFCURVE",
"45 116 CURVE",
"45 24 LINE",
"95 0 OFFCURVE",
"179 -15 OFFCURVE",
"259 -15 CURVE SMOOTH"
);
},
{
closed = 1;
nodes = (
"233 -259 LINE",
"328 -60 LINE",
"222 -60 LINE",
"140 -259 LINE"
);
}
);
width = 561;
}
);
leftKerningGroup = S;
note = Scommaaccent;
rightKerningGroup = S;
unicode = 0218;
},
{
glyphname = Sdotaccent;
lastChange = "2015-11-30 00:26:46 +0000";
layers = (
{
layerId = "BD32059E-0A74-4E00-835E-4479F7BE2418";
name = Regular;
paths = (
{
closed = 1;
nodes = (
"431 -15 OFFCURVE",
"516 57 OFFCURVE",
"516 176 CURVE SMOOTH",
"516 292 OFFCURVE",
"449 336 OFFCURVE",
"320 388 CURVE SMOOTH",
"207 434 OFFCURVE",
"158 459 OFFCURVE",
"158 527 CURVE SMOOTH",
"158 590 OFFCURVE",
"209 627 OFFCURVE",
"306 627 CURVE SMOOTH",
"368 627 OFFCURVE",
"424 614 OFFCURVE",
"482 588 CURVE",
"482 676 LINE",
"424 702 OFFCURVE",
"366 714 OFFCURVE",
"289 714 CURVE SMOOTH",
"147 714 OFFCURVE",
"51 639 OFFCURVE",
"51 527 CURVE SMOOTH",
"51 428 OFFCURVE",
"109 370 OFFCURVE",
"238 318 CURVE SMOOTH",
"358 270 OFFCURVE",
"408 250 OFFCURVE",
"408 176 CURVE SMOOTH",
"408 109 OFFCURVE",
"359 71 OFFCURVE",
"252 71 CURVE SMOOTH",
"184 71 OFFCURVE",
"111 85 OFFCURVE",
"45 116 CURVE",
"45 24 LINE",
"95 0 OFFCURVE",
"179 -15 OFFCURVE",
"259 -15 CURVE SMOOTH"
);
},
{
closed = 1;
nodes = (
"322 741 OFFCURVE",
"348 767 OFFCURVE",
"348 799 CURVE SMOOTH",
"348 831 OFFCURVE",
"322 857 OFFCURVE",
"291 857 CURVE SMOOTH",
"259 857 OFFCURVE",
"232 831 OFFCURVE",
"232 799 CURVE SMOOTH",
"232 767 OFFCURVE",
"259 741 OFFCURVE",
"291 741 CURVE SMOOTH"
);
}
);
width = 561;
}
);
leftKerningGroup = S;
note = Sdotaccent;
rightKerningGroup = S;
unicode = 1E60;
},
{
glyphname = Sdotbelow;
lastChange = "2015-11-30 00:26:47 +0000";
layers = (
{
layerId = "BD32059E-0A74-4E00-835E-4479F7BE2418";
name = Regular;
paths = (
{
closed = 1;
nodes = (
"431 -15 OFFCURVE",
"516 57 OFFCURVE",
"516 176 CURVE SMOOTH",
"516 292 OFFCURVE",
"449 336 OFFCURVE",
"320 388 CURVE SMOOTH",
"207 434 OFFCURVE",
"158 459 OFFCURVE",
"158 527 CURVE SMOOTH",
"158 590 OFFCURVE",
"209 627 OFFCURVE",
"306 627 CURVE SMOOTH",
"368 627 OFFCURVE",
"424 614 OFFCURVE",
"482 588 CURVE",
"482 676 LINE",
"424 702 OFFCURVE",
"366 714 OFFCURVE",
"289 714 CURVE SMOOTH",
"147 714 OFFCURVE",
"51 639 OFFCURVE",
"51 527 CURVE SMOOTH",
"51 428 OFFCURVE",
"109 370 OFFCURVE",
"238 318 CURVE SMOOTH",
"358 270 OFFCURVE",
"408 250 OFFCURVE",
"408 176 CURVE SMOOTH",
"408 109 OFFCURVE",
"359 71 OFFCURVE",
"252 71 CURVE SMOOTH",
"184 71 OFFCURVE",
"111 85 OFFCURVE",
"45 116 CURVE",
"45 24 LINE",
"95 0 OFFCURVE",
"179 -15 OFFCURVE",
"259 -15 CURVE SMOOTH"
);
},
{
closed = 1;
nodes = (
"300 -166 OFFCURVE",
"326 -140 OFFCURVE",
"326 -108 CURVE SMOOTH",
"326 -76 OFFCURVE",
"300 -50 OFFCURVE",
"269 -50 CURVE SMOOTH",
"237 -50 OFFCURVE",
"210 -76 OFFCURVE",
"210 -108 CURVE SMOOTH",
"210 -140 OFFCURVE",
"237 -166 OFFCURVE",
"269 -166 CURVE SMOOTH"
);
}
);
width = 561;
}
);
leftKerningGroup = S;
note = Sdotbelow;
rightKerningGroup = S;
unicode = 1E62;
},
{
glyphname = Germandbls;
lastChange = "2015-11-30 00:26:40 +0000";
layers = (
{
layerId = "BD32059E-0A74-4E00-835E-4479F7BE2418";
name = Regular;
paths = (
{
closed = 1;
nodes = (
"506 -15 OFFCURVE",
"581 74 OFFCURVE",
"581 198 CURVE SMOOTH",
"581 311 OFFCURVE",
"525 376 OFFCURVE",
"404 390 CURVE",
"526 511 LINE",
"521 621 OFFCURVE",
"445 714 OFFCURVE",
"295 714 CURVE SMOOTH",
"144 714 OFFCURVE",
"60 628 OFFCURVE",
"60 469 CURVE SMOOTH",
"60 0 LINE",
"162 0 LINE",
"162 473 LINE SMOOTH",
"162 577 OFFCURVE",
"220 620 OFFCURVE",
"295 620 CURVE SMOOTH",
"364 620 OFFCURVE",
"409 581 OFFCURVE",
"417 528 CURVE",
"276 386 LINE",
"276 325 LINE",
"317 325 LINE SMOOTH",
"403 325 OFFCURVE",
"478 297 OFFCURVE",
"478 201 CURVE SMOOTH",
"478 119 OFFCURVE",
"430 77 OFFCURVE",
"336 77 CURVE SMOOTH",
"292 77 OFFCURVE",
"258 83 OFFCURVE",
"225 98 CURVE",
"225 4 LINE",
"259 -10 OFFCURVE",
"308 -15 OFFCURVE",
"357 -15 CURVE SMOOTH"
);
}
);
width = 626;
}
);
note = uni1E9E;
unicode = 1E9E;
},
{
glyphname = Schwa;
lastChange = "2015-11-30 00:26:45 +0000";
layers = (
{
layerId = "BD32059E-0A74-4E00-835E-4479F7BE2418";
name = Regular;
paths = (
{
closed = 1;
nodes = (
"650 -15 OFFCURVE",
"778 129 OFFCURVE",
"778 350 CURVE SMOOTH",
"778 581 OFFCURVE",
"630 714 OFFCURVE",
"375 714 CURVE SMOOTH",
"277 714 OFFCURVE",
"171 693 OFFCURVE",
"112 669 CURVE",
"112 582 LINE",
"176 608 OFFCURVE",
"273 626 OFFCURVE",
"362 626 CURVE SMOOTH",
"549 626 OFFCURVE",
"659 539 OFFCURVE",
"669 385 CURVE",
"45 385 LINE",
"45 333 LINE SMOOTH",
"45 137 OFFCURVE",
"166 -15 OFFCURVE",
"410 -15 CURVE SMOOTH"
);
},
{
closed = 1;
nodes = (
"228 71 OFFCURVE",
"149 170 OFFCURVE",
"144 307 CURVE",
"670 307 LINE",
"664 171 OFFCURVE",
"584 71 OFFCURVE",
"408 71 CURVE SMOOTH"
);
}
);
width = 823;
}
);
note = uni018F;
unicode = 018F;
},
{
glyphname = T;
lastChange = "2015-11-30 00:26:40 +0000";
layers = (
{
layerId = "BD32059E-0A74-4E00-835E-4479F7BE2418";
name = Regular;
paths = (
{
closed = 1;
nodes = (
"345 0 LINE",
"345 613 LINE",
"562 613 LINE",
"562 699 LINE",
"25 699 LINE",
"25 613 LINE",
"242 613 LINE",
"242 0 LINE"
);
}
);
width = 587;
}
);
leftKerningGroup = T;
note = T;
rightKerningGroup = T;
unicode = 0054;
},
{
glyphname = Tbar;
lastChange = "2015-11-30 00:26:40 +0000";
layers = (
{
layerId = "BD32059E-0A74-4E00-835E-4479F7BE2418";
name = Regular;
paths = (
{
closed = 1;
nodes = (
"346 0 LINE",
"346 292 LINE",
"471 292 LINE",
"471 378 LINE",
"346 378 LINE",
"346 610 LINE",
"562 610 LINE",
"562 699 LINE",
"25 699 LINE",
"25 610 LINE",
"241 610 LINE",
"241 378 LINE",
"116 378 LINE",
"116 292 LINE",
"241 292 LINE",
"241 0 LINE"
);
}
);
width = 587;
}
);
leftKerningGroup = T;
note = Tbar;
rightKerningGroup = T;
unicode = 0166;
},
{
glyphname = Tcaron;
lastChange = "2015-11-30 00:26:46 +0000";
layers = (
{
layerId = "BD32059E-0A74-4E00-835E-4479F7BE2418";
name = Regular;
paths = (
{
closed = 1;
nodes = (
"345 0 LINE",
"345 613 LINE",
"562 613 LINE",
"562 699 LINE",
"25 699 LINE",
"25 613 LINE",
"242 613 LINE",
"242 0 LINE"
);
},
{
closed = 1;
nodes = (
"338 742 LINE",
"480 908 LINE",
"378 908 LINE",
"294 801 LINE",
"210 908 LINE",
"107 908 LINE",
"249 742 LINE"
);
}
);
width = 587;
}
);
leftKerningGroup = T;
note = Tcaron;
rightKerningGroup = T;
unicode = 0164;
},
{
glyphname = Tcedilla;
lastChange = "2015-11-30 00:26:44 +0000";
layers = (
{
layerId = "BD32059E-0A74-4E00-835E-4479F7BE2418";
name = Regular;
paths = (
{
closed = 1;
nodes = (
"345 0 LINE",
"345 613 LINE",
"562 613 LINE",
"562 699 LINE",
"25 699 LINE",
"25 613 LINE",
"242 613 LINE",
"242 0 LINE"
);
},
{
closed = 1;
nodes = (
"358 -248 OFFCURVE",
"409 -210 OFFCURVE",
"409 -151 CURVE SMOOTH",
"409 -99 OFFCURVE",
"379 -64 OFFCURVE",
"318 -56 CURVE",
"340 0 LINE",
"248 0 LINE",
"214 -89 LINE",
"289 -89 OFFCURVE",
"315 -111 OFFCURVE",
"315 -144 CURVE SMOOTH",
"315 -176 OFFCURVE",
"292 -190 OFFCURVE",
"251 -190 CURVE SMOOTH",
"232 -190 OFFCURVE",
"207 -185 OFFCURVE",
"194 -179 CURVE",
"193 -237 LINE",
"210 -244 OFFCURVE",
"243 -248 OFFCURVE",
"275 -248 CURVE SMOOTH"
);
}
);
width = 587;
}
);
leftKerningGroup = T;
note = Tcedilla;
rightKerningGroup = T;
unicode = 0162;
},
{
glyphname = Tcommaaccent;
lastChange = "2015-11-30 00:26:47 +0000";
layers = (
{
layerId = "BD32059E-0A74-4E00-835E-4479F7BE2418";
name = Regular;
paths = (
{
closed = 1;
nodes = (
"345 0 LINE",
"345 613 LINE",
"562 613 LINE",
"562 699 LINE",
"25 699 LINE",
"25 613 LINE",
"242 613 LINE",
"242 0 LINE"
);
},
{
closed = 1;
nodes = (
"249 -260 LINE",
"344 -60 LINE",
"238 -60 LINE",
"157 -260 LINE"
);
}
);
width = 587;
}
);
leftKerningGroup = T;
note = Tcommaaccent;
rightKerningGroup = T;
unicode = 021A;
},
{
glyphname = Tdotbelow;
lastChange = "2015-11-30 00:26:44 +0000";
layers = (
{
layerId = "BD32059E-0A74-4E00-835E-4479F7BE2418";
name = Regular;
paths = (
{
closed = 1;
nodes = (
"345 0 LINE",
"345 613 LINE",
"562 613 LINE",
"562 699 LINE",
"25 699 LINE",
"25 613 LINE",
"242 613 LINE",
"242 0 LINE"
);
},
{
closed = 1;
nodes = (
"325 -166 OFFCURVE",
"351 -140 OFFCURVE",
"351 -108 CURVE SMOOTH",
"351 -76 OFFCURVE",
"325 -50 OFFCURVE",
"294 -50 CURVE SMOOTH",
"262 -50 OFFCURVE",
"235 -76 OFFCURVE",
"235 -108 CURVE SMOOTH",
"235 -140 OFFCURVE",
"262 -166 OFFCURVE",
"294 -166 CURVE SMOOTH"
);
}
);
width = 587;
}
);
leftKerningGroup = T;
note = Tdotbelow;
rightKerningGroup = T;
unicode = 1E6C;
},
{
glyphname = Tlinebelow;
lastChange = "2015-11-30 00:26:47 +0000";
layers = (
{
layerId = "BD32059E-0A74-4E00-835E-4479F7BE2418";
name = Regular;
paths = (
{
closed = 1;
nodes = (
"345 0 LINE",
"345 613 LINE",
"562 613 LINE",
"562 699 LINE",
"25 699 LINE",
"25 613 LINE",
"242 613 LINE",
"242 0 LINE"
);
},
{
closed = 1;
nodes = (
"450 -141 LINE",
"450 -71 LINE",
"136 -71 LINE",
"136 -141 LINE"
);
}
);
width = 587;
}
);
leftKerningGroup = T;
note = Tlinebelow;
rightKerningGroup = T;
unicode = 1E6E;
},
{
glyphname = U;
lastChange = "2015-11-30 00:26:40 +0000";
layers = (
{
layerId = "BD32059E-0A74-4E00-835E-4479F7BE2418";
name = Regular;
paths = (
{
closed = 1;
nodes = (
"544 -15 OFFCURVE",
"637 95 OFFCURVE",
"637 261 CURVE SMOOTH",
"637 699 LINE",
"535 699 LINE",
"535 257 LINE SMOOTH",
"535 135 OFFCURVE",
"460 77 OFFCURVE",
"349 77 CURVE SMOOTH",
"237 77 OFFCURVE",
"162 135 OFFCURVE",
"162 257 CURVE SMOOTH",
"162 699 LINE",
"60 699 LINE",
"60 261 LINE SMOOTH",
"60 95 OFFCURVE",
"153 -15 OFFCURVE",
"349 -15 CURVE SMOOTH"
);
}
);
width = 697;
}
);
leftKerningGroup = U;
note = U;
rightKerningGroup = U;
unicode = 0055;
},
{
glyphname = Uacute;
lastChange = "2015-11-30 00:26:46 +0000";
layers = (
{
layerId = "BD32059E-0A74-4E00-835E-4479F7BE2418";
name = Regular;
paths = (
{
closed = 1;
nodes = (
"544 -15 OFFCURVE",
"637 95 OFFCURVE",
"637 261 CURVE SMOOTH",
"637 699 LINE",
"535 699 LINE",
"535 257 LINE SMOOTH",
"535 135 OFFCURVE",
"460 77 OFFCURVE",
"349 77 CURVE SMOOTH",
"237 77 OFFCURVE",
"162 135 OFFCURVE",
"162 257 CURVE SMOOTH",
"162 699 LINE",
"60 699 LINE",
"60 261 LINE SMOOTH",
"60 95 OFFCURVE",
"153 -15 OFFCURVE",
"349 -15 CURVE SMOOTH"
);
},
{
closed = 1;
nodes = (
"387 741 LINE",
"470 913 LINE",
"363 913 LINE",
"295 741 LINE"
);
}
);
width = 697;
}
);
leftKerningGroup = U;
note = Uacute;
rightKerningGroup = U;
unicode = 00DA;
},
{
glyphname = Ubreve;
lastChange = "2015-11-30 00:26:47 +0000";
layers = (
{
layerId = "BD32059E-0A74-4E00-835E-4479F7BE2418";
name = Regular;
paths = (
{
closed = 1;
nodes = (
"544 -15 OFFCURVE",
"637 95 OFFCURVE",
"637 261 CURVE SMOOTH",
"637 699 LINE",
"535 699 LINE",
"535 257 LINE SMOOTH",
"535 135 OFFCURVE",
"460 77 OFFCURVE",
"349 77 CURVE SMOOTH",
"237 77 OFFCURVE",
"162 135 OFFCURVE",
"162 257 CURVE SMOOTH",
"162 699 LINE",
"60 699 LINE",
"60 261 LINE SMOOTH",
"60 95 OFFCURVE",
"153 -15 OFFCURVE",
"349 -15 CURVE SMOOTH"
);
},
{
closed = 1;
nodes = (
"442 742 OFFCURVE",
"499 800 OFFCURVE",
"499 882 CURVE",
"422 882 LINE",
"422 837 OFFCURVE",
"395 811 OFFCURVE",
"349 811 CURVE SMOOTH",
"303 811 OFFCURVE",
"276 837 OFFCURVE",
"276 882 CURVE",
"198 882 LINE",
"198 800 OFFCURVE",
"255 742 OFFCURVE",
"349 742 CURVE SMOOTH"
);
}
);
width = 697;
}
);
leftKerningGroup = U;
note = Ubreve;
rightKerningGroup = U;
unicode = 016C;
},
{
glyphname = Ucaron;
lastChange = "2015-11-30 00:26:45 +0000";
layers = (
{
layerId = "BD32059E-0A74-4E00-835E-4479F7BE2418";
name = Regular;
paths = (
{
closed = 1;
nodes = (
"544 -15 OFFCURVE",
"637 95 OFFCURVE",
"637 261 CURVE SMOOTH",
"637 699 LINE",
"535 699 LINE",
"535 257 LINE SMOOTH",
"535 135 OFFCURVE",
"460 77 OFFCURVE",
"349 77 CURVE SMOOTH",
"237 77 OFFCURVE",
"162 135 OFFCURVE",
"162 257 CURVE SMOOTH",
"162 699 LINE",
"60 699 LINE",
"60 261 LINE SMOOTH",
"60 95 OFFCURVE",
"153 -15 OFFCURVE",
"349 -15 CURVE SMOOTH"
);
},
{
closed = 1;
nodes = (
"393 742 LINE",
"535 908 LINE",
"433 908 LINE",
"349 801 LINE",
"265 908 LINE",
"162 908 LINE",
"304 742 LINE"
);
}
);
width = 697;
}
);
leftKerningGroup = U;
note = Ucaron;
rightKerningGroup = U;
unicode = 01D3;
},
{
glyphname = Ucircumflex;
lastChange = "2015-11-30 00:26:47 +0000";
layers = (
{
layerId = "BD32059E-0A74-4E00-835E-4479F7BE2418";
name = Regular;
paths = (
{
closed = 1;
nodes = (
"544 -15 OFFCURVE",
"637 95 OFFCURVE",
"637 261 CURVE SMOOTH",
"637 699 LINE",
"535 699 LINE",
"535 257 LINE SMOOTH",
"535 135 OFFCURVE",
"460 77 OFFCURVE",
"349 77 CURVE SMOOTH",
"237 77 OFFCURVE",
"162 135 OFFCURVE",
"162 257 CURVE SMOOTH",
"162 699 LINE",
"60 699 LINE",
"60 261 LINE SMOOTH",
"60 95 OFFCURVE",
"153 -15 OFFCURVE",
"349 -15 CURVE SMOOTH"
);
},
{
closed = 1;
nodes = (
"265 741 LINE",
"349 848 LINE",
"433 741 LINE",
"535 741 LINE",
"393 907 LINE",
"304 907 LINE",
"162 741 LINE"
);
}
);
width = 697;
}
);
leftKerningGroup = U;
note = Ucircumflex;
rightKerningGroup = U;
unicode = 00DB;
},
{
glyphname = Udieresis;
lastChange = "2015-11-30 00:26:45 +0000";
layers = (
{
layerId = "BD32059E-0A74-4E00-835E-4479F7BE2418";
name = Regular;
paths = (
{
closed = 1;
nodes = (
"544 -15 OFFCURVE",
"637 95 OFFCURVE",
"637 261 CURVE SMOOTH",
"637 699 LINE",
"535 699 LINE",
"535 257 LINE SMOOTH",
"535 135 OFFCURVE",
"460 77 OFFCURVE",
"349 77 CURVE SMOOTH",
"237 77 OFFCURVE",
"162 135 OFFCURVE",
"162 257 CURVE SMOOTH",
"162 699 LINE",
"60 699 LINE",
"60 261 LINE SMOOTH",
"60 95 OFFCURVE",
"153 -15 OFFCURVE",
"349 -15 CURVE SMOOTH"
);
},
{
closed = 1;
nodes = (
"266 741 OFFCURVE",
"292 767 OFFCURVE",
"292 799 CURVE SMOOTH",
"292 831 OFFCURVE",
"266 857 OFFCURVE",
"235 857 CURVE SMOOTH",
"203 857 OFFCURVE",
"176 831 OFFCURVE",
"176 799 CURVE SMOOTH",
"176 767 OFFCURVE",
"203 741 OFFCURVE",
"235 741 CURVE SMOOTH"
);
},
{
closed = 1;
nodes = (
"493 741 OFFCURVE",
"519 767 OFFCURVE",
"519 799 CURVE SMOOTH",
"519 831 OFFCURVE",
"493 857 OFFCURVE",
"462 857 CURVE SMOOTH",
"430 857 OFFCURVE",
"403 831 OFFCURVE",
"403 799 CURVE SMOOTH",
"403 767 OFFCURVE",
"430 741 OFFCURVE",
"462 741 CURVE SMOOTH"
);
}
);
width = 697;
}
);
leftKerningGroup = U;
note = Udieresis;
rightKerningGroup = U;
unicode = 00DC;
},
{
glyphname = Udieresisacute;
lastChange = "2015-11-30 00:26:46 +0000";
layers = (
{
layerId = "BD32059E-0A74-4E00-835E-4479F7BE2418";
name = Regular;
paths = (
{
closed = 1;
nodes = (
"544 -15 OFFCURVE",
"637 95 OFFCURVE",
"637 261 CURVE SMOOTH",
"637 699 LINE",
"535 699 LINE",
"535 257 LINE SMOOTH",
"535 135 OFFCURVE",
"460 77 OFFCURVE",
"349 77 CURVE SMOOTH",
"237 77 OFFCURVE",
"162 135 OFFCURVE",
"162 257 CURVE SMOOTH",
"162 699 LINE",
"60 699 LINE",
"60 261 LINE SMOOTH",
"60 95 OFFCURVE",
"153 -15 OFFCURVE",
"349 -15 CURVE SMOOTH"
);
},
{
closed = 1;
nodes = (
"263 749 OFFCURVE",
"290 775 OFFCURVE",
"290 807 CURVE SMOOTH",
"290 839 OFFCURVE",
"263 865 OFFCURVE",
"232 865 CURVE SMOOTH",
"201 865 OFFCURVE",
"174 839 OFFCURVE",
"174 807 CURVE SMOOTH",
"174 775 OFFCURVE",
"201 749 OFFCURVE",
"232 749 CURVE SMOOTH"
);
},
{
closed = 1;
nodes = (
"500 749 OFFCURVE",
"527 775 OFFCURVE",
"527 807 CURVE SMOOTH",
"527 839 OFFCURVE",
"500 865 OFFCURVE",
"469 865 CURVE SMOOTH",
"438 865 OFFCURVE",
"411 839 OFFCURVE",
"411 807 CURVE SMOOTH",
"411 775 OFFCURVE",
"438 749 OFFCURVE",
"469 749 CURVE SMOOTH"
);
},
{
closed = 1;
nodes = (
"385 846 LINE",
"455 971 LINE",
"365 971 LINE",
"308 846 LINE"
);
}
);
width = 697;
}
);
leftKerningGroup = U;
note = Udieresisacute;
rightKerningGroup = U;
unicode = 01D7;
},
{
glyphname = Udieresiscaron;
lastChange = "2015-11-30 00:26:46 +0000";
layers = (
{
layerId = "BD32059E-0A74-4E00-835E-4479F7BE2418";
name = Regular;
paths = (
{
closed = 1;
nodes = (
"544 -15 OFFCURVE",
"637 95 OFFCURVE",
"637 261 CURVE SMOOTH",
"637 699 LINE",
"535 699 LINE",
"535 257 LINE SMOOTH",
"535 135 OFFCURVE",
"460 77 OFFCURVE",
"349 77 CURVE SMOOTH",
"237 77 OFFCURVE",
"162 135 OFFCURVE",
"162 257 CURVE SMOOTH",
"162 699 LINE",
"60 699 LINE",
"60 261 LINE SMOOTH",
"60 95 OFFCURVE",
"153 -15 OFFCURVE",
"349 -15 CURVE SMOOTH"
);
},
{
closed = 1;
nodes = (
"260 741 OFFCURVE",
"287 767 OFFCURVE",
"287 799 CURVE SMOOTH",
"287 831 OFFCURVE",
"260 857 OFFCURVE",
"229 857 CURVE SMOOTH",
"198 857 OFFCURVE",
"171 831 OFFCURVE",
"171 799 CURVE SMOOTH",
"171 767 OFFCURVE",
"198 741 OFFCURVE",
"229 741 CURVE SMOOTH"
);
},
{
closed = 1;
nodes = (
"386 843 LINE",
"505 968 LINE",
"420 968 LINE",
"349 890 LINE",
"278 968 LINE",
"193 968 LINE",
"312 843 LINE"
);
},
{
closed = 1;
nodes = (
"497 741 OFFCURVE",
"524 767 OFFCURVE",
"524 799 CURVE SMOOTH",
"524 831 OFFCURVE",
"497 857 OFFCURVE",
"466 857 CURVE SMOOTH",
"435 857 OFFCURVE",
"408 831 OFFCURVE",
"408 799 CURVE SMOOTH",
"408 767 OFFCURVE",
"435 741 OFFCURVE",
"466 741 CURVE SMOOTH"
);
}
);
width = 697;
}
);
leftKerningGroup = U;
note = Udieresiscaron;
rightKerningGroup = U;
unicode = 01D9;
},
{
glyphname = Udieresisgrave;
lastChange = "2015-11-30 00:26:46 +0000";
layers = (
{
layerId = "BD32059E-0A74-4E00-835E-4479F7BE2418";
name = Regular;
paths = (
{
closed = 1;
nodes = (
"544 -15 OFFCURVE",
"637 95 OFFCURVE",
"637 261 CURVE SMOOTH",
"637 699 LINE",
"535 699 LINE",
"535 257 LINE SMOOTH",
"535 135 OFFCURVE",
"460 77 OFFCURVE",
"349 77 CURVE SMOOTH",
"237 77 OFFCURVE",
"162 135 OFFCURVE",
"162 257 CURVE SMOOTH",
"162 699 LINE",
"60 699 LINE",
"60 261 LINE SMOOTH",
"60 95 OFFCURVE",
"153 -15 OFFCURVE",
"349 -15 CURVE SMOOTH"
);
},
{
closed = 1;
nodes = (
"263 741 OFFCURVE",
"290 767 OFFCURVE",
"290 799 CURVE SMOOTH",
"290 831 OFFCURVE",
"263 857 OFFCURVE",
"232 857 CURVE SMOOTH",
"201 857 OFFCURVE",
"174 831 OFFCURVE",
"174 799 CURVE SMOOTH",
"174 767 OFFCURVE",
"201 741 OFFCURVE",
"232 741 CURVE SMOOTH"
);
},
{
closed = 1;
nodes = (
"393 838 LINE",
"336 963 LINE",
"246 963 LINE",
"316 838 LINE"
);
},
{
closed = 1;
nodes = (
"500 741 OFFCURVE",
"527 767 OFFCURVE",
"527 799 CURVE SMOOTH",
"527 831 OFFCURVE",
"500 857 OFFCURVE",
"469 857 CURVE SMOOTH",
"438 857 OFFCURVE",
"411 831 OFFCURVE",
"411 799 CURVE SMOOTH",
"411 767 OFFCURVE",
"438 741 OFFCURVE",
"469 741 CURVE SMOOTH"
);
}
);
width = 697;
}
);
leftKerningGroup = U;
note = Udieresisgrave;
rightKerningGroup = U;
unicode = 01DB;
},
{
glyphname = Udieresismacron;
lastChange = "2015-11-30 00:26:46 +0000";
layers = (
{
layerId = "BD32059E-0A74-4E00-835E-4479F7BE2418";
name = Regular;
paths = (
{
closed = 1;
nodes = (
"544 -15 OFFCURVE",
"637 95 OFFCURVE",
"637 261 CURVE SMOOTH",
"637 699 LINE",
"535 699 LINE",
"535 257 LINE SMOOTH",
"535 135 OFFCURVE",
"460 77 OFFCURVE",
"349 77 CURVE SMOOTH",
"237 77 OFFCURVE",
"162 135 OFFCURVE",
"162 257 CURVE SMOOTH",
"162 699 LINE",
"60 699 LINE",
"60 261 LINE SMOOTH",
"60 95 OFFCURVE",
"153 -15 OFFCURVE",
"349 -15 CURVE SMOOTH"
);
},
{
closed = 1;
nodes = (
"266 741 OFFCURVE",
"292 767 OFFCURVE",
"292 799 CURVE SMOOTH",
"292 831 OFFCURVE",
"266 857 OFFCURVE",
"235 857 CURVE SMOOTH",
"203 857 OFFCURVE",
"176 831 OFFCURVE",
"176 799 CURVE SMOOTH",
"176 767 OFFCURVE",
"203 741 OFFCURVE",
"235 741 CURVE SMOOTH"
);
},
{
closed = 1;
nodes = (
"493 741 OFFCURVE",
"519 767 OFFCURVE",
"519 799 CURVE SMOOTH",
"519 831 OFFCURVE",
"493 857 OFFCURVE",
"462 857 CURVE SMOOTH",
"430 857 OFFCURVE",
"403 831 OFFCURVE",
"403 799 CURVE SMOOTH",
"403 767 OFFCURVE",
"430 741 OFFCURVE",
"462 741 CURVE SMOOTH"
);
},
{
closed = 1;
nodes = (
"504 921 LINE",
"504 990 LINE",
"192 990 LINE",
"192 921 LINE"
);
}
);
width = 697;
}
);
leftKerningGroup = U;
note = Udieresismacron;
rightKerningGroup = U;
unicode = 01D5;
},
{
glyphname = Udotbelow;
lastChange = "2015-11-30 00:26:46 +0000";
layers = (
{
layerId = "BD32059E-0A74-4E00-835E-4479F7BE2418";
name = Regular;
paths = (
{
closed = 1;
nodes = (
"544 -15 OFFCURVE",
"637 95 OFFCURVE",
"637 261 CURVE SMOOTH",
"637 699 LINE",
"535 699 LINE",
"535 257 LINE SMOOTH",
"535 135 OFFCURVE",
"460 77 OFFCURVE",
"349 77 CURVE SMOOTH",
"237 77 OFFCURVE",
"162 135 OFFCURVE",
"162 257 CURVE SMOOTH",
"162 699 LINE",
"60 699 LINE",
"60 261 LINE SMOOTH",
"60 95 OFFCURVE",
"153 -15 OFFCURVE",
"349 -15 CURVE SMOOTH"
);
},
{
closed = 1;
nodes = (
"380 -166 OFFCURVE",
"406 -140 OFFCURVE",
"406 -108 CURVE SMOOTH",
"406 -76 OFFCURVE",
"380 -50 OFFCURVE",
"349 -50 CURVE SMOOTH",
"317 -50 OFFCURVE",
"290 -76 OFFCURVE",
"290 -108 CURVE SMOOTH",
"290 -140 OFFCURVE",
"317 -166 OFFCURVE",
"349 -166 CURVE SMOOTH"
);
}
);
width = 697;
}
);
leftKerningGroup = U;
note = Udotbelow;
rightKerningGroup = U;
unicode = 1EE4;
},
{
glyphname = Ugrave;
lastChange = "2015-11-30 00:26:46 +0000";
layers = (
{
layerId = "BD32059E-0A74-4E00-835E-4479F7BE2418";
name = Regular;
paths = (
{
closed = 1;
nodes = (
"544 -15 OFFCURVE",
"637 95 OFFCURVE",
"637 261 CURVE SMOOTH",
"637 699 LINE",
"535 699 LINE",
"535 257 LINE SMOOTH",
"535 135 OFFCURVE",
"460 77 OFFCURVE",
"349 77 CURVE SMOOTH",
"237 77 OFFCURVE",
"162 135 OFFCURVE",
"162 257 CURVE SMOOTH",
"162 699 LINE",
"60 699 LINE",
"60 261 LINE SMOOTH",
"60 95 OFFCURVE",
"153 -15 OFFCURVE",
"349 -15 CURVE SMOOTH"
);
},
{
closed = 1;
nodes = (
"400 741 LINE",
"331 913 LINE",
"224 913 LINE",
"307 741 LINE"
);
}
);
width = 697;
}
);
leftKerningGroup = U;
note = Ugrave;
rightKerningGroup = U;
unicode = 00D9;
},
{
glyphname = Uhookabove;
lastChange = "2015-11-30 00:26:47 +0000";
layers = (
{
layerId = "BD32059E-0A74-4E00-835E-4479F7BE2418";
name = Regular;
paths = (
{
closed = 1;
nodes = (
"544 -15 OFFCURVE",
"637 95 OFFCURVE",
"637 261 CURVE SMOOTH",
"637 699 LINE",
"535 699 LINE",
"535 257 LINE SMOOTH",
"535 135 OFFCURVE",
"460 77 OFFCURVE",
"349 77 CURVE SMOOTH",
"237 77 OFFCURVE",
"162 135 OFFCURVE",
"162 257 CURVE SMOOTH",
"162 699 LINE",
"60 699 LINE",
"60 261 LINE SMOOTH",
"60 95 OFFCURVE",
"153 -15 OFFCURVE",
"349 -15 CURVE SMOOTH"
);
},
{
closed = 1;
nodes = (
"383 742 LINE",
"383 776 LINE",
"443 784 OFFCURVE",
"475 822 OFFCURVE",
"475 870 CURVE SMOOTH",
"475 927 OFFCURVE",
"432 967 OFFCURVE",
"344 967 CURVE SMOOTH",
"312 967 OFFCURVE",
"277 961 OFFCURVE",
"257 954 CURVE",
"257 899 LINE",
"270 905 OFFCURVE",
"304 910 OFFCURVE",
"320 910 CURVE SMOOTH",
"366 910 OFFCURVE",
"386 897 OFFCURVE",
"386 866 CURVE SMOOTH",
"386 827 OFFCURVE",
"354 813 OFFCURVE",
"294 813 CURVE",
"294 742 LINE"
);
}
);
width = 697;
}
);
leftKerningGroup = U;
note = Uhookabove;
rightKerningGroup = U;
unicode = 1EE6;
},
{
glyphname = Uhorn;
lastChange = "2015-11-30 00:26:40 +0000";
layers = (
{
layerId = "BD32059E-0A74-4E00-835E-4479F7BE2418";
name = Regular;
paths = (
{
closed = 1;
nodes = (
"544 -15 OFFCURVE",
"637 95 OFFCURVE",
"637 261 CURVE SMOOTH",
"637 543 LINE",
"762 543 OFFCURVE",
"820 617 OFFCURVE",
"820 706 CURVE SMOOTH",
"820 747 LINE",
"726 747 LINE",
"726 711 LINE SMOOTH",
"726 650 OFFCURVE",
"704 624 OFFCURVE",
"637 624 CURVE",
"637 699 LINE",
"532 699 LINE",
"532 257 LINE SMOOTH",
"532 135 OFFCURVE",
"460 80 OFFCURVE",
"349 80 CURVE SMOOTH",
"237 80 OFFCURVE",
"165 135 OFFCURVE",
"165 257 CURVE SMOOTH",
"165 699 LINE",
"60 699 LINE",
"60 261 LINE SMOOTH",
"60 95 OFFCURVE",
"153 -15 OFFCURVE",
"349 -15 CURVE SMOOTH"
);
}
);
width = 838;
}
);
leftKerningGroup = U;
note = Uhorn;
rightKerningGroup = U;
unicode = 01AF;
},
{
glyphname = Uhornacute;
lastChange = "2015-11-30 00:26:47 +0000";
layers = (
{
layerId = "BD32059E-0A74-4E00-835E-4479F7BE2418";
name = Regular;
paths = (
{
closed = 1;
nodes = (
"544 -15 OFFCURVE",
"637 95 OFFCURVE",
"637 261 CURVE SMOOTH",
"637 543 LINE",
"762 543 OFFCURVE",
"820 617 OFFCURVE",
"820 706 CURVE SMOOTH",
"820 747 LINE",
"726 747 LINE",
"726 711 LINE SMOOTH",
"726 650 OFFCURVE",
"704 624 OFFCURVE",
"637 624 CURVE",
"637 699 LINE",
"532 699 LINE",
"532 257 LINE SMOOTH",
"532 135 OFFCURVE",
"460 80 OFFCURVE",
"349 80 CURVE SMOOTH",
"237 80 OFFCURVE",
"165 135 OFFCURVE",
"165 257 CURVE SMOOTH",
"165 699 LINE",
"60 699 LINE",
"60 261 LINE SMOOTH",
"60 95 OFFCURVE",
"153 -15 OFFCURVE",
"349 -15 CURVE SMOOTH"
);
},
{
closed = 1;
nodes = (
"389 741 LINE",
"472 913 LINE",
"365 913 LINE",
"297 741 LINE"
);
}
);
width = 840;
}
);
leftKerningGroup = U;
note = Uhornacute;
rightKerningGroup = U;
unicode = 1EE8;
},
{
glyphname = Uhorndotbelow;
lastChange = "2015-11-30 00:26:46 +0000";
layers = (
{
layerId = "BD32059E-0A74-4E00-835E-4479F7BE2418";
name = Regular;
paths = (
{
closed = 1;
nodes = (
"544 -15 OFFCURVE",
"637 95 OFFCURVE",
"637 261 CURVE SMOOTH",
"637 543 LINE",
"762 543 OFFCURVE",
"820 617 OFFCURVE",
"820 706 CURVE SMOOTH",
"820 747 LINE",
"726 747 LINE",
"726 711 LINE SMOOTH",
"726 650 OFFCURVE",
"704 624 OFFCURVE",
"637 624 CURVE",
"637 699 LINE",
"532 699 LINE",
"532 257 LINE SMOOTH",
"532 135 OFFCURVE",
"460 80 OFFCURVE",
"349 80 CURVE SMOOTH",
"237 80 OFFCURVE",
"165 135 OFFCURVE",
"165 257 CURVE SMOOTH",
"165 699 LINE",
"60 699 LINE",
"60 261 LINE SMOOTH",
"60 95 OFFCURVE",
"153 -15 OFFCURVE",
"349 -15 CURVE SMOOTH"
);
},
{
closed = 1;
nodes = (
"377 -166 OFFCURVE",
"403 -140 OFFCURVE",
"403 -108 CURVE SMOOTH",
"403 -76 OFFCURVE",
"377 -50 OFFCURVE",
"346 -50 CURVE SMOOTH",
"314 -50 OFFCURVE",
"287 -76 OFFCURVE",
"287 -108 CURVE SMOOTH",
"287 -140 OFFCURVE",
"314 -166 OFFCURVE",
"346 -166 CURVE SMOOTH"
);
}
);
width = 840;
}
);
leftKerningGroup = U;
note = Uhorndotbelow;
rightKerningGroup = U;
unicode = 1EF0;
},
{
glyphname = Uhorngrave;
lastChange = "2015-11-30 00:26:46 +0000";
layers = (
{
layerId = "BD32059E-0A74-4E00-835E-4479F7BE2418";
name = Regular;
paths = (
{
closed = 1;
nodes = (
"544 -15 OFFCURVE",
"637 95 OFFCURVE",
"637 261 CURVE SMOOTH",
"637 543 LINE",
"762 543 OFFCURVE",
"820 617 OFFCURVE",
"820 706 CURVE SMOOTH",
"820 747 LINE",
"726 747 LINE",
"726 711 LINE SMOOTH",
"726 650 OFFCURVE",
"704 624 OFFCURVE",
"637 624 CURVE",
"637 699 LINE",
"532 699 LINE",
"532 257 LINE SMOOTH",
"532 135 OFFCURVE",
"460 80 OFFCURVE",
"349 80 CURVE SMOOTH",
"237 80 OFFCURVE",
"165 135 OFFCURVE",
"165 257 CURVE SMOOTH",
"165 699 LINE",
"60 699 LINE",
"60 261 LINE SMOOTH",
"60 95 OFFCURVE",
"153 -15 OFFCURVE",
"349 -15 CURVE SMOOTH"
);
},
{
closed = 1;
nodes = (
"403 741 LINE",
"334 913 LINE",
"227 913 LINE",
"310 741 LINE"
);
}
);
width = 840;
}
);
leftKerningGroup = U;
note = Uhorngrave;
rightKerningGroup = U;
unicode = 1EEA;
},
{
glyphname = Uhornhookabove;
lastChange = "2015-11-30 00:26:47 +0000";
layers = (
{
layerId = "BD32059E-0A74-4E00-835E-4479F7BE2418";
name = Regular;
paths = (
{
closed = 1;
nodes = (
"544 -15 OFFCURVE",
"637 95 OFFCURVE",
"637 261 CURVE SMOOTH",
"637 543 LINE",
"762 543 OFFCURVE",
"820 617 OFFCURVE",
"820 706 CURVE SMOOTH",
"820 747 LINE",
"726 747 LINE",
"726 711 LINE SMOOTH",
"726 650 OFFCURVE",
"704 624 OFFCURVE",
"637 624 CURVE",
"637 699 LINE",
"532 699 LINE",
"532 257 LINE SMOOTH",
"532 135 OFFCURVE",
"460 80 OFFCURVE",
"349 80 CURVE SMOOTH",
"237 80 OFFCURVE",
"165 135 OFFCURVE",
"165 257 CURVE SMOOTH",
"165 699 LINE",
"60 699 LINE",
"60 261 LINE SMOOTH",
"60 95 OFFCURVE",
"153 -15 OFFCURVE",
"349 -15 CURVE SMOOTH"
);
},
{
closed = 1;
nodes = (
"387 742 LINE",
"387 776 LINE",
"447 784 OFFCURVE",
"479 822 OFFCURVE",
"479 870 CURVE SMOOTH",
"479 927 OFFCURVE",
"436 967 OFFCURVE",
"348 967 CURVE SMOOTH",
"316 967 OFFCURVE",
"281 961 OFFCURVE",
"261 954 CURVE",
"261 899 LINE",
"274 905 OFFCURVE",
"308 910 OFFCURVE",
"324 910 CURVE SMOOTH",
"370 910 OFFCURVE",
"390 897 OFFCURVE",
"390 866 CURVE SMOOTH",
"390 827 OFFCURVE",
"358 813 OFFCURVE",
"298 813 CURVE",
"298 742 LINE"
);
}
);
width = 840;
}
);
leftKerningGroup = U;
note = Uhornhookabove;
rightKerningGroup = U;
unicode = 1EEC;
},
{
glyphname = Uhorntilde;
lastChange = "2015-11-30 00:26:47 +0000";
layers = (
{
layerId = "BD32059E-0A74-4E00-835E-4479F7BE2418";
name = Regular;
paths = (
{
closed = 1;
nodes = (
"544 -15 OFFCURVE",
"637 95 OFFCURVE",
"637 261 CURVE SMOOTH",
"637 543 LINE",
"762 543 OFFCURVE",
"820 617 OFFCURVE",
"820 706 CURVE SMOOTH",
"820 747 LINE",
"726 747 LINE",
"726 711 LINE SMOOTH",
"726 650 OFFCURVE",
"704 624 OFFCURVE",
"637 624 CURVE",
"637 699 LINE",
"532 699 LINE",
"532 257 LINE SMOOTH",
"532 135 OFFCURVE",
"460 80 OFFCURVE",
"349 80 CURVE SMOOTH",
"237 80 OFFCURVE",
"165 135 OFFCURVE",
"165 257 CURVE SMOOTH",
"165 699 LINE",
"60 699 LINE",
"60 261 LINE SMOOTH",
"60 95 OFFCURVE",
"153 -15 OFFCURVE",
"349 -15 CURVE SMOOTH"
);
},
{
closed = 1;
nodes = (
"196 782 OFFCURVE",
"228 794 OFFCURVE",
"264 794 CURVE SMOOTH",
"328 794 OFFCURVE",
"376 744 OFFCURVE",
"449 744 CURVE SMOOTH",
"490 744 OFFCURVE",
"524 755 OFFCURVE",
"546 786 CURVE",
"546 872 LINE",
"519 833 OFFCURVE",
"486 821 OFFCURVE",
"449 821 CURVE SMOOTH",
"384 821 OFFCURVE",
"332 871 OFFCURVE",
"264 871 CURVE SMOOTH",
"224 871 OFFCURVE",
"188 859 OFFCURVE",
"166 828 CURVE",
"166 742 LINE"
);
}
);
width = 840;
}
);
leftKerningGroup = U;
note = Uhorntilde;
rightKerningGroup = U;
unicode = 1EEE;
},
{
glyphname = Uhungarumlaut;
lastChange = "2015-11-30 00:26:45 +0000";
layers = (
{
layerId = "BD32059E-0A74-4E00-835E-4479F7BE2418";
name = Regular;
paths = (
{
closed = 1;
nodes = (
"544 -15 OFFCURVE",
"637 95 OFFCURVE",
"637 261 CURVE SMOOTH",
"637 699 LINE",
"535 699 LINE",
"535 257 LINE SMOOTH",
"535 135 OFFCURVE",
"460 77 OFFCURVE",
"349 77 CURVE SMOOTH",
"237 77 OFFCURVE",
"162 135 OFFCURVE",
"162 257 CURVE SMOOTH",
"162 699 LINE",
"60 699 LINE",
"60 261 LINE SMOOTH",
"60 95 OFFCURVE",
"153 -15 OFFCURVE",
"349 -15 CURVE SMOOTH"
);
},
{
closed = 1;
nodes = (
"285 741 LINE",
"368 913 LINE",
"266 913 LINE",
"198 741 LINE"
);
},
{
closed = 1;
nodes = (
"492 741 LINE",
"575 913 LINE",
"473 913 LINE",
"404 741 LINE"
);
}
);
width = 697;
}
);
leftKerningGroup = U;
note = Uhungarumlaut;
rightKerningGroup = U;
unicode = 0170;
},
{
glyphname = Umacron;
lastChange = "2015-11-30 00:26:45 +0000";
layers = (
{
layerId = "BD32059E-0A74-4E00-835E-4479F7BE2418";
name = Regular;
paths = (
{
closed = 1;
nodes = (
"544 -15 OFFCURVE",
"637 95 OFFCURVE",
"637 261 CURVE SMOOTH",
"637 699 LINE",
"535 699 LINE",
"535 257 LINE SMOOTH",
"535 135 OFFCURVE",
"460 77 OFFCURVE",
"349 77 CURVE SMOOTH",
"237 77 OFFCURVE",
"162 135 OFFCURVE",
"162 257 CURVE SMOOTH",
"162 699 LINE",
"60 699 LINE",
"60 261 LINE SMOOTH",
"60 95 OFFCURVE",
"153 -15 OFFCURVE",
"349 -15 CURVE SMOOTH"
);
},
{
closed = 1;
nodes = (
"504 762 LINE",
"504 831 LINE",
"192 831 LINE",
"192 762 LINE"
);
}
);
width = 697;
}
);
leftKerningGroup = U;
note = Umacron;
rightKerningGroup = U;
unicode = 016A;
},
{
glyphname = Uogonek;
lastChange = "2015-11-30 00:26:45 +0000";
layers = (
{
layerId = "BD32059E-0A74-4E00-835E-4479F7BE2418";
name = Regular;
paths = (
{
closed = 1;
nodes = (
"544 -15 OFFCURVE",
"637 95 OFFCURVE",
"637 261 CURVE SMOOTH",
"637 699 LINE",
"535 699 LINE",
"535 257 LINE SMOOTH",
"535 135 OFFCURVE",
"460 77 OFFCURVE",
"349 77 CURVE SMOOTH",
"237 77 OFFCURVE",
"162 135 OFFCURVE",
"162 257 CURVE SMOOTH",
"162 699 LINE",
"60 699 LINE",
"60 261 LINE SMOOTH",
"60 95 OFFCURVE",
"153 -15 OFFCURVE",
"349 -15 CURVE SMOOTH"
);
},
{
closed = 1;
nodes = (
"379 -212 OFFCURVE",
"407 -207 OFFCURVE",
"426 -200 CURVE",
"426 -139 LINE",
"412 -145 OFFCURVE",
"396 -149 OFFCURVE",
"378 -149 CURVE SMOOTH",
"350 -149 OFFCURVE",
"334 -135 OFFCURVE",
"334 -106 CURVE SMOOTH",
"334 -65 OFFCURVE",
"362 -33 OFFCURVE",
"413 0 CURVE",
"319 0 LINE",
"277 -27 OFFCURVE",
"245 -70 OFFCURVE",
"245 -122 CURVE SMOOTH",
"245 -183 OFFCURVE",
"291 -212 OFFCURVE",
"349 -212 CURVE SMOOTH"
);
}
);
width = 697;
}
);
leftKerningGroup = U;
note = Uogonek;
rightKerningGroup = U;
unicode = 0172;
},
{
glyphname = Uring;
lastChange = "2015-11-30 00:26:47 +0000";
layers = (
{
layerId = "BD32059E-0A74-4E00-835E-4479F7BE2418";
name = Regular;
paths = (
{
closed = 1;
nodes = (
"544 -15 OFFCURVE",
"637 95 OFFCURVE",
"637 261 CURVE SMOOTH",
"637 699 LINE",
"535 699 LINE",
"535 257 LINE SMOOTH",
"535 135 OFFCURVE",
"460 77 OFFCURVE",
"349 77 CURVE SMOOTH",
"237 77 OFFCURVE",
"162 135 OFFCURVE",
"162 257 CURVE SMOOTH",
"162 699 LINE",
"60 699 LINE",
"60 261 LINE SMOOTH",
"60 95 OFFCURVE",
"153 -15 OFFCURVE",
"349 -15 CURVE SMOOTH"
);
},
{
closed = 1;
nodes = (
"412 742 OFFCURVE",
"464 793 OFFCURVE",
"464 858 CURVE SMOOTH",
"464 922 OFFCURVE",
"412 974 OFFCURVE",
"348 974 CURVE SMOOTH",
"283 974 OFFCURVE",
"232 922 OFFCURVE",
"232 858 CURVE SMOOTH",
"232 793 OFFCURVE",
"283 742 OFFCURVE",
"348 742 CURVE SMOOTH"
);
},
{
closed = 1;
nodes = (
"318 803 OFFCURVE",
"294 828 OFFCURVE",
"294 858 CURVE SMOOTH",
"294 887 OFFCURVE",
"318 912 OFFCURVE",
"348 912 CURVE SMOOTH",
"377 912 OFFCURVE",
"402 887 OFFCURVE",
"402 858 CURVE SMOOTH",
"402 828 OFFCURVE",
"377 803 OFFCURVE",
"348 803 CURVE SMOOTH"
);
}
);
width = 697;
}
);
leftKerningGroup = U;
note = Uring;
rightKerningGroup = U;
unicode = 016E;
},
{
glyphname = Utilde;
lastChange = "2015-11-30 00:26:45 +0000";
layers = (
{
layerId = "BD32059E-0A74-4E00-835E-4479F7BE2418";
name = Regular;
paths = (
{
closed = 1;
nodes = (
"544 -15 OFFCURVE",
"637 95 OFFCURVE",
"637 261 CURVE SMOOTH",
"637 699 LINE",
"535 699 LINE",
"535 257 LINE SMOOTH",
"535 135 OFFCURVE",
"460 77 OFFCURVE",
"349 77 CURVE SMOOTH",
"237 77 OFFCURVE",
"162 135 OFFCURVE",
"162 257 CURVE SMOOTH",
"162 699 LINE",
"60 699 LINE",
"60 261 LINE SMOOTH",
"60 95 OFFCURVE",
"153 -15 OFFCURVE",
"349 -15 CURVE SMOOTH"
);
},
{
closed = 1;
nodes = (
"191 782 OFFCURVE",
"223 794 OFFCURVE",
"259 794 CURVE SMOOTH",
"323 794 OFFCURVE",
"371 744 OFFCURVE",
"444 744 CURVE SMOOTH",
"485 744 OFFCURVE",
"519 755 OFFCURVE",
"541 786 CURVE",
"541 872 LINE",
"514 833 OFFCURVE",
"481 821 OFFCURVE",
"444 821 CURVE SMOOTH",
"379 821 OFFCURVE",
"327 871 OFFCURVE",
"259 871 CURVE SMOOTH",
"219 871 OFFCURVE",
"183 859 OFFCURVE",
"161 828 CURVE",
"161 742 LINE"
);
}
);
width = 697;
}
);
leftKerningGroup = U;
note = Utilde;
rightKerningGroup = U;
unicode = 0168;
},
{
glyphname = V;
lastChange = "2015-11-30 00:26:40 +0000";
layers = (
{
layerId = "BD32059E-0A74-4E00-835E-4479F7BE2418";
name = Regular;
paths = (
{
closed = 1;
nodes = (
"422 0 LINE",
"701 699 LINE",
"593 699 LINE",
"373 139 LINE",
"153 699 LINE",
"45 699 LINE",
"324 0 LINE"
);
}
);
width = 746;
}
);
note = V;
unicode = 0056;
},
{
glyphname = W;
lastChange = "2015-11-30 00:26:40 +0000";
layers = (
{
layerId = "BD32059E-0A74-4E00-835E-4479F7BE2418";
name = Regular;
paths = (
{
closed = 1;
nodes = (
"346 0 LINE",
"500 528 LINE",
"655 0 LINE",
"752 0 LINE",
"956 699 LINE",
"850 699 LINE",
"694 168 LINE",
"541 699 LINE",
"461 699 LINE",
"307 168 LINE",
"151 699 LINE",
"45 699 LINE",
"249 0 LINE"
);
}
);
width = 1001;
}
);
leftKerningGroup = W;
note = W;
rightKerningGroup = W;
unicode = 0057;
},
{
glyphname = Wacute;
lastChange = "2015-11-30 00:26:45 +0000";
layers = (
{
layerId = "BD32059E-0A74-4E00-835E-4479F7BE2418";
name = Regular;
paths = (
{
closed = 1;
nodes = (
"346 0 LINE",
"500 528 LINE",
"655 0 LINE",
"752 0 LINE",
"956 699 LINE",
"850 699 LINE",
"694 168 LINE",
"541 699 LINE",
"461 699 LINE",
"307 168 LINE",
"151 699 LINE",
"45 699 LINE",
"249 0 LINE"
);
},
{
closed = 1;
nodes = (
"557 741 LINE",
"640 913 LINE",
"533 913 LINE",
"465 741 LINE"
);
}
);
width = 1001;
}
);
leftKerningGroup = W;
note = Wacute;
rightKerningGroup = W;
unicode = 1E82;
},
{
glyphname = Wcircumflex;
lastChange = "2015-11-30 00:26:47 +0000";
layers = (
{
layerId = "BD32059E-0A74-4E00-835E-4479F7BE2418";
name = Regular;
paths = (
{
closed = 1;
nodes = (
"349 0 LINE",
"503 528 LINE",
"658 0 LINE",
"755 0 LINE",
"959 699 LINE",
"853 699 LINE",
"697 168 LINE",
"544 699 LINE",
"464 699 LINE",
"310 168 LINE",
"154 699 LINE",
"48 699 LINE",
"252 0 LINE"
);
},
{
closed = 1;
nodes = (
"420 741 LINE",
"504 848 LINE",
"588 741 LINE",
"690 741 LINE",
"548 907 LINE",
"459 907 LINE",
"317 741 LINE"
);
}
);
width = 1007;
}
);
leftKerningGroup = W;
note = Wcircumflex;
rightKerningGroup = W;
unicode = 0174;
},
{
glyphname = Wdieresis;
lastChange = "2015-11-30 00:26:48 +0000";
layers = (
{
layerId = "BD32059E-0A74-4E00-835E-4479F7BE2418";
name = Regular;
paths = (
{
closed = 1;
nodes = (
"346 0 LINE",
"500 528 LINE",
"655 0 LINE",
"752 0 LINE",
"956 699 LINE",
"850 699 LINE",
"694 168 LINE",
"541 699 LINE",
"461 699 LINE",
"307 168 LINE",
"151 699 LINE",
"45 699 LINE",
"249 0 LINE"
);
},
{
closed = 1;
nodes = (
"418 741 OFFCURVE",
"444 767 OFFCURVE",
"444 799 CURVE SMOOTH",
"444 831 OFFCURVE",
"418 857 OFFCURVE",
"387 857 CURVE SMOOTH",
"355 857 OFFCURVE",
"328 831 OFFCURVE",
"328 799 CURVE SMOOTH",
"328 767 OFFCURVE",
"355 741 OFFCURVE",
"387 741 CURVE SMOOTH"
);
},
{
closed = 1;
nodes = (
"645 741 OFFCURVE",
"671 767 OFFCURVE",
"671 799 CURVE SMOOTH",
"671 831 OFFCURVE",
"645 857 OFFCURVE",
"614 857 CURVE SMOOTH",
"582 857 OFFCURVE",
"555 831 OFFCURVE",
"555 799 CURVE SMOOTH",
"555 767 OFFCURVE",
"582 741 OFFCURVE",
"614 741 CURVE SMOOTH"
);
}
);
width = 1001;
}
);
leftKerningGroup = W;
note = Wdieresis;
rightKerningGroup = W;
unicode = 1E84;
},
{
glyphname = Wgrave;
lastChange = "2015-11-30 00:26:47 +0000";
layers = (
{
layerId = "BD32059E-0A74-4E00-835E-4479F7BE2418";
name = Regular;
paths = (
{
closed = 1;
nodes = (
"346 0 LINE",
"500 528 LINE",
"655 0 LINE",
"752 0 LINE",
"956 699 LINE",
"850 699 LINE",
"694 168 LINE",
"541 699 LINE",
"461 699 LINE",
"307 168 LINE",
"151 699 LINE",
"45 699 LINE",
"249 0 LINE"
);
},
{
closed = 1;
nodes = (
"541 741 LINE",
"472 913 LINE",
"365 913 LINE",
"448 741 LINE"
);
}
);
width = 1001;
}
);
leftKerningGroup = W;
note = Wgrave;
rightKerningGroup = W;
unicode = 1E80;
},
{
glyphname = X;
lastChange = "2015-11-30 00:26:40 +0000";
layers = (
{
layerId = "BD32059E-0A74-4E00-835E-4479F7BE2418";
name = Regular;
paths = (
{
closed = 1;
nodes = (
"163 0 LINE",
"366 276 LINE",
"569 0 LINE",
"686 0 LINE",
"424 355 LINE",
"677 699 LINE",
"560 699 LINE",
"366 435 LINE",
"172 699 LINE",
"55 699 LINE",
"307 355 LINE",
"46 0 LINE"
);
}
);
width = 732;
}
);
note = X;
unicode = 0058;
},
{
glyphname = Y;
lastChange = "2015-11-30 00:26:40 +0000";
layers = (
{
layerId = "BD32059E-0A74-4E00-835E-4479F7BE2418";
name = Regular;
paths = (
{
closed = 1;
nodes = (
"398 0 LINE",
"398 265 LINE",
"655 699 LINE",
"547 699 LINE",
"349 362 LINE",
"154 699 LINE",
"45 699 LINE",
"299 265 LINE",
"299 0 LINE"
);
}
);
width = 700;
}
);
leftKerningGroup = Y;
note = Y;
rightKerningGroup = Y;
unicode = 0059;
},
{
glyphname = Yacute;
lastChange = "2015-11-30 00:26:46 +0000";
layers = (
{
layerId = "BD32059E-0A74-4E00-835E-4479F7BE2418";
name = Regular;
paths = (
{
closed = 1;
nodes = (
"398 0 LINE",
"398 265 LINE",
"655 699 LINE",
"547 699 LINE",
"349 362 LINE",
"154 699 LINE",
"45 699 LINE",
"299 265 LINE",
"299 0 LINE"
);
},
{
closed = 1;
nodes = (
"379 754 LINE",
"462 926 LINE",
"355 926 LINE",
"287 754 LINE"
);
}
);
width = 700;
}
);
leftKerningGroup = Y;
note = Yacute;
rightKerningGroup = Y;
unicode = 00DD;
},
{
glyphname = Ycircumflex;
lastChange = "2015-11-30 00:26:44 +0000";
layers = (
{
layerId = "BD32059E-0A74-4E00-835E-4479F7BE2418";
name = Regular;
paths = (
{
closed = 1;
nodes = (
"401 0 LINE",
"401 265 LINE",
"658 699 LINE",
"550 699 LINE",
"352 362 LINE",
"157 699 LINE",
"48 699 LINE",
"302 265 LINE",
"302 0 LINE"
);
},
{
closed = 1;
nodes = (
"269 741 LINE",
"353 848 LINE",
"437 741 LINE",
"539 741 LINE",
"397 907 LINE",
"308 907 LINE",
"166 741 LINE"
);
}
);
width = 706;
}
);
leftKerningGroup = Y;
note = Ycircumflex;
rightKerningGroup = Y;
unicode = 0176;
},
{
glyphname = Ydieresis;
lastChange = "2015-11-30 00:26:45 +0000";
layers = (
{
layerId = "BD32059E-0A74-4E00-835E-4479F7BE2418";
name = Regular;
paths = (
{
closed = 1;
nodes = (
"398 0 LINE",
"398 265 LINE",
"655 699 LINE",
"547 699 LINE",
"349 362 LINE",
"154 699 LINE",
"45 699 LINE",
"299 265 LINE",
"299 0 LINE"
);
},
{
closed = 1;
nodes = (
"255 752 OFFCURVE",
"281 778 OFFCURVE",
"281 810 CURVE SMOOTH",
"281 842 OFFCURVE",
"255 868 OFFCURVE",
"224 868 CURVE SMOOTH",
"192 868 OFFCURVE",
"165 842 OFFCURVE",
"165 810 CURVE SMOOTH",
"165 778 OFFCURVE",
"192 752 OFFCURVE",
"224 752 CURVE SMOOTH"
);
},
{
closed = 1;
nodes = (
"482 752 OFFCURVE",
"508 778 OFFCURVE",
"508 810 CURVE SMOOTH",
"508 842 OFFCURVE",
"482 868 OFFCURVE",
"451 868 CURVE SMOOTH",
"419 868 OFFCURVE",
"392 842 OFFCURVE",
"392 810 CURVE SMOOTH",
"392 778 OFFCURVE",
"419 752 OFFCURVE",
"451 752 CURVE SMOOTH"
);
}
);
width = 700;
}
);
leftKerningGroup = Y;
note = Ydieresis;
rightKerningGroup = Y;
unicode = 0178;
},
{
glyphname = Ydotaccent;
lastChange = "2015-11-30 00:26:46 +0000";
layers = (
{
layerId = "BD32059E-0A74-4E00-835E-4479F7BE2418";
name = Regular;
paths = (
{
closed = 1;
nodes = (
"398 0 LINE",
"398 265 LINE",
"655 699 LINE",
"547 699 LINE",
"349 362 LINE",
"154 699 LINE",
"45 699 LINE",
"299 265 LINE",
"299 0 LINE"
);
},
{
closed = 1;
nodes = (
"381 741 OFFCURVE",
"407 767 OFFCURVE",
"407 799 CURVE SMOOTH",
"407 831 OFFCURVE",
"381 857 OFFCURVE",
"350 857 CURVE SMOOTH",
"318 857 OFFCURVE",
"291 831 OFFCURVE",
"291 799 CURVE SMOOTH",
"291 767 OFFCURVE",
"318 741 OFFCURVE",
"350 741 CURVE SMOOTH"
);
}
);
width = 700;
}
);
leftKerningGroup = Y;
note = Ydotaccent;
rightKerningGroup = Y;
unicode = 1E8E;
},
{
glyphname = Ydotbelow;
lastChange = "2015-11-30 00:26:45 +0000";
layers = (
{
layerId = "BD32059E-0A74-4E00-835E-4479F7BE2418";
name = Regular;
paths = (
{
closed = 1;
nodes = (
"398 0 LINE",
"398 265 LINE",
"655 699 LINE",
"547 699 LINE",
"349 362 LINE",
"154 699 LINE",
"45 699 LINE",
"299 265 LINE",
"299 0 LINE"
);
},
{
closed = 1;
nodes = (
"381 -166 OFFCURVE",
"407 -140 OFFCURVE",
"407 -108 CURVE SMOOTH",
"407 -76 OFFCURVE",
"381 -50 OFFCURVE",
"350 -50 CURVE SMOOTH",
"318 -50 OFFCURVE",
"291 -76 OFFCURVE",
"291 -108 CURVE SMOOTH",
"291 -140 OFFCURVE",
"318 -166 OFFCURVE",
"350 -166 CURVE SMOOTH"
);
}
);
width = 700;
}
);
leftKerningGroup = Y;
note = Ydotbelow;
rightKerningGroup = Y;
unicode = 1EF4;
},
{
glyphname = Ygrave;
lastChange = "2015-11-30 00:26:47 +0000";
layers = (
{
layerId = "BD32059E-0A74-4E00-835E-4479F7BE2418";
name = Regular;
paths = (
{
closed = 1;
nodes = (
"398 0 LINE",
"398 265 LINE",
"655 699 LINE",
"547 699 LINE",
"349 362 LINE",
"154 699 LINE",
"45 699 LINE",
"299 265 LINE",
"299 0 LINE"
);
},
{
closed = 1;
nodes = (
"398 741 LINE",
"329 913 LINE",
"222 913 LINE",
"305 741 LINE"
);
}
);
width = 700;
}
);
leftKerningGroup = Y;
note = Ygrave;
rightKerningGroup = Y;
unicode = 1EF2;
},
{
glyphname = Yhookabove;
lastChange = "2015-11-30 00:26:47 +0000";
layers = (
{
layerId = "BD32059E-0A74-4E00-835E-4479F7BE2418";
name = Regular;
paths = (
{
closed = 1;
nodes = (
"398 0 LINE",
"398 265 LINE",
"655 699 LINE",
"547 699 LINE",
"349 362 LINE",
"154 699 LINE",
"45 699 LINE",
"299 265 LINE",
"299 0 LINE"
);
},
{
closed = 1;
nodes = (
"387 742 LINE",
"387 776 LINE",
"447 784 OFFCURVE",
"479 822 OFFCURVE",
"479 870 CURVE SMOOTH",
"479 927 OFFCURVE",
"436 967 OFFCURVE",
"348 967 CURVE SMOOTH",
"316 967 OFFCURVE",
"281 961 OFFCURVE",
"261 954 CURVE",
"261 899 LINE",
"274 905 OFFCURVE",
"308 910 OFFCURVE",
"324 910 CURVE SMOOTH",
"370 910 OFFCURVE",
"390 897 OFFCURVE",
"390 866 CURVE SMOOTH",
"390 827 OFFCURVE",
"358 813 OFFCURVE",
"298 813 CURVE",
"298 742 LINE"
);
}
);
width = 700;
}
);
leftKerningGroup = Y;
note = Yhookabove;
rightKerningGroup = Y;
unicode = 1EF6;
},
{
glyphname = Ytilde;
lastChange = "2015-11-30 00:26:45 +0000";
layers = (
{
layerId = "BD32059E-0A74-4E00-835E-4479F7BE2418";
name = Regular;
paths = (
{
closed = 1;
nodes = (
"398 0 LINE",
"398 265 LINE",
"655 699 LINE",
"547 699 LINE",
"349 362 LINE",
"154 699 LINE",
"45 699 LINE",
"299 265 LINE",
"299 0 LINE"
);
},
{
closed = 1;
nodes = (
"189 782 OFFCURVE",
"221 794 OFFCURVE",
"257 794 CURVE SMOOTH",
"321 794 OFFCURVE",
"369 744 OFFCURVE",
"442 744 CURVE SMOOTH",
"483 744 OFFCURVE",
"517 755 OFFCURVE",
"539 786 CURVE",
"539 872 LINE",
"512 833 OFFCURVE",
"479 821 OFFCURVE",
"442 821 CURVE SMOOTH",
"377 821 OFFCURVE",
"325 871 OFFCURVE",
"257 871 CURVE SMOOTH",
"217 871 OFFCURVE",
"181 859 OFFCURVE",
"159 828 CURVE",
"159 742 LINE"
);
}
);
width = 700;
}
);
leftKerningGroup = Y;
note = Ytilde;
rightKerningGroup = Y;
unicode = 1EF8;
},
{
glyphname = Z;
lastChange = "2015-11-30 00:26:40 +0000";
layers = (
{
layerId = "BD32059E-0A74-4E00-835E-4479F7BE2418";
name = Regular;
paths = (
{
closed = 1;
nodes = (
"573 0 LINE",
"573 85 LINE",
"170 85 LINE",
"556 629 LINE",
"556 699 LINE",
"54 699 LINE",
"54 613 LINE",
"432 613 LINE",
"45 69 LINE",
"45 0 LINE"
);
}
);
width = 618;
}
);
leftKerningGroup = Z;
note = Z;
rightKerningGroup = Z;
unicode = 005A;
},
{
glyphname = Zacute;
lastChange = "2015-11-30 00:26:46 +0000";
layers = (
{
layerId = "BD32059E-0A74-4E00-835E-4479F7BE2418";
name = Regular;
paths = (
{
closed = 1;
nodes = (
"573 0 LINE",
"573 85 LINE",
"170 85 LINE",
"556 629 LINE",
"556 699 LINE",
"54 699 LINE",
"54 613 LINE",
"432 613 LINE",
"45 69 LINE",
"45 0 LINE"
);
},
{
closed = 1;
nodes = (
"332 741 LINE",
"415 913 LINE",
"308 913 LINE",
"240 741 LINE"
);
}
);
width = 618;
}
);
leftKerningGroup = Z;
note = Zacute;
rightKerningGroup = Z;
unicode = 0179;
},
{
glyphname = Zcaron;
lastChange = "2015-11-30 00:26:45 +0000";
layers = (
{
layerId = "BD32059E-0A74-4E00-835E-4479F7BE2418";
name = Regular;
paths = (
{
closed = 1;
nodes = (
"573 0 LINE",
"573 85 LINE",
"170 85 LINE",
"556 629 LINE",
"556 699 LINE",
"54 699 LINE",
"54 613 LINE",
"432 613 LINE",
"45 69 LINE",
"45 0 LINE"
);
},
{
closed = 1;
nodes = (
"352 742 LINE",
"494 908 LINE",
"392 908 LINE",
"308 801 LINE",
"224 908 LINE",
"121 908 LINE",
"263 742 LINE"
);
}
);
width = 618;
}
);
leftKerningGroup = Z;
note = Zcaron;
rightKerningGroup = Z;
unicode = 017D;
},
{
glyphname = Zdotaccent;
lastChange = "2015-11-30 00:26:47 +0000";
layers = (
{
layerId = "BD32059E-0A74-4E00-835E-4479F7BE2418";
name = Regular;
paths = (
{
closed = 1;
nodes = (
"573 0 LINE",
"573 85 LINE",
"170 85 LINE",
"556 629 LINE",
"556 699 LINE",
"54 699 LINE",
"54 613 LINE",
"432 613 LINE",
"45 69 LINE",
"45 0 LINE"
);
},
{
closed = 1;
nodes = (
"330 741 OFFCURVE",
"356 767 OFFCURVE",
"356 799 CURVE SMOOTH",
"356 831 OFFCURVE",
"330 857 OFFCURVE",
"299 857 CURVE SMOOTH",
"267 857 OFFCURVE",
"240 831 OFFCURVE",
"240 799 CURVE SMOOTH",
"240 767 OFFCURVE",
"267 741 OFFCURVE",
"299 741 CURVE SMOOTH"
);
}
);
width = 618;
}
);
leftKerningGroup = Z;
note = Zdotaccent;
rightKerningGroup = Z;
unicode = 017B;
},
{
glyphname = Zdotbelow;
lastChange = "2015-11-30 00:26:45 +0000";
layers = (
{
layerId = "BD32059E-0A74-4E00-835E-4479F7BE2418";
name = Regular;
paths = (
{
closed = 1;
nodes = (
"573 0 LINE",
"573 85 LINE",
"170 85 LINE",
"556 629 LINE",
"556 699 LINE",
"54 699 LINE",
"54 613 LINE",
"432 613 LINE",
"45 69 LINE",
"45 0 LINE"
);
},
{
closed = 1;
nodes = (
"350 -166 OFFCURVE",
"376 -140 OFFCURVE",
"376 -108 CURVE SMOOTH",
"376 -76 OFFCURVE",
"350 -50 OFFCURVE",
"319 -50 CURVE SMOOTH",
"287 -50 OFFCURVE",
"260 -76 OFFCURVE",
"260 -108 CURVE SMOOTH",
"260 -140 OFFCURVE",
"287 -166 OFFCURVE",
"319 -166 CURVE SMOOTH"
);
}
);
width = 618;
}
);
leftKerningGroup = Z;
note = Zdotbelow;
rightKerningGroup = Z;
unicode = 1E92;
},
{
glyphname = a;
lastChange = "2015-11-30 00:26:45 +0000";
layers = (
{
layerId = "BD32059E-0A74-4E00-835E-4479F7BE2418";
name = Regular;
paths = (
{
closed = 1;
nodes = (
"321 -15 OFFCURVE",
"375 11 OFFCURVE",
"414 54 CURVE",
"414 0 LINE",
"509 0 LINE",
"509 297 LINE SMOOTH",
"509 416 OFFCURVE",
"440 495 OFFCURVE",
"275 495 CURVE SMOOTH",
"215 495 OFFCURVE",
"144 482 OFFCURVE",
"104 464 CURVE",
"104 382 LINE",
"147 402 OFFCURVE",
"205 414 OFFCURVE",
"264 414 CURVE SMOOTH",
"364 414 OFFCURVE",
"407 378 OFFCURVE",
"407 302 CURVE SMOOTH",
"407 277 LINE",
"362 303 OFFCURVE",
"304 317 OFFCURVE",
"239 317 CURVE SMOOTH",
"114 317 OFFCURVE",
"45 256 OFFCURVE",
"45 150 CURVE SMOOTH",
"45 48 OFFCURVE",
"122 -15 OFFCURVE",
"237 -15 CURVE SMOOTH"
);
},
{
closed = 1;
nodes = (
"186 62 OFFCURVE",
"147 92 OFFCURVE",
"147 150 CURVE SMOOTH",
"147 211 OFFCURVE",
"184 241 OFFCURVE",
"262 241 CURVE SMOOTH",
"319 241 OFFCURVE",
"364 227 OFFCURVE",
"407 199 CURVE",
"407 134 LINE",
"381 89 OFFCURVE",
"325 62 OFFCURVE",
"262 62 CURVE SMOOTH"
);
}
);
width = 569;
}
);
leftKerningGroup = a;
note = a;
rightKerningGroup = a;
unicode = 0061;
},
{
glyphname = aacute;
lastChange = "2015-11-30 00:26:47 +0000";
layers = (
{
layerId = "BD32059E-0A74-4E00-835E-4479F7BE2418";
name = Regular;
paths = (
{
closed = 1;
nodes = (
"321 -15 OFFCURVE",
"375 11 OFFCURVE",
"414 54 CURVE",
"414 0 LINE",
"509 0 LINE",
"509 297 LINE SMOOTH",
"509 416 OFFCURVE",
"440 495 OFFCURVE",
"275 495 CURVE SMOOTH",
"215 495 OFFCURVE",
"144 482 OFFCURVE",
"104 464 CURVE",
"104 382 LINE",
"147 402 OFFCURVE",
"205 414 OFFCURVE",
"264 414 CURVE SMOOTH",
"364 414 OFFCURVE",
"407 378 OFFCURVE",
"407 302 CURVE SMOOTH",
"407 277 LINE",
"362 303 OFFCURVE",
"304 317 OFFCURVE",
"239 317 CURVE SMOOTH",
"114 317 OFFCURVE",
"45 256 OFFCURVE",
"45 150 CURVE SMOOTH",
"45 48 OFFCURVE",
"122 -15 OFFCURVE",
"237 -15 CURVE SMOOTH"
);
},
{
closed = 1;
nodes = (
"186 62 OFFCURVE",
"147 92 OFFCURVE",
"147 150 CURVE SMOOTH",
"147 211 OFFCURVE",
"184 241 OFFCURVE",
"262 241 CURVE SMOOTH",
"319 241 OFFCURVE",
"364 227 OFFCURVE",
"407 199 CURVE",
"407 134 LINE",
"381 89 OFFCURVE",
"325 62 OFFCURVE",
"262 62 CURVE SMOOTH"
);
},
{
closed = 1;
nodes = (
"329 534 LINE",
"412 706 LINE",
"305 706 LINE",
"237 534 LINE"
);
}
);
width = 569;
}
);
leftKerningGroup = a;
note = aacute;
rightKerningGroup = a;
unicode = 00E1;
},
{
glyphname = abreve;
lastChange = "2015-11-30 00:26:47 +0000";
layers = (
{
layerId = "BD32059E-0A74-4E00-835E-4479F7BE2418";
name = Regular;
paths = (
{
closed = 1;
nodes = (
"321 -15 OFFCURVE",
"375 11 OFFCURVE",
"414 54 CURVE",
"414 0 LINE",
"509 0 LINE",
"509 297 LINE SMOOTH",
"509 416 OFFCURVE",
"440 495 OFFCURVE",
"275 495 CURVE SMOOTH",
"215 495 OFFCURVE",
"144 482 OFFCURVE",
"104 464 CURVE",
"104 382 LINE",
"147 402 OFFCURVE",
"205 414 OFFCURVE",
"264 414 CURVE SMOOTH",
"364 414 OFFCURVE",
"407 378 OFFCURVE",
"407 302 CURVE SMOOTH",
"407 277 LINE",
"362 303 OFFCURVE",
"304 317 OFFCURVE",
"239 317 CURVE SMOOTH",
"114 317 OFFCURVE",
"45 256 OFFCURVE",
"45 150 CURVE SMOOTH",
"45 48 OFFCURVE",
"122 -15 OFFCURVE",
"237 -15 CURVE SMOOTH"
);
},
{
closed = 1;
nodes = (
"186 62 OFFCURVE",
"147 92 OFFCURVE",
"147 150 CURVE SMOOTH",
"147 211 OFFCURVE",
"184 241 OFFCURVE",
"262 241 CURVE SMOOTH",
"319 241 OFFCURVE",
"364 227 OFFCURVE",
"407 199 CURVE",
"407 134 LINE",
"381 89 OFFCURVE",
"325 62 OFFCURVE",
"262 62 CURVE SMOOTH"
);
},
{
closed = 1;
nodes = (
"395 535 OFFCURVE",
"452 593 OFFCURVE",
"452 675 CURVE",
"375 675 LINE",
"375 630 OFFCURVE",
"348 604 OFFCURVE",
"302 604 CURVE SMOOTH",
"256 604 OFFCURVE",
"229 630 OFFCURVE",
"229 675 CURVE",
"151 675 LINE",
"151 593 OFFCURVE",
"208 535 OFFCURVE",
"302 535 CURVE SMOOTH"
);
}
);
width = 569;
}
);
leftKerningGroup = a;
note = abreve;
rightKerningGroup = a;
unicode = 0103;
},
{
glyphname = abreveacute;
lastChange = "2015-11-30 00:26:46 +0000";
layers = (
{
layerId = "BD32059E-0A74-4E00-835E-4479F7BE2418";
name = Regular;
paths = (
{
closed = 1;
nodes = (
"321 -15 OFFCURVE",
"375 11 OFFCURVE",
"414 54 CURVE",
"414 0 LINE",
"509 0 LINE",
"509 297 LINE SMOOTH",
"509 416 OFFCURVE",
"440 495 OFFCURVE",
"275 495 CURVE SMOOTH",
"215 495 OFFCURVE",
"144 482 OFFCURVE",
"104 464 CURVE",
"104 382 LINE",
"147 402 OFFCURVE",
"205 414 OFFCURVE",
"264 414 CURVE SMOOTH",
"364 414 OFFCURVE",
"407 378 OFFCURVE",
"407 302 CURVE SMOOTH",
"407 277 LINE",
"362 303 OFFCURVE",
"304 317 OFFCURVE",
"239 317 CURVE SMOOTH",
"114 317 OFFCURVE",
"45 256 OFFCURVE",
"45 150 CURVE SMOOTH",
"45 48 OFFCURVE",
"122 -15 OFFCURVE",
"237 -15 CURVE SMOOTH"
);
},
{
closed = 1;
nodes = (
"186 62 OFFCURVE",
"147 92 OFFCURVE",
"147 150 CURVE SMOOTH",
"147 211 OFFCURVE",
"184 241 OFFCURVE",
"262 241 CURVE SMOOTH",
"319 241 OFFCURVE",
"364 227 OFFCURVE",
"407 199 CURVE",
"407 134 LINE",
"381 89 OFFCURVE",
"325 62 OFFCURVE",
"262 62 CURVE SMOOTH"
);
},
{
closed = 1;
nodes = (
"385 535 OFFCURVE",
"441 591 OFFCURVE",
"441 672 CURVE",
"366 672 LINE",
"366 628 OFFCURVE",
"340 602 OFFCURVE",
"294 602 CURVE SMOOTH",
"249 602 OFFCURVE",
"223 628 OFFCURVE",
"223 672 CURVE",
"148 672 LINE",
"148 591 OFFCURVE",
"203 535 OFFCURVE",
"294 535 CURVE SMOOTH"
);
},
{
closed = 1;
nodes = (
"325 667 LINE",
"390 791 LINE",
"307 791 LINE",
"255 667 LINE"
);
}
);
width = 569;
}
);
leftKerningGroup = a;
note = abreveacute;
rightKerningGroup = a;
unicode = 1EAF;
},
{
glyphname = abrevedotbelow;
lastChange = "2015-11-30 00:26:46 +0000";
layers = (
{
layerId = "BD32059E-0A74-4E00-835E-4479F7BE2418";
name = Regular;
paths = (
{
closed = 1;
nodes = (
"321 -15 OFFCURVE",
"375 11 OFFCURVE",
"414 54 CURVE",
"414 0 LINE",
"509 0 LINE",
"509 297 LINE SMOOTH",
"509 416 OFFCURVE",
"440 495 OFFCURVE",
"275 495 CURVE SMOOTH",
"215 495 OFFCURVE",
"144 482 OFFCURVE",
"104 464 CURVE",
"104 382 LINE",
"147 402 OFFCURVE",
"205 414 OFFCURVE",
"264 414 CURVE SMOOTH",
"364 414 OFFCURVE",
"407 378 OFFCURVE",
"407 302 CURVE SMOOTH",
"407 277 LINE",
"362 303 OFFCURVE",
"304 317 OFFCURVE",
"239 317 CURVE SMOOTH",
"114 317 OFFCURVE",
"45 256 OFFCURVE",
"45 150 CURVE SMOOTH",
"45 48 OFFCURVE",
"122 -15 OFFCURVE",
"237 -15 CURVE SMOOTH"
);
},
{
closed = 1;
nodes = (
"312 -166 OFFCURVE",
"338 -140 OFFCURVE",
"338 -108 CURVE SMOOTH",
"338 -76 OFFCURVE",
"312 -50 OFFCURVE",
"281 -50 CURVE SMOOTH",
"249 -50 OFFCURVE",
"222 -76 OFFCURVE",
"222 -108 CURVE SMOOTH",
"222 -140 OFFCURVE",
"249 -166 OFFCURVE",
"281 -166 CURVE SMOOTH"
);
},
{
closed = 1;
nodes = (
"186 62 OFFCURVE",
"147 92 OFFCURVE",
"147 150 CURVE SMOOTH",
"147 211 OFFCURVE",
"184 241 OFFCURVE",
"262 241 CURVE SMOOTH",
"319 241 OFFCURVE",
"364 227 OFFCURVE",
"407 199 CURVE",
"407 134 LINE",
"381 89 OFFCURVE",
"325 62 OFFCURVE",
"262 62 CURVE SMOOTH"
);
},
{
closed = 1;
nodes = (
"373 535 OFFCURVE",
"430 593 OFFCURVE",
"430 675 CURVE",
"353 675 LINE",
"353 630 OFFCURVE",
"326 604 OFFCURVE",
"280 604 CURVE SMOOTH",
"234 604 OFFCURVE",
"207 630 OFFCURVE",
"207 675 CURVE",
"129 675 LINE",
"129 593 OFFCURVE",
"186 535 OFFCURVE",
"280 535 CURVE SMOOTH"
);
}
);
width = 569;
}
);
leftKerningGroup = a;
note = abrevedotbelow;
rightKerningGroup = a;
unicode = 1EB7;
},
{
glyphname = abrevegrave;
lastChange = "2015-11-30 00:26:47 +0000";
layers = (
{
layerId = "BD32059E-0A74-4E00-835E-4479F7BE2418";
name = Regular;
paths = (
{
closed = 1;
nodes = (
"321 -15 OFFCURVE",
"375 11 OFFCURVE",
"414 54 CURVE",
"414 0 LINE",
"509 0 LINE",
"509 297 LINE SMOOTH",
"509 416 OFFCURVE",
"440 495 OFFCURVE",
"275 495 CURVE SMOOTH",
"215 495 OFFCURVE",
"144 482 OFFCURVE",
"104 464 CURVE",
"104 382 LINE",
"147 402 OFFCURVE",
"205 414 OFFCURVE",
"264 414 CURVE SMOOTH",
"364 414 OFFCURVE",
"407 378 OFFCURVE",
"407 302 CURVE SMOOTH",
"407 277 LINE",
"362 303 OFFCURVE",
"304 317 OFFCURVE",
"239 317 CURVE SMOOTH",
"114 317 OFFCURVE",
"45 256 OFFCURVE",
"45 150 CURVE SMOOTH",
"45 48 OFFCURVE",
"122 -15 OFFCURVE",
"237 -15 CURVE SMOOTH"
);
},
{
closed = 1;
nodes = (
"186 62 OFFCURVE",
"147 92 OFFCURVE",
"147 150 CURVE SMOOTH",
"147 211 OFFCURVE",
"184 241 OFFCURVE",
"262 241 CURVE SMOOTH",
"319 241 OFFCURVE",
"364 227 OFFCURVE",
"407 199 CURVE",
"407 134 LINE",
"381 89 OFFCURVE",
"325 62 OFFCURVE",
"262 62 CURVE SMOOTH"
);
},
{
closed = 1;
nodes = (
"384 532 OFFCURVE",
"440 588 OFFCURVE",
"440 669 CURVE",
"365 669 LINE",
"365 625 OFFCURVE",
"339 599 OFFCURVE",
"293 599 CURVE SMOOTH",
"248 599 OFFCURVE",
"222 625 OFFCURVE",
"222 669 CURVE",
"147 669 LINE",
"147 588 OFFCURVE",
"202 532 OFFCURVE",
"293 532 CURVE SMOOTH"
);
},
{
closed = 1;
nodes = (
"333 664 LINE",
"281 788 LINE",
"198 788 LINE",
"263 664 LINE"
);
}
);
width = 569;
}
);
leftKerningGroup = a;
note = abrevegrave;
rightKerningGroup = a;
unicode = 1EB1;
},
{
glyphname = abrevehookabove;
lastChange = "2015-11-30 00:26:47 +0000";
layers = (
{
layerId = "BD32059E-0A74-4E00-835E-4479F7BE2418";
name = Regular;
paths = (
{
closed = 1;
nodes = (
"321 -15 OFFCURVE",
"375 11 OFFCURVE",
"414 54 CURVE",
"414 0 LINE",
"509 0 LINE",
"509 297 LINE SMOOTH",
"509 416 OFFCURVE",
"440 495 OFFCURVE",
"275 495 CURVE SMOOTH",
"215 495 OFFCURVE",
"144 482 OFFCURVE",
"104 464 CURVE",
"104 382 LINE",
"147 402 OFFCURVE",
"205 414 OFFCURVE",
"264 414 CURVE SMOOTH",
"364 414 OFFCURVE",
"407 378 OFFCURVE",
"407 302 CURVE SMOOTH",
"407 277 LINE",
"362 303 OFFCURVE",
"304 317 OFFCURVE",
"239 317 CURVE SMOOTH",
"114 317 OFFCURVE",
"45 256 OFFCURVE",
"45 150 CURVE SMOOTH",
"45 48 OFFCURVE",
"122 -15 OFFCURVE",
"237 -15 CURVE SMOOTH"
);
},
{
closed = 1;
nodes = (
"186 62 OFFCURVE",
"147 92 OFFCURVE",
"147 150 CURVE SMOOTH",
"147 211 OFFCURVE",
"184 241 OFFCURVE",
"262 241 CURVE SMOOTH",
"319 241 OFFCURVE",
"364 227 OFFCURVE",
"407 199 CURVE",
"407 134 LINE",
"381 89 OFFCURVE",
"325 62 OFFCURVE",
"262 62 CURVE SMOOTH"
);
},
{
closed = 1;
nodes = (
"384 532 OFFCURVE",
"439 588 OFFCURVE",
"439 669 CURVE",
"366 669 LINE",
"366 625 OFFCURVE",
"338 598 OFFCURVE",
"293 598 CURVE SMOOTH",
"247 598 OFFCURVE",
"220 625 OFFCURVE",
"220 669 CURVE",
"146 669 LINE",
"146 588 OFFCURVE",
"202 532 OFFCURVE",
"293 532 CURVE SMOOTH"
);
},
{
closed = 1;
nodes = (
"324 652 LINE",
"324 676 LINE",
"366 683 OFFCURVE",
"390 708 OFFCURVE",
"390 741 CURVE SMOOTH",
"390 782 OFFCURVE",
"357 809 OFFCURVE",
"299 809 CURVE SMOOTH",
"277 809 OFFCURVE",
"249 805 OFFCURVE",
"233 799 CURVE",
"233 757 LINE",
"243 762 OFFCURVE",
"261 765 OFFCURVE",
"276 765 CURVE SMOOTH",
"305 765 OFFCURVE",
"319 757 OFFCURVE",
"319 735 CURVE SMOOTH",
"319 711 OFFCURVE",
"300 702 OFFCURVE",
"260 702 CURVE",
"260 652 LINE"
);
}
);
width = 569;
}
);
leftKerningGroup = a;
note = abrevehookabove;
rightKerningGroup = a;
unicode = 1EB3;
},
{
glyphname = abrevetilde;
lastChange = "2015-11-30 00:26:45 +0000";
layers = (
{
layerId = "BD32059E-0A74-4E00-835E-4479F7BE2418";
name = Regular;
paths = (
{
closed = 1;
nodes = (
"321 -15 OFFCURVE",
"375 11 OFFCURVE",
"414 54 CURVE",
"414 0 LINE",
"509 0 LINE",
"509 297 LINE SMOOTH",
"509 416 OFFCURVE",
"440 495 OFFCURVE",
"275 495 CURVE SMOOTH",
"215 495 OFFCURVE",
"144 482 OFFCURVE",
"104 464 CURVE",
"104 382 LINE",
"147 402 OFFCURVE",
"205 414 OFFCURVE",
"264 414 CURVE SMOOTH",
"364 414 OFFCURVE",
"407 378 OFFCURVE",
"407 302 CURVE SMOOTH",
"407 277 LINE",
"362 303 OFFCURVE",
"304 317 OFFCURVE",
"239 317 CURVE SMOOTH",
"114 317 OFFCURVE",
"45 256 OFFCURVE",
"45 150 CURVE SMOOTH",
"45 48 OFFCURVE",
"122 -15 OFFCURVE",
"237 -15 CURVE SMOOTH"
);
},
{
closed = 1;
nodes = (
"186 62 OFFCURVE",
"147 92 OFFCURVE",
"147 150 CURVE SMOOTH",
"147 211 OFFCURVE",
"184 241 OFFCURVE",
"262 241 CURVE SMOOTH",
"319 241 OFFCURVE",
"364 227 OFFCURVE",
"407 199 CURVE",
"407 134 LINE",
"381 89 OFFCURVE",
"325 62 OFFCURVE",
"262 62 CURVE SMOOTH"
);
},
{
closed = 1;
nodes = (
"399 535 OFFCURVE",
"455 591 OFFCURVE",
"455 672 CURVE",
"380 672 LINE",
"380 628 OFFCURVE",
"354 602 OFFCURVE",
"308 602 CURVE SMOOTH",
"263 602 OFFCURVE",
"236 628 OFFCURVE",
"236 672 CURVE",
"162 672 LINE",
"162 591 OFFCURVE",
"217 535 OFFCURVE",
"308 535 CURVE SMOOTH"
);
},
{
closed = 1;
nodes = (
"172 732 OFFCURVE",
"197 743 OFFCURVE",
"228 743 CURVE SMOOTH",
"279 743 OFFCURVE",
"325 700 OFFCURVE",
"384 700 CURVE SMOOTH",
"419 700 OFFCURVE",
"447 709 OFFCURVE",
"465 735 CURVE",
"465 810 LINE",
"442 777 OFFCURVE",
"415 766 OFFCURVE",
"384 766 CURVE SMOOTH",
"332 766 OFFCURVE",
"283 810 OFFCURVE",
"228 810 CURVE SMOOTH",
"193 810 OFFCURVE",
"165 800 OFFCURVE",
"147 774 CURVE",
"147 699 LINE"
);
}
);
width = 569;
}
);
leftKerningGroup = a;
note = abrevetilde;
rightKerningGroup = a;
unicode = 1EB5;
},
{
glyphname = acaron;
lastChange = "2015-11-30 00:26:44 +0000";
layers = (
{
layerId = "BD32059E-0A74-4E00-835E-4479F7BE2418";
name = Regular;
paths = (
{
closed = 1;
nodes = (
"321 -15 OFFCURVE",
"375 11 OFFCURVE",
"414 54 CURVE",
"414 0 LINE",
"509 0 LINE",
"509 297 LINE SMOOTH",
"509 416 OFFCURVE",
"440 495 OFFCURVE",
"275 495 CURVE SMOOTH",
"215 495 OFFCURVE",
"144 482 OFFCURVE",
"104 464 CURVE",
"104 382 LINE",
"147 402 OFFCURVE",
"205 414 OFFCURVE",
"264 414 CURVE SMOOTH",
"364 414 OFFCURVE",
"407 378 OFFCURVE",
"407 302 CURVE SMOOTH",
"407 277 LINE",
"362 303 OFFCURVE",
"304 317 OFFCURVE",
"239 317 CURVE SMOOTH",
"114 317 OFFCURVE",
"45 256 OFFCURVE",
"45 150 CURVE SMOOTH",
"45 48 OFFCURVE",
"122 -15 OFFCURVE",
"237 -15 CURVE SMOOTH"
);
},
{
closed = 1;
nodes = (
"186 62 OFFCURVE",
"147 92 OFFCURVE",
"147 150 CURVE SMOOTH",
"147 211 OFFCURVE",
"184 241 OFFCURVE",
"262 241 CURVE SMOOTH",
"319 241 OFFCURVE",
"364 227 OFFCURVE",
"407 199 CURVE",
"407 134 LINE",
"381 89 OFFCURVE",
"325 62 OFFCURVE",
"262 62 CURVE SMOOTH"
);
},
{
closed = 1;
nodes = (
"345 535 LINE",
"487 701 LINE",
"385 701 LINE",
"301 594 LINE",
"217 701 LINE",
"114 701 LINE",
"256 535 LINE"
);
}
);
width = 569;
}
);
leftKerningGroup = a;
note = acaron;
rightKerningGroup = a;
unicode = 01CE;
},
{
glyphname = acircumflex;
lastChange = "2015-11-30 00:26:45 +0000";
layers = (
{
layerId = "BD32059E-0A74-4E00-835E-4479F7BE2418";
name = Regular;
paths = (
{
closed = 1;
nodes = (
"321 -15 OFFCURVE",
"375 11 OFFCURVE",
"414 54 CURVE",
"414 0 LINE",
"509 0 LINE",
"509 297 LINE SMOOTH",
"509 416 OFFCURVE",
"440 495 OFFCURVE",
"275 495 CURVE SMOOTH",
"215 495 OFFCURVE",
"144 482 OFFCURVE",
"104 464 CURVE",
"104 382 LINE",
"147 402 OFFCURVE",
"205 414 OFFCURVE",
"264 414 CURVE SMOOTH",
"364 414 OFFCURVE",
"407 378 OFFCURVE",
"407 302 CURVE SMOOTH",
"407 277 LINE",
"362 303 OFFCURVE",
"304 317 OFFCURVE",
"239 317 CURVE SMOOTH",
"114 317 OFFCURVE",
"45 256 OFFCURVE",
"45 150 CURVE SMOOTH",
"45 48 OFFCURVE",
"122 -15 OFFCURVE",
"237 -15 CURVE SMOOTH"
);
},
{
closed = 1;
nodes = (
"186 62 OFFCURVE",
"147 92 OFFCURVE",
"147 150 CURVE SMOOTH",
"147 211 OFFCURVE",
"184 241 OFFCURVE",
"262 241 CURVE SMOOTH",
"319 241 OFFCURVE",
"364 227 OFFCURVE",
"407 199 CURVE",
"407 134 LINE",
"381 89 OFFCURVE",
"325 62 OFFCURVE",
"262 62 CURVE SMOOTH"
);
},
{
closed = 1;
nodes = (
"210 534 LINE",
"294 641 LINE",
"378 534 LINE",
"480 534 LINE",
"338 700 LINE",
"249 700 LINE",
"107 534 LINE"
);
}
);
width = 569;
}
);
leftKerningGroup = a;
note = acircumflex;
rightKerningGroup = a;
unicode = 00E2;
},
{
glyphname = acircumflexacute;
lastChange = "2015-11-30 00:26:44 +0000";
layers = (
{
layerId = "BD32059E-0A74-4E00-835E-4479F7BE2418";
name = Regular;
paths = (
{
closed = 1;
nodes = (
"321 -15 OFFCURVE",
"375 11 OFFCURVE",
"414 54 CURVE",
"414 0 LINE",
"509 0 LINE",
"509 297 LINE SMOOTH",
"509 416 OFFCURVE",
"440 495 OFFCURVE",
"275 495 CURVE SMOOTH",
"215 495 OFFCURVE",
"144 482 OFFCURVE",
"104 464 CURVE",
"104 382 LINE",
"147 402 OFFCURVE",
"205 414 OFFCURVE",
"264 414 CURVE SMOOTH",
"364 414 OFFCURVE",
"407 378 OFFCURVE",
"407 302 CURVE SMOOTH",
"407 277 LINE",
"362 303 OFFCURVE",
"304 317 OFFCURVE",
"239 317 CURVE SMOOTH",
"114 317 OFFCURVE",
"45 256 OFFCURVE",
"45 150 CURVE SMOOTH",
"45 48 OFFCURVE",
"122 -15 OFFCURVE",
"237 -15 CURVE SMOOTH"
);
},
{
closed = 1;
nodes = (
"186 62 OFFCURVE",
"147 92 OFFCURVE",
"147 150 CURVE SMOOTH",
"147 211 OFFCURVE",
"184 241 OFFCURVE",
"262 241 CURVE SMOOTH",
"319 241 OFFCURVE",
"364 227 OFFCURVE",
"407 199 CURVE",
"407 134 LINE",
"381 89 OFFCURVE",
"325 62 OFFCURVE",
"262 62 CURVE SMOOTH"
);
},
{
closed = 1;
nodes = (
"218 534 LINE",
"300 624 LINE",
"382 534 LINE",
"481 534 LINE",
"343 679 LINE",
"257 679 LINE",
"119 534 LINE"
);
},
{
closed = 1;
nodes = (
"489 635 LINE",
"568 759 LINE",
"477 759 LINE",
"411 635 LINE"
);
}
);
width = 568;
}
);
leftKerningGroup = a;
note = acircumflexacute;
rightKerningGroup = a;
unicode = 1EA5;
},
{
glyphname = acircumflexdotbelow;
lastChange = "2015-11-30 00:26:45 +0000";
layers = (
{
layerId = "BD32059E-0A74-4E00-835E-4479F7BE2418";
name = Regular;
paths = (
{
closed = 1;
nodes = (
"321 -15 OFFCURVE",
"375 11 OFFCURVE",
"414 54 CURVE",
"414 0 LINE",
"509 0 LINE",
"509 297 LINE SMOOTH",
"509 416 OFFCURVE",
"440 495 OFFCURVE",
"275 495 CURVE SMOOTH",
"215 495 OFFCURVE",
"144 482 OFFCURVE",
"104 464 CURVE",
"104 382 LINE",
"147 402 OFFCURVE",
"205 414 OFFCURVE",
"264 414 CURVE SMOOTH",
"364 414 OFFCURVE",
"407 378 OFFCURVE",
"407 302 CURVE SMOOTH",
"407 277 LINE",
"362 303 OFFCURVE",
"304 317 OFFCURVE",
"239 317 CURVE SMOOTH",
"114 317 OFFCURVE",
"45 256 OFFCURVE",
"45 150 CURVE SMOOTH",
"45 48 OFFCURVE",
"122 -15 OFFCURVE",
"237 -15 CURVE SMOOTH"
);
},
{
closed = 1;
nodes = (
"314 -166 OFFCURVE",
"340 -140 OFFCURVE",
"340 -108 CURVE SMOOTH",
"340 -76 OFFCURVE",
"314 -50 OFFCURVE",
"283 -50 CURVE SMOOTH",
"251 -50 OFFCURVE",
"224 -76 OFFCURVE",
"224 -108 CURVE SMOOTH",
"224 -140 OFFCURVE",
"251 -166 OFFCURVE",
"283 -166 CURVE SMOOTH"
);
},
{
closed = 1;
nodes = (
"186 62 OFFCURVE",
"147 92 OFFCURVE",
"147 150 CURVE SMOOTH",
"147 211 OFFCURVE",
"184 241 OFFCURVE",
"262 241 CURVE SMOOTH",
"319 241 OFFCURVE",
"364 227 OFFCURVE",
"407 199 CURVE",
"407 134 LINE",
"381 89 OFFCURVE",
"325 62 OFFCURVE",
"262 62 CURVE SMOOTH"
);
},
{
closed = 1;
nodes = (
"202 534 LINE",
"286 641 LINE",
"370 534 LINE",
"472 534 LINE",
"330 700 LINE",
"241 700 LINE",
"99 534 LINE"
);
}
);
width = 569;
}
);
leftKerningGroup = a;
note = acircumflexdotbelow;
rightKerningGroup = a;
unicode = 1EAD;
},
{
glyphname = acircumflexgrave;
lastChange = "2015-11-30 00:26:46 +0000";
layers = (
{
layerId = "BD32059E-0A74-4E00-835E-4479F7BE2418";
name = Regular;
paths = (
{
closed = 1;
nodes = (
"321 -15 OFFCURVE",
"375 11 OFFCURVE",
"414 54 CURVE",
"414 0 LINE",
"509 0 LINE",
"509 297 LINE SMOOTH",
"509 416 OFFCURVE",
"440 495 OFFCURVE",
"275 495 CURVE SMOOTH",
"215 495 OFFCURVE",
"144 482 OFFCURVE",
"104 464 CURVE",
"104 382 LINE",
"147 402 OFFCURVE",
"205 414 OFFCURVE",
"264 414 CURVE SMOOTH",
"364 414 OFFCURVE",
"407 378 OFFCURVE",
"407 302 CURVE SMOOTH",
"407 277 LINE",
"362 303 OFFCURVE",
"304 317 OFFCURVE",
"239 317 CURVE SMOOTH",
"114 317 OFFCURVE",
"45 256 OFFCURVE",
"45 150 CURVE SMOOTH",
"45 48 OFFCURVE",
"122 -15 OFFCURVE",
"237 -15 CURVE SMOOTH"
);
},
{
closed = 1;
nodes = (
"186 62 OFFCURVE",
"147 92 OFFCURVE",
"147 150 CURVE SMOOTH",
"147 211 OFFCURVE",
"184 241 OFFCURVE",
"262 241 CURVE SMOOTH",
"319 241 OFFCURVE",
"364 227 OFFCURVE",
"407 199 CURVE",
"407 134 LINE",
"381 89 OFFCURVE",
"325 62 OFFCURVE",
"262 62 CURVE SMOOTH"
);
},
{
closed = 1;
nodes = (
"187 635 LINE",
"121 759 LINE",
"30 759 LINE",
"109 635 LINE"
);
},
{
closed = 1;
nodes = (
"216 534 LINE",
"298 624 LINE",
"380 534 LINE",
"479 534 LINE",
"341 679 LINE",
"255 679 LINE",
"117 534 LINE"
);
}
);
width = 569;
}
);
leftKerningGroup = a;
note = acircumflexgrave;
rightKerningGroup = a;
unicode = 1EA7;
},
{
glyphname = acircumflexhookabove;
lastChange = "2015-11-30 00:26:45 +0000";
layers = (
{
layerId = "BD32059E-0A74-4E00-835E-4479F7BE2418";
name = Regular;
paths = (
{
closed = 1;
nodes = (
"321 -15 OFFCURVE",
"375 11 OFFCURVE",
"414 54 CURVE",
"414 0 LINE",
"509 0 LINE",
"509 297 LINE SMOOTH",
"509 416 OFFCURVE",
"440 495 OFFCURVE",
"275 495 CURVE SMOOTH",
"215 495 OFFCURVE",
"144 482 OFFCURVE",
"104 464 CURVE",
"104 382 LINE",
"147 402 OFFCURVE",
"205 414 OFFCURVE",
"264 414 CURVE SMOOTH",
"364 414 OFFCURVE",
"407 378 OFFCURVE",
"407 302 CURVE SMOOTH",
"407 277 LINE",
"362 303 OFFCURVE",
"304 317 OFFCURVE",
"239 317 CURVE SMOOTH",
"114 317 OFFCURVE",
"45 256 OFFCURVE",
"45 150 CURVE SMOOTH",
"45 48 OFFCURVE",
"122 -15 OFFCURVE",
"237 -15 CURVE SMOOTH"
);
},
{
closed = 1;
nodes = (
"186 62 OFFCURVE",
"147 92 OFFCURVE",
"147 150 CURVE SMOOTH",
"147 211 OFFCURVE",
"184 241 OFFCURVE",
"262 241 CURVE SMOOTH",
"319 241 OFFCURVE",
"364 227 OFFCURVE",
"407 199 CURVE",
"407 134 LINE",
"381 89 OFFCURVE",
"325 62 OFFCURVE",
"262 62 CURVE SMOOTH"
);
},
{
closed = 1;
nodes = (
"209 534 LINE",
"291 624 LINE",
"373 534 LINE",
"472 534 LINE",
"334 679 LINE",
"248 679 LINE",
"110 534 LINE"
);
},
{
closed = 1;
nodes = (
"469 626 LINE",
"469 651 LINE",
"511 657 OFFCURVE",
"535 683 OFFCURVE",
"535 716 CURVE SMOOTH",
"535 757 OFFCURVE",
"502 784 OFFCURVE",
"444 784 CURVE SMOOTH",
"422 784 OFFCURVE",
"394 779 OFFCURVE",
"378 774 CURVE",
"378 731 LINE",
"388 736 OFFCURVE",
"406 739 OFFCURVE",
"421 739 CURVE SMOOTH",
"450 739 OFFCURVE",
"464 731 OFFCURVE",
"464 710 CURVE SMOOTH",
"464 686 OFFCURVE",
"445 676 OFFCURVE",
"405 676 CURVE",
"405 626 LINE"
);
}
);
width = 565;
}
);
leftKerningGroup = a;
note = acircumflexhookabove;
rightKerningGroup = a;
unicode = 1EA9;
},
{
glyphname = acircumflextilde;
lastChange = "2015-11-30 00:26:46 +0000";
layers = (
{
layerId = "BD32059E-0A74-4E00-835E-4479F7BE2418";
name = Regular;
paths = (
{
closed = 1;
nodes = (
"321 -15 OFFCURVE",
"375 11 OFFCURVE",
"414 54 CURVE",
"414 0 LINE",
"509 0 LINE",
"509 297 LINE SMOOTH",
"509 416 OFFCURVE",
"440 495 OFFCURVE",
"275 495 CURVE SMOOTH",
"215 495 OFFCURVE",
"144 482 OFFCURVE",
"104 464 CURVE",
"104 382 LINE",
"147 402 OFFCURVE",
"205 414 OFFCURVE",
"264 414 CURVE SMOOTH",
"364 414 OFFCURVE",
"407 378 OFFCURVE",
"407 302 CURVE SMOOTH",
"407 277 LINE",
"362 303 OFFCURVE",
"304 317 OFFCURVE",
"239 317 CURVE SMOOTH",
"114 317 OFFCURVE",
"45 256 OFFCURVE",
"45 150 CURVE SMOOTH",
"45 48 OFFCURVE",
"122 -15 OFFCURVE",
"237 -15 CURVE SMOOTH"
);
},
{
closed = 1;
nodes = (
"186 62 OFFCURVE",
"147 92 OFFCURVE",
"147 150 CURVE SMOOTH",
"147 211 OFFCURVE",
"184 241 OFFCURVE",
"262 241 CURVE SMOOTH",
"319 241 OFFCURVE",
"364 227 OFFCURVE",
"407 199 CURVE",
"407 134 LINE",
"381 89 OFFCURVE",
"325 62 OFFCURVE",
"262 62 CURVE SMOOTH"
);
},
{
closed = 1;
nodes = (
"213 534 LINE",
"295 624 LINE",
"377 534 LINE",
"476 534 LINE",
"338 679 LINE",
"252 679 LINE",
"114 534 LINE"
);
},
{
closed = 1;
nodes = (
"165 720 OFFCURVE",
"190 731 OFFCURVE",
"221 731 CURVE SMOOTH",
"272 731 OFFCURVE",
"318 688 OFFCURVE",
"377 688 CURVE SMOOTH",
"412 688 OFFCURVE",
"440 697 OFFCURVE",
"458 723 CURVE",
"458 798 LINE",
"435 765 OFFCURVE",
"408 754 OFFCURVE",
"377 754 CURVE SMOOTH",
"325 754 OFFCURVE",
"276 798 OFFCURVE",
"221 798 CURVE SMOOTH",
"186 798 OFFCURVE",
"158 788 OFFCURVE",
"140 762 CURVE",
"140 687 LINE"
);
}
);
width = 569;
}
);
leftKerningGroup = a;
note = acircumflextilde;
rightKerningGroup = a;
unicode = 1EAB;
},
{
glyphname = adieresis;
lastChange = "2015-11-30 00:26:45 +0000";
layers = (
{
layerId = "BD32059E-0A74-4E00-835E-4479F7BE2418";
name = Regular;
paths = (
{
closed = 1;
nodes = (
"321 -15 OFFCURVE",
"375 11 OFFCURVE",
"414 54 CURVE",
"414 0 LINE",
"509 0 LINE",
"509 297 LINE SMOOTH",
"509 416 OFFCURVE",
"440 495 OFFCURVE",
"275 495 CURVE SMOOTH",
"215 495 OFFCURVE",
"144 482 OFFCURVE",
"104 464 CURVE",
"104 382 LINE",
"147 402 OFFCURVE",
"205 414 OFFCURVE",
"264 414 CURVE SMOOTH",
"364 414 OFFCURVE",
"407 378 OFFCURVE",
"407 302 CURVE SMOOTH",
"407 277 LINE",
"362 303 OFFCURVE",
"304 317 OFFCURVE",
"239 317 CURVE SMOOTH",
"114 317 OFFCURVE",
"45 256 OFFCURVE",
"45 150 CURVE SMOOTH",
"45 48 OFFCURVE",
"122 -15 OFFCURVE",
"237 -15 CURVE SMOOTH"
);
},
{
closed = 1;
nodes = (
"186 62 OFFCURVE",
"147 92 OFFCURVE",
"147 150 CURVE SMOOTH",
"147 211 OFFCURVE",
"184 241 OFFCURVE",
"262 241 CURVE SMOOTH",
"319 241 OFFCURVE",
"364 227 OFFCURVE",
"407 199 CURVE",
"407 134 LINE",
"381 89 OFFCURVE",
"325 62 OFFCURVE",
"262 62 CURVE SMOOTH"
);
},
{
closed = 1;
nodes = (
"206 530 OFFCURVE",
"232 556 OFFCURVE",
"232 588 CURVE SMOOTH",
"232 620 OFFCURVE",
"206 646 OFFCURVE",
"175 646 CURVE SMOOTH",
"143 646 OFFCURVE",
"116 620 OFFCURVE",
"116 588 CURVE SMOOTH",
"116 556 OFFCURVE",
"143 530 OFFCURVE",
"175 530 CURVE SMOOTH"
);
},
{
closed = 1;
nodes = (
"433 530 OFFCURVE",
"459 556 OFFCURVE",
"459 588 CURVE SMOOTH",
"459 620 OFFCURVE",
"433 646 OFFCURVE",
"402 646 CURVE SMOOTH",
"370 646 OFFCURVE",
"343 620 OFFCURVE",
"343 588 CURVE SMOOTH",
"343 556 OFFCURVE",
"370 530 OFFCURVE",
"402 530 CURVE SMOOTH"
);
}
);
width = 569;
}
);
leftKerningGroup = a;
note = adieresis;
rightKerningGroup = a;
unicode = 00E4;
},
{
glyphname = adotbelow;
lastChange = "2015-11-30 00:26:45 +0000";
layers = (
{
layerId = "BD32059E-0A74-4E00-835E-4479F7BE2418";
name = Regular;
paths = (
{
closed = 1;
nodes = (
"321 -15 OFFCURVE",
"375 11 OFFCURVE",
"414 54 CURVE",
"414 0 LINE",
"509 0 LINE",
"509 297 LINE SMOOTH",
"509 416 OFFCURVE",
"440 495 OFFCURVE",
"275 495 CURVE SMOOTH",
"215 495 OFFCURVE",
"144 482 OFFCURVE",
"104 464 CURVE",
"104 382 LINE",
"147 402 OFFCURVE",
"205 414 OFFCURVE",
"264 414 CURVE SMOOTH",
"364 414 OFFCURVE",
"407 378 OFFCURVE",
"407 302 CURVE SMOOTH",
"407 277 LINE",
"362 303 OFFCURVE",
"304 317 OFFCURVE",
"239 317 CURVE SMOOTH",
"114 317 OFFCURVE",
"45 256 OFFCURVE",
"45 150 CURVE SMOOTH",
"45 48 OFFCURVE",
"122 -15 OFFCURVE",
"237 -15 CURVE SMOOTH"
);
},
{
closed = 1;
nodes = (
"311 -166 OFFCURVE",
"337 -140 OFFCURVE",
"337 -108 CURVE SMOOTH",
"337 -76 OFFCURVE",
"311 -50 OFFCURVE",
"280 -50 CURVE SMOOTH",
"248 -50 OFFCURVE",
"221 -76 OFFCURVE",
"221 -108 CURVE SMOOTH",
"221 -140 OFFCURVE",
"248 -166 OFFCURVE",
"280 -166 CURVE SMOOTH"
);
},
{
closed = 1;
nodes = (
"186 62 OFFCURVE",
"147 92 OFFCURVE",
"147 150 CURVE SMOOTH",
"147 211 OFFCURVE",
"184 241 OFFCURVE",
"262 241 CURVE SMOOTH",
"319 241 OFFCURVE",
"364 227 OFFCURVE",
"407 199 CURVE",
"407 134 LINE",
"381 89 OFFCURVE",
"325 62 OFFCURVE",
"262 62 CURVE SMOOTH"
);
}
);
width = 569;
}
);
leftKerningGroup = a;
note = adotbelow;
rightKerningGroup = a;
unicode = 1EA1;
},
{
glyphname = agrave;
lastChange = "2015-11-30 00:26:45 +0000";
layers = (
{
layerId = "BD32059E-0A74-4E00-835E-4479F7BE2418";
name = Regular;
paths = (
{
closed = 1;
nodes = (
"321 -15 OFFCURVE",
"375 11 OFFCURVE",
"414 54 CURVE",
"414 0 LINE",
"509 0 LINE",
"509 297 LINE SMOOTH",
"509 416 OFFCURVE",
"440 495 OFFCURVE",
"275 495 CURVE SMOOTH",
"215 495 OFFCURVE",
"144 482 OFFCURVE",
"104 464 CURVE",
"104 382 LINE",
"147 402 OFFCURVE",
"205 414 OFFCURVE",
"264 414 CURVE SMOOTH",
"364 414 OFFCURVE",
"407 378 OFFCURVE",
"407 302 CURVE SMOOTH",
"407 277 LINE",
"362 303 OFFCURVE",
"304 317 OFFCURVE",
"239 317 CURVE SMOOTH",
"114 317 OFFCURVE",
"45 256 OFFCURVE",
"45 150 CURVE SMOOTH",
"45 48 OFFCURVE",
"122 -15 OFFCURVE",
"237 -15 CURVE SMOOTH"
);
},
{
closed = 1;
nodes = (
"186 62 OFFCURVE",
"147 92 OFFCURVE",
"147 150 CURVE SMOOTH",
"147 211 OFFCURVE",
"184 241 OFFCURVE",
"262 241 CURVE SMOOTH",
"319 241 OFFCURVE",
"364 227 OFFCURVE",
"407 199 CURVE",
"407 134 LINE",
"381 89 OFFCURVE",
"325 62 OFFCURVE",
"262 62 CURVE SMOOTH"
);
},
{
closed = 1;
nodes = (
"347 534 LINE",
"278 706 LINE",
"171 706 LINE",
"254 534 LINE"
);
}
);
width = 569;
}
);
leftKerningGroup = a;
note = agrave;
rightKerningGroup = a;
unicode = 00E0;
},
